<?xml version="1.0" encoding="UTF-8" standalone="no"?>
<svg width="469px" height="485px" viewBox="0 0 469 485" version="1.1" xmlns="http://www.w3.org/2000/svg" xmlns:xlink="http://www.w3.org/1999/xlink" xmlns:sketch="http://www.bohemiancoding.com/sketch/ns">
    <!-- Generator: Sketch 3.4.4 (17249) - http://www.bohemiancoding.com/sketch -->
    <title>icon-font_82_CalendarBlank</title>
    <desc>Created with Sketch.</desc>
    <defs></defs>
    <g id="Page-1" stroke="none" stroke-width="1" fill="none" fill-rule="evenodd" sketch:type="MSPage">
        <g id="Artboard-1" sketch:type="MSArtboardGroup" transform="translate(-3015.000000, -8008.000000)" fill="#000000">
            <g id="icon-font_82_CalendarBlank" sketch:type="MSLayerGroup" transform="translate(3015.000000, 8008.000000)">
                <path d="M375.2,47.5 L466.998308,47.5 C468.103812,47.5 469,48.3964477 469,49.4989625 L469,483.001038 C469,484.105034 468.108284,485 466.998308,485 L2.00169178,485 C0.896187934,485 0,484.103552 0,483.001038 L0,49.4989625 C0,48.394966 0.891716108,47.5 2.00169178,47.5 L93.8,47.5 L93.8,47.5 L93.8,4.62332988 C93.8,2.41511326 95.5873806,0.625 97.8068686,0.625 L152.326465,0.625 C154.539397,0.625 156.333333,2.41406694 156.333333,4.62332988 L156.333333,47.5 L312.666667,47.5 L312.666667,4.62332988 C312.666667,2.41511326 314.454047,0.625 316.673535,0.625 L371.193131,0.625 C373.406064,0.625 375.2,2.41406694 375.2,4.62332988 L375.2,47.5 L375.2,47.5 L375.2,47.5 Z M31.2666667,203.75 L437.733333,203.75 L437.733333,451.755893 C437.733333,452.857208 436.838231,453.75 435.738052,453.75 L33.2619485,453.75 C32.1599848,453.75 31.2666667,452.844754 31.2666667,451.755893 L31.2666667,203.75 L31.2666667,203.75 Z" id="Rectangle-127" sketch:type="MSShapeGroup"></path>
                <path d="M211.972917,419.25 L211.972917,231.65625 L183.285417,231.65625 L129.285417,286.21875 L148.410417,306.1875 L179.066667,274.125 L179.066667,419.25 L211.972917,419.25 Z M319.347917,419.25 L319.347917,231.65625 L290.660417,231.65625 L236.660417,286.21875 L255.785417,306.1875 L286.441667,274.125 L286.441667,419.25 L319.347917,419.25 Z" id="11" sketch:type="MSShapeGroup"></path>
            </g>
        </g>
    </g>
</svg>