<?xml version="1.0" encoding="UTF-8" standalone="no"?>
<svg width="500px" height="397px" viewBox="0 0 500 397" version="1.1" xmlns="http://www.w3.org/2000/svg" xmlns:xlink="http://www.w3.org/1999/xlink">
    <!-- Generator: Sketch 3.7.2 (28276) - http://www.bohemiancoding.com/sketch -->
    <title>icon-font_66_CloudDownArrow</title>
    <desc>Created with Sketch.</desc>
    <defs></defs>
    <g id="Page-1" stroke="none" stroke-width="1" fill="none" fill-rule="evenodd">
        <g id="Artboard-1" transform="translate(-7000.000000, -6052.000000)" fill="#000000">
            <g id="icon-font_66_CloudDownArrow" transform="translate(7000.000000, 6052.000000)">
                <path d="M438.770353,159.506169 C438.943426,156.506824 439.213419,153.521527 439.213419,150.473012 C439.213419,67.3693706 372.822746,0 290.910916,0 C231.851601,0 181.002852,35.1141157 157.153439,85.8149933 C145.585263,76.7115938 131.095619,71.2397202 115.325238,71.2397202 C77.5469373,71.2397202 46.913076,102.321929 46.913076,140.653141 C46.913076,147.852975 47.9999723,154.806961 50.0076152,161.332468 C20.5575709,179.103765 0.751135357,211.618916 0.751135357,248.917567 C0.751135357,304.675889 44.8846644,349.904893 99.637932,350.761849 L99.637932,350.825067 L100.807903,350.825067 C100.946361,350.825067 101.077897,350.846139 101.209432,350.846139 C101.34789,350.846139 101.472502,350.825067 101.61096,350.825067 L150.251302,350.825067 L118.489006,312.332297 C104.892418,295.846434 101.673267,275.377834 109.863065,257.592489 C118.052863,239.814168 135.588586,229.193535 156.772679,229.193535 L178.745985,229.193535 L178.745985,172.746839 C178.745985,139.480095 205.426866,112.415745 238.220675,112.415745 L258.961702,112.415745 C291.762434,112.415745 318.436392,139.480095 318.436392,172.746839 L318.436392,229.193535 L340.409698,229.193535 C361.593792,229.193535 379.136437,239.814168 387.319312,257.592489 C395.516033,275.377834 392.289959,295.846434 378.679525,312.346346 L346.931076,350.825067 L395.716798,350.825067 C397.502908,350.916382 399.268249,351.099012 401.075127,351.099012 C455.302254,351.099012 499.248865,306.502188 499.248865,251.488434 C499.248865,210.024417 474.277941,174.502896 438.770353,159.506169" id="Fill-546"></path>
                <path d="M339.542583,271.310806 L293.955244,271.310806 L276.031839,271.310806 L276.031839,172.718742 C276.031839,162.716241 267.95973,154.533016 258.094588,154.533016 L237.35356,154.533016 C227.488419,154.533016 219.41631,162.716241 219.41631,172.718742 L219.41631,271.310806 L201.492905,271.310806 L155.905565,271.310806 C146.047346,271.310806 143.160494,277.590466 149.488031,285.267947 L236.211281,390.364446 C239.381972,394.199674 243.556485,396.124313 247.724074,396.124313 C251.898587,396.124313 256.066177,394.199674 259.236868,390.364446 L345.967041,285.267947 C352.294577,277.590466 349.407725,271.310806 339.542583,271.310806" id="Fill-547"></path>
            </g>
        </g>
    </g>
</svg>