<?xml version="1.0" encoding="UTF-8" standalone="no"?>
<svg width="497px" height="333px" viewBox="0 0 497 333" version="1.1" xmlns="http://www.w3.org/2000/svg" xmlns:xlink="http://www.w3.org/1999/xlink">
    <!-- Generator: Sketch 3.8.1 (29687) - http://www.bohemiancoding.com/sketch -->
    <title>icon-font_105_View</title>
    <desc>Created with Sketch.</desc>
    <defs></defs>
    <g id="Page-1" stroke="none" stroke-width="1" fill="none" fill-rule="evenodd">
        <g id="Artboard-1" transform="translate(-9003.000000, -10083.000000)" fill="#000000">
            <g id="icon-font_105_View" transform="translate(9003.000000, 10083.000000)">
                <g id="Group-2">
                    <g id="Group">
                        <path d="M471.081197,197.991929 C468.5343,195.837242 466.31719,193.536539 463.556263,190.459099 C461.579886,188.256152 459.411249,185.726406 456.116975,181.813099 C456.060313,181.74579 449.391612,173.800471 447.199892,171.206877 C428.452349,149.021781 412.314667,131.48265 393.620576,114.0521 C344.156426,67.9312512 295.426469,41.6666667 250,41.6666667 C200.857764,41.6666667 149.113545,66.9401551 100.831735,109.654257 C82.281242,126.065565 65.493171,144.059531 52.4935288,160.716392 C47.3817921,167.266226 43.2485201,173.131624 40.5947577,177.457253 C39.7179043,178.886523 39.1712202,179.876382 39.0494426,180.137376 C40.6286653,176.752781 41.6666667,173.550174 41.6666667,166.5 C41.6666667,159.449826 40.6286653,156.247219 39.0494426,152.862624 C39.1712202,153.123618 39.7179043,154.113477 40.5947577,155.542747 C43.2485201,159.868376 47.3817921,165.733774 52.4935288,172.283608 C65.493171,188.940469 82.281242,206.934435 100.831735,223.345743 C149.113545,266.059845 200.857764,291.333333 250,291.333333 C295.426469,291.333333 344.156426,265.068749 393.620576,218.9479 C412.314667,201.51735 428.452349,183.978219 447.199892,161.793123 C449.391612,159.199529 456.060313,151.25421 456.116975,151.186901 C459.411249,147.273594 461.579886,144.743848 463.556263,142.540901 C466.31719,139.463461 468.5343,137.162758 471.081197,135.008071 C489.543935,156.382279 500,170.41457 500,166.5 C500,162.58543 489.543935,176.617721 471.081197,197.991929 L471.081197,197.991929 Z M471.997306,196.929786 L471.997306,196.929786 C430.358143,245.277243 346.573892,333 250,333 C111.928813,333 5.44763356e-15,179.307692 0,166.5 C-3.09254351e-15,153.692308 111.928813,0 250,0 C346.573892,0 430.358143,87.722757 471.997306,136.070214 C468.472774,139.235598 465.486596,143.010249 463.206798,147.254219 C459.494437,154.164985 458.333333,160.426736 458.333333,166.5 C458.333333,172.573264 459.494437,178.835015 463.206798,185.745781 C465.486596,189.989751 468.472774,193.764402 471.997306,196.929786 L471.997306,196.929786 Z" id="Oval-225"></path>
                        <path d="M208.333333,166.5 C208.333333,143.546786 227.02381,124.875 250,124.875 C272.97619,124.875 291.666667,143.546786 291.666667,166.5 C291.666667,189.453214 272.97619,208.125 250,208.125 C227.02381,208.125 208.333333,189.453214 208.333333,166.5 Z" id="Path"></path>
                    </g>
                </g>
            </g>
        </g>
    </g>
</svg>