<?xml version="1.0" encoding="UTF-8" standalone="no"?>
<svg width="500px" height="500px" viewBox="0 0 500 500" version="1.1" xmlns="http://www.w3.org/2000/svg" xmlns:xlink="http://www.w3.org/1999/xlink" xmlns:sketch="http://www.bohemiancoding.com/sketch/ns">
    <!-- Generator: Sketch 3.4.4 (17249) - http://www.bohemiancoding.com/sketch -->
    <title>icon-font_10_Wizard</title>
    <desc>Created with Sketch.</desc>
    <defs></defs>
    <g id="Page-1" stroke="none" stroke-width="1" fill="none" fill-rule="evenodd" sketch:type="MSPage">
        <g id="Artboard-1" sketch:type="MSArtboardGroup" transform="translate(-9000.000000, 0.000000)" fill="#191919">
            <path d="M9284.88,142.799437 L9000,428.16152 L9071.71362,500 L9356.57972,214.637917 L9284.88,142.799437 L9284.88,142.799437 Z M9217.49771,242.050061 L9284.8661,174.557408 L9324.8839,214.644882 L9257.50855,282.13057 L9217.49771,242.050061 Z M9439.62568,83.2741354 L9415.86251,59.4626217 L9344.53822,130.931985 L9368.3014,154.72957 L9439.62568,83.2741354 Z M9344.54518,297.633474 L9415.85556,369.081944 L9439.62568,345.277395 L9368.30835,273.835889 L9344.54518,297.633474 Z M9225.65978,130.931985 L9154.31464,59.4626217 L9130.55146,83.2741354 L9201.8827,154.72957 L9225.65978,130.931985 Z M9301.92024,0.00696446729 L9268.29167,0 L9268.29167,101.040491 L9301.91329,101.05442 L9301.92024,0.00696446729 Z M9399.12122,232.097837 L9500,232.111766 L9499.9861,198.431602 L9399.10732,198.424637 L9399.12122,232.097837 Z" id="icon-font_10_Wizard" sketch:type="MSShapeGroup"></path>
        </g>
    </g>
</svg>