<?xml version="1.0" encoding="UTF-8" standalone="no"?>
<svg width="500px" height="500px" viewBox="0 0 500 500" version="1.1" xmlns="http://www.w3.org/2000/svg" xmlns:xlink="http://www.w3.org/1999/xlink">
    <!-- Generator: Sketch 3.7.2 (28276) - http://www.bohemiancoding.com/sketch -->
    <title>icon-font_105_View</title>
    <desc>Created with Sketch.</desc>
    <defs></defs>
    <g id="Page-1" stroke="none" stroke-width="1" fill="none" fill-rule="evenodd">
        <g id="Artboard-1" transform="translate(-9000.000000, -10000.000000)">
            <g id="icon-font_105_View" transform="translate(9000.000000, 10000.000000)">
                <g id="Group-2">
                    <rect id="Rectangle-67" fill="#FFFFFF" x="0" y="0" width="500" height="500"></rect>
                    <g id="Group" transform="translate(1.000000, 108.000000)" fill="#000000">
                        <path d="M248,204 C283.898509,204 313,174.898509 313,139 C313,103.101491 283.898509,74 248,74 C212.101491,74 183,103.101491 183,139 C183,174.898509 212.101491,204 248,204 L248,204 Z M248,171.5 C230.050746,171.5 215.5,156.949254 215.5,139 C215.5,121.050746 230.050746,106.5 248,106.5 C265.949254,106.5 280.5,121.050746 280.5,139 C280.5,156.949254 265.949254,171.5 248,171.5 L248,171.5 Z" id="Oval"></path>
                        <path d="M498,142 L490.228202,132.405634 C489.965038,132.080755 489.504695,131.523547 488.851817,130.749402 C487.802469,129.505146 486.570074,128.075014 485.159238,126.474392 C481.173246,121.952203 476.530276,116.934745 471.266609,111.545061 C456.271737,96.1911982 439.245208,80.8503779 420.461655,66.5093925 C396.186889,47.975942 370.739416,32.4869905 344.36045,21.0639068 C312.813937,7.40308047 280.919671,0 249,0 C217.080329,0 185.186063,7.40308047 153.63955,21.0639068 C127.260584,32.4869905 101.813111,47.975942 77.5383451,66.5093925 C58.7547915,80.8503779 41.7282633,96.1911982 26.7333912,111.545061 C21.4697242,116.934745 16.8267536,121.952203 12.840762,126.474392 C11.4299264,128.075014 10.197531,129.505146 9.14818293,130.749402 C8.49530468,131.523547 8.03496235,132.080755 7.77179844,132.405634 L0,142 L7.77179844,151.594366 C8.03496235,151.919245 8.49530468,152.476453 9.14818293,153.250598 C10.197531,154.494854 11.4299264,155.924986 12.840762,157.525608 C16.8267536,162.047797 21.4697242,167.065255 26.7333912,172.454939 C41.7282633,187.808802 58.7547915,203.149622 77.5383451,217.490608 C101.813111,236.024058 127.260584,251.513009 153.63955,262.936093 C185.186063,276.59692 217.080329,284 249,284 C280.919671,284 312.813937,276.59692 344.36045,262.936093 C370.739416,251.513009 396.186889,236.024058 420.461655,217.490608 C439.245208,203.149622 456.271737,187.808802 471.266609,172.454939 C476.530276,167.065255 481.173246,162.047797 485.159238,157.525608 C486.570074,155.924986 487.802469,154.494854 488.851817,153.250598 C489.504695,152.476453 489.965038,151.919245 490.228202,151.594366 L498,142 Z M449.382669,150.630786 C435.367435,164.981558 419.42527,179.345372 401.896022,192.728712 C352.448286,230.48138 300.541217,252.959092 249.012844,252.959092 C197.484471,252.959092 145.577402,230.48138 96.1296657,192.728712 C78.6004181,179.345372 62.6582533,164.981558 48.6430187,150.630786 C43.7531484,145.623848 40,141.455613 40,141.455613 C40,141.455613 45.5128629,135.533401 48.6430187,132.328306 C62.6582533,117.977535 78.6004181,103.613721 96.1296657,90.2303806 C145.577402,52.4777124 197.484471,30 249.012844,30 C300.541217,30 352.448286,52.4777124 401.896022,90.2303806 C419.42527,103.613721 435.367435,117.977535 449.382669,132.328306 C452.550111,135.57158 458.119504,141.558057 458.119504,141.558057 C458.119504,141.558057 454.27254,145.623848 449.382669,150.630786 Z" id="Combined-Shape"></path>
                    </g>
                </g>
            </g>
        </g>
    </g>
</svg>