<?xml version="1.0" encoding="UTF-8" standalone="no"?>
<svg width="494px" height="432px" viewBox="0 0 494 432" version="1.1" xmlns="http://www.w3.org/2000/svg" xmlns:xlink="http://www.w3.org/1999/xlink" xmlns:sketch="http://www.bohemiancoding.com/sketch/ns">
    <!-- Generator: Sketch 3.4.4 (17249) - http://www.bohemiancoding.com/sketch -->
    <title>icon-font_54_Boss</title>
    <desc>Created with Sketch.</desc>
    <defs></defs>
    <g id="Page-1" stroke="none" stroke-width="1" fill="none" fill-rule="evenodd" sketch:type="MSPage">
        <g id="Artboard-1" sketch:type="MSArtboardGroup" transform="translate(-5003.000000, -5035.000000)" fill="#000000">
            <g id="icon-font_54_Boss" sketch:type="MSLayerGroup" transform="translate(5003.000000, 5035.000000)">
                <g id="Page-1" sketch:type="MSShapeGroup">
                    <g id="Artboard-1">
                        <path d="M493.599315,380.445205 C493.599315,380.445205 493.311644,350.445205 431.832192,323.123288 C402.05137,309.890411 357.85274,275.780822 292.407534,264.061644 C309.140411,246.150685 321.811644,218.136986 334.839041,184.945205 C342.393836,165.719178 341.092466,149.321918 341.092466,125.979452 C341.092466,108.732877 344.34589,81.0616438 340.065068,65.8561644 C325.633562,14.4589041 289.15411,0.273972603 246.421233,0.273972603 C203.65411,0.273972603 167.140411,14.5205479 152.729452,66.0068493 C148.482877,81.1712329 151.743151,108.780822 151.743151,125.979452 C151.743151,149.376712 150.469178,165.821918 158.044521,185.089041 C171.174658,218.445205 183.65411,246.417808 200.332192,264.260274 C135.407534,276.191781 91.5445205,310.041096 61.9486301,323.239726 C0.702054795,350.547945 0.400684932,380.445205 0.400684932,380.445205 L0.400684932,431.232877 L218.325342,431.212329 L230.085616,375.287671 L206.003425,342.958904 C206.003425,342.958904 231.256849,315.924658 246.825342,315.924658 C262.393836,315.924658 287.393836,342.883562 287.393836,342.883562 L263.558219,375.287671 L275.15411,431.19863 L493.599315,431.178082 L493.599315,380.445205" id="Fill-794"></path>
                    </g>
                </g>
            </g>
        </g>
    </g>
</svg>