<?xml version="1.0" encoding="UTF-8" standalone="no"?>
<svg width="334px" height="500px" viewBox="0 0 334 500" version="1.1" xmlns="http://www.w3.org/2000/svg" xmlns:xlink="http://www.w3.org/1999/xlink">
    <!-- Generator: Sketch 3.7.2 (28276) - http://www.bohemiancoding.com/sketch -->
    <title>icon-font_48_Book</title>
    <desc>Created with Sketch.</desc>
    <defs></defs>
    <g id="Page-1" stroke="none" stroke-width="1" fill="none" fill-rule="evenodd">
        <g id="Artboard-1" transform="translate(-9083.000000, -4000.000000)" fill="#000000">
            <path d="M9333,4170.32951 L9374.66667,4125 L9374.66667,4414.416 L9334.27226,4458.33333 L9334.27226,4177.36099 C9334.27226,4174.88232 9333.82697,4172.50662 9333,4170.32951 L9333,4170.32951 Z M9126.78911,4077.16877 C9125.55997,4075.43373 9124.74054,4072.73756 9124.68201,4069.617 C9124.44789,4063.20111 9126.90618,4056.61047 9131.17892,4052.41018 C9149.67462,4034.19231 9174.72576,4044.56507 9175.72079,4044.98323 C9175.89638,4045.05812 9176.01344,4045.12054 9176.18903,4045.18295 L9374.66667,4124.05843 L9332.17337,4166.66667 C9331.82219,4166.46695 9331.471,4166.25475 9331.06129,4166.08624 L9126.78911,4077.16877 L9126.78911,4077.16877 Z M9406.5137,4098.71882 L9179.64859,4006.01556 C9175.08722,4004.03621 9132.89449,3987.0971 9099.76116,4020.69057 C9088.67448,4031.89997 9082.46594,4048.60294 9083.03611,4065.37537 C9083.09946,4068.20203 9083.41623,4070.95923 9083.92305,4073.62615 L9083.92305,4383.34308 C9083.92305,4390.13539 9087.66084,4396.24014 9093.48927,4398.72649 L9325.35922,4498.85406 C9327.13309,4499.62496 9329.03366,4500 9330.87088,4500 C9333.84845,4500 9336.82601,4499.03463 9339.36011,4497.13862 C9343.47802,4494.05499 9345.94877,4488.94339 9345.94877,4483.47065 L9345.94877,4467.21911 L9388.52161,4423.34688 C9391.18241,4427.99316 9395.87049,4431.11151 9401.25545,4431.11151 C9409.61797,4431.11151 9416.33333,4423.70803 9416.33333,4414.58216 L9416.33333,4114.21334 C9416.33333,4107.30297 9412.46883,4101.12877 9406.5137,4098.71882 L9406.5137,4098.71882 Z" id="icon-font_48_Book"></path>
        </g>
    </g>
</svg>