<?xml version="1.0" encoding="UTF-8" standalone="no"?>
<svg width="494px" height="494px" viewBox="0 0 494 494" version="1.1" xmlns="http://www.w3.org/2000/svg" xmlns:xlink="http://www.w3.org/1999/xlink">
    <!-- Generator: Sketch 3.7.2 (28276) - http://www.bohemiancoding.com/sketch -->
    <title>icon-font_108_pencilMenu</title>
    <desc>Created with Sketch.</desc>
    <defs></defs>
    <g id="Page-1" stroke="none" stroke-width="1" fill="none" fill-rule="evenodd">
        <g id="Artboard-1" transform="translate(-2003.000000, -11006.000000)" fill="#191919">
            <g id="icon-font_108_pencilMenu" transform="translate(2003.000000, 11006.000000)">
                <path d="M323.090682,108.939942 C257.222132,174.806304 158.72578,273.299383 93.4363246,338.586669 L155.458773,401.061862 C190.204984,366.568734 308.712947,247.832316 385.656409,170.703144 L323.090682,108.939942 Z M348.301168,83.730294 C375.156655,56.8756991 392.289661,39.7432621 392.289661,39.7432621 C401.584882,30.44835 416.739508,30.4483503 426.015484,39.7359097 L454.364101,68.0835877 C463.643904,77.3749836 463.643904,92.5108081 454.349418,101.828817 C454.349418,101.828817 432.037175,124.20696 399.408182,156.917572 L409.974134,146.225397 L348.301168,83.730294 Z M120.376399,419.162863 C89.6196336,429.414771 53.3411467,441.507191 53.3411467,441.507191 C53.3411467,441.507191 67.9518573,395.215969 76.7414611,368.05883 L124.185037,417.893361 Z M0.341146679,493.658335 L31.1315631,483.395211 L158.667272,440.884748 L162.301535,439.673367 L165.010391,436.964601 L476.764346,125.221007 C498.712109,103.217717 498.712109,67.5653877 476.771694,45.5975746 L448.423077,17.2498966 C426.478835,-4.72175335 390.763554,-4.72175405 368.791174,17.2498963 L57.0372198,328.993492 L54.3282847,331.702337 L53.1167958,335.336683 L10.604893,462.868126 L0.341146679,493.658335 Z" id="Combined-Shape"></path>
            </g>
        </g>
    </g>
</svg>