<?xml version="1.0" encoding="UTF-8" standalone="no"?>
<svg width="500px" height="500px" viewBox="0 0 500 500" version="1.1" xmlns="http://www.w3.org/2000/svg" xmlns:xlink="http://www.w3.org/1999/xlink">
    <!-- Generator: Sketch 3.7.2 (28276) - http://www.bohemiancoding.com/sketch -->
    <title>icon-font_77_FacebookSquare</title>
    <desc>Created with Sketch.</desc>
    <defs></defs>
    <g id="Page-1" stroke="none" stroke-width="1" fill="none" fill-rule="evenodd">
        <g id="Artboard-1" transform="translate(-8000.000000, -7000.000000)" fill="#000000">
            <path d="M8472.40477,7000 L8027.59523,7000 C8012.35135,7000 8000,7012.35135 8000,7027.59523 L8000,7472.40477 C8000,7487.64491 8012.35135,7500 8027.59523,7500 L8267.06483,7500 L8267.06483,7306.37444 L8201.906,7306.37444 L8201.906,7230.91377 L8267.06483,7230.91377 L8267.06483,7175.26434 C8267.06483,7110.68252 8306.50933,7075.51687 8364.12021,7075.51687 C8391.71544,7075.51687 8415.43459,7077.57199 8422.34558,7078.48996 L8422.34558,7145.98118 L8382.38964,7145.99991 C8351.05697,7145.99991 8344.9909,7160.88784 8344.9909,7182.73547 L8344.9909,7230.91377 L8419.71532,7230.91377 L8409.98486,7306.37444 L8344.9909,7306.37444 L8344.9909,7500 L8472.40477,7500 C8487.64491,7500 8500,7487.64491 8500,7472.40477 L8500,7027.59523 C8500,7012.35135 8487.64491,7000 8472.40477,7000" id="icon-font_77_FacebookSquare"></path>
        </g>
    </g>
</svg>