<?xml version="1.0" encoding="UTF-8" standalone="no"?>
<svg width="500px" height="500px" viewBox="0 0 500 500" version="1.1" xmlns="http://www.w3.org/2000/svg" xmlns:xlink="http://www.w3.org/1999/xlink" xmlns:sketch="http://www.bohemiancoding.com/sketch/ns">
    <!-- Generator: Sketch 3.4.4 (17249) - http://www.bohemiancoding.com/sketch -->
    <title>icon-font_68_FountainPen</title>
    <desc>Created with Sketch.</desc>
    <defs></defs>
    <g id="Page-1" stroke="none" stroke-width="1" fill="none" fill-rule="evenodd" sketch:type="MSPage">
        <g id="Artboard-1" sketch:type="MSArtboardGroup" transform="translate(-9000.000000, -6000.000000)" fill="#000000">
            <g id="icon-font_68_FountainPen" sketch:type="MSLayerGroup" transform="translate(9000.000000, 6000.000000)">
                <g id="Fill-272-+-Fill-273" sketch:type="MSShapeGroup">
                    <path d="M355.957068,0 L212.753425,145.2065 L355.957068,290.399083 L499.181301,145.199542 L355.957068,0" id="Fill-272"></path>
                    <path d="M43.8752466,310.571292 C65.631,339.782375 46.9292877,399.811917 0,452.020292 L46.5175068,499.176917 C97.2900822,452.256875 155.632562,433.100583 184.869,453.739 L306.289438,287.219125 L208.319918,187.875 L43.8752466,310.571292 L43.8752466,310.571292 Z M140.046658,396.520625 C129.333493,407.375625 111.956342,407.375625 101.243178,396.520625 C90.5437397,385.658667 90.5437397,368.047125 101.243178,357.192125 C111.963205,346.330167 129.333493,346.337125 140.046658,357.192125 C150.746096,368.047125 150.746096,385.658667 140.046658,396.520625 L140.046658,396.520625 Z" id="Fill-273"></path>
                </g>
            </g>
        </g>
    </g>
</svg>