<?xml version="1.0" encoding="UTF-8" standalone="no"?>
<svg width="372px" height="500px" viewBox="0 0 372 500" version="1.1" xmlns="http://www.w3.org/2000/svg" xmlns:xlink="http://www.w3.org/1999/xlink">
    <!-- Generator: Sketch 3.7.2 (28276) - http://www.bohemiancoding.com/sketch -->
    <title>icon-font_94_Download</title>
    <desc>Created with Sketch.</desc>
    <defs></defs>
    <g id="Page-1" stroke="none" stroke-width="1" fill="none" fill-rule="evenodd">
        <g id="Artboard-1" transform="translate(-7076.000000, -9002.000000)" fill="#000000">
            <g id="icon-font_94_Download" transform="translate(7076.000000, 9002.000000)">
                <g id="Fill-610-+-Fill-611">
                    <path d="M363.780327,172.848613 L328.268945,172.848613 C327.265527,174.265971 326.310218,175.710986 325.169345,177.079947 L302.757382,204.00976 L332.818691,204.00976 C336.907964,204.00976 340.248109,207.369937 340.248109,211.483734 L340.248109,378.144367 C340.248109,382.265078 336.907964,385.632169 332.818691,385.632169 L38.4048,385.632169 C34.3086545,385.632169 30.9753818,382.265078 30.9753818,378.144367 L30.9753818,211.483734 C30.9753818,207.369937 34.3086545,204.00976 38.4048,204.00976 L58.9130182,204.00976 L36.4873091,177.059205 C35.3533091,175.690244 34.398,174.265971 33.4014545,172.848613 L7.44316364,172.848613 C3.34014545,172.848613 0,176.215704 0,180.336414 L0,445.631379 C0,449.75209 3.34014545,453.112267 7.44316364,453.112267 L152.931927,453.112267 L152.931927,474.71143 L120.382691,495.460177 C116.925709,497.672639 117.448036,499.470265 121.530436,499.470265 L250.895782,499.470265 C254.991927,499.470265 255.493636,497.686467 252.029782,495.508575 L218.497745,474.434872 L218.497745,453.112267 L363.780327,453.112267 C367.876473,453.112267 371.223491,449.75209 371.223491,445.631379 L371.223491,180.336414 C371.223491,176.215704 367.876473,172.848613 363.780327,172.848613" id="Fill-610"></path>
                    <path d="M165.220085,268.295616 C168.848885,272.651401 173.632303,274.829294 178.415721,274.829294 C183.206012,274.829294 187.98943,272.651401 191.61823,268.295616 L291.135321,148.718946 C298.392921,139.986634 295.080266,132.858358 283.77463,132.858358 L231.45943,132.858358 L210.889357,132.858358 L210.889357,20.7072638 C210.889357,9.31999719 201.645539,0 190.326157,0 L166.512157,0 C155.206521,0 145.95583,9.31999719 145.95583,20.7072638 L145.95583,132.858358 L125.378885,132.858358 L73.0705574,132.858358 C61.7580483,132.858358 58.4453937,139.986634 65.7029937,148.718946 L165.220085,268.295616" id="Fill-611"></path>
                </g>
            </g>
        </g>
    </g>
</svg>