<?xml version="1.0" encoding="UTF-8" standalone="no"?>
<svg width="500px" height="435px" viewBox="0 0 500 435" version="1.1" xmlns="http://www.w3.org/2000/svg" xmlns:xlink="http://www.w3.org/1999/xlink" xmlns:sketch="http://www.bohemiancoding.com/sketch/ns">
    <!-- Generator: Sketch 3.4.4 (17249) - http://www.bohemiancoding.com/sketch -->
    <title>icon-font_30_Cockroach</title>
    <desc>Created with Sketch.</desc>
    <defs></defs>
    <g id="Page-1" stroke="none" stroke-width="1" fill="none" fill-rule="evenodd" sketch:type="MSPage">
        <g id="Artboard-1" sketch:type="MSArtboardGroup" transform="translate(-1000.000000, -3033.000000)" fill="#000000">
            <path d="M1480.81568,3235.55771 L1399.18515,3235.55771 C1396.65871,3220.32244 1392.20967,3205.81459 1386.09484,3192.3507 L1450.31789,3138.48169 C1454.53094,3134.97259 1456.9741,3129.79314 1456.9741,3124.40489 L1456.9741,3062.33901 C1456.9741,3052.04746 1448.37447,3043.71588 1437.79672,3043.71588 C1427.1912,3043.71588 1418.60546,3052.04746 1418.60546,3062.33901 L1418.59158,3115.87799 L1366.45937,3159.59689 C1356.97826,3147.29148 1345.86607,3136.51498 1333.48372,3127.63784 C1335.09398,3121.8118 1336.03792,3115.75002 1336.03792,3109.47945 C1336.03792,3067.24232 1297.34307,3033 1249.58355,3033 C1201.8518,3033 1163.15,3067.24232 1163.15,3109.47945 C1163.15,3115.93861 1164.16336,3122.18224 1165.86385,3128.16993 C1153.56479,3137.09422 1142.52894,3147.90439 1133.13113,3160.24348 L1080.23543,3115.89146 L1080.23543,3062.35248 C1080.23543,3052.04746 1071.6358,3043.72261 1061.04417,3043.72261 C1050.4456,3043.72261 1041.86679,3052.04746 1041.86679,3062.35248 L1041.85291,3124.41836 C1041.85291,3129.79314 1044.28913,3134.94565 1048.50912,3138.5019 L1113.64835,3193.12526 C1107.71398,3206.36688 1103.39682,3220.61206 1100.91896,3235.55771 L1019.18432,3235.55771 C1008.57881,3235.55771 1000,3243.87582 1000,3254.16738 C1000,3264.44546 1008.57881,3272.78377 1019.18432,3272.78377 L1098.65626,3272.78377 C1099.43363,3290.42355 1102.78603,3307.32244 1108.29007,3323.07633 L1048.49524,3373.22072 C1044.28913,3376.74328 1041.85985,3381.916 1041.85985,3387.31099 L1041.85985,3449.37013 C1041.85985,3459.64822 1050.4456,3468 1061.03723,3468 C1071.64968,3468 1080.23543,3459.64822 1080.23543,3449.37013 L1080.23543,3395.81768 L1125.23252,3358.07974 C1152.57919,3401.04428 1198.2773,3429.21808 1250.05553,3429.21808 C1301.54918,3429.21808 1347.02518,3401.34064 1374.42044,3358.77348 L1418.59158,3395.81768 L1418.59158,3449.37013 C1418.59158,3459.64822 1427.18426,3468 1437.79672,3468 C1448.38141,3468 1456.98104,3459.64822 1456.98104,3449.37013 L1456.96716,3387.31099 C1456.96716,3381.916 1454.53094,3376.74328 1450.33177,3373.22072 L1391.52253,3323.89804 C1397.19315,3307.90842 1400.66354,3290.73337 1401.44785,3272.78377 L1480.81568,3272.78377 C1491.42119,3272.78377 1500,3264.44546 1500,3254.16738 C1500,3243.87582 1491.42119,3235.55771 1480.81568,3235.55771" id="icon-font_30_Cockroach" sketch:type="MSShapeGroup"></path>
        </g>
    </g>
</svg>