<?xml version="1.0" encoding="UTF-8" standalone="no"?>
<svg width="500px" height="309px" viewBox="0 0 500 309" version="1.1" xmlns="http://www.w3.org/2000/svg" xmlns:xlink="http://www.w3.org/1999/xlink" xmlns:sketch="http://www.bohemiancoding.com/sketch/ns">
    <!-- Generator: Sketch 3.5.1 (25234) - http://www.bohemiancoding.com/sketch -->
    <title>icon-font_105_View</title>
    <desc>Created with Sketch.</desc>
    <defs></defs>
    <g id="Page-1" stroke="none" stroke-width="1" fill="none" fill-rule="evenodd" sketch:type="MSPage">
        <g id="Artboard-1" sketch:type="MSArtboardGroup" transform="translate(-9000.000000, -10104.000000)" fill="#000000">
            <g id="icon-font_105_View" sketch:type="MSLayerGroup" transform="translate(9000.000000, 10104.000000)">
                <path d="M253.581879,308.61402 C312.962752,308.61402 370.768722,280.970482 427.225327,234.264991 C447.101103,217.822134 464.002246,201.524318 483.377535,181.181477 C485.568088,178.881533 492.073436,172.004723 492.078081,171.999827 C494.933975,168.989784 496.758569,167.101346 498.204136,165.671731 C499.511808,164.37849 500.384881,163.601664 500.441945,163.564064 C495.349704,166.919331 484.716873,165.896878 484.716873,154.524024 C484.716873,143.151171 495.349704,142.128718 500.441945,145.483984 C500.384881,145.446384 499.511808,144.669559 498.204136,143.376317 C496.758569,141.946702 494.933975,140.058264 492.078081,137.048221 C492.073436,137.043326 485.568088,130.166515 483.377535,127.866571 C464.002246,107.523731 447.101103,91.2259143 427.225327,74.7830573 C370.768722,28.0775667 312.962752,0.434027778 253.581879,0.434027778 C191.731723,0.434027778 130.807245,26.8363188 75.5661959,70.1970001 C35.8951124,101.336257 0.434027778,141.650659 0.434027778,154.524024 C0.434027778,167.397389 35.8951124,207.711792 75.5661959,238.851048 C130.807245,282.211729 191.731723,308.61402 253.581879,308.61402 L253.581879,308.61402 Z M89.1578777,221.535389 C55.2818134,194.944851 22.4468844,157.616028 22.4468844,154.524024 C22.4468844,151.43202 55.2818134,114.103197 89.1578777,87.5126589 C140.855436,46.9333905 197.359154,22.4468844 253.581879,22.4468844 C306.883849,22.4468844 360.314194,47.9979447 413.19371,91.7441773 C432.282846,107.536261 448.611152,123.281689 467.437643,143.048326 C469.597313,145.315844 476.081558,152.170347 476.109114,152.199391 C479.117168,155.369807 481.067363,157.38824 482.725294,159.027876 C485.030509,161.307652 486.691463,162.785505 488.330451,163.86543 C490.742582,165.454779 490.31849,170.118336 493.786291,169.784872 C497.263225,169.45053 499.302153,162.372959 499.607582,155.278924 C499.914506,148.150166 498.470919,141.004783 494.976966,140.668805 C491.509166,140.335341 490.742582,143.59327 488.330451,145.182618 C486.691463,146.262543 485.030509,147.740396 482.725294,150.020172 C481.067363,151.659808 479.117168,153.678241 476.109114,156.848657 C476.081558,156.877701 469.597313,163.732204 467.437643,165.999722 C448.611152,185.766359 432.282846,201.511787 413.19371,217.303871 C360.314194,261.050104 306.883849,286.601164 253.581879,286.601164 C197.359154,286.601164 140.855436,262.114658 89.1578777,221.535389 Z" id="Shape" sketch:type="MSShapeGroup"></path>
                <path d="M250,60.7910156 C200.300481,60.7910156 159.855769,101.867676 159.855769,152.34375 C159.855769,202.840169 200.300481,243.896484 250,243.896484 C299.699519,243.896484 340.144231,202.840169 340.144231,152.34375 C340.144231,101.867676 299.699519,60.7910156 250,60.7910156 L250,60.7910156 Z M250,223.551432 C211.338141,223.551432 179.887821,191.609701 179.887821,152.34375 C179.887821,113.077799 211.338141,81.1360677 250,81.1360677 C288.661859,81.1360677 320.112179,113.077799 320.112179,152.34375 C320.112179,191.609701 288.661859,223.551432 250,223.551432 L250,223.551432 Z" id="Shape" sketch:type="MSShapeGroup"></path>
            </g>
        </g>
    </g>
</svg>