<?xml version="1.0" encoding="UTF-8" standalone="no"?>
<svg width="500px" height="500px" viewBox="0 0 500 500" version="1.1" xmlns="http://www.w3.org/2000/svg" xmlns:xlink="http://www.w3.org/1999/xlink">
    <!-- Generator: Sketch 3.8.1 (29687) - http://www.bohemiancoding.com/sketch -->
    <title>icon-font_105_View</title>
    <desc>Created with Sketch.</desc>
    <defs></defs>
    <g id="Page-1" stroke="none" stroke-width="1" fill="none" fill-rule="evenodd">
        <g id="Artboard-1" transform="translate(-9000.000000, -10001.000000)" fill="#000000">
            <g id="icon-font_105_View" transform="translate(9000.000000, 10001.000000)">
                <path d="M471.196067,279.388706 C468.659287,277.229701 466.450984,274.924387 463.701023,271.840781 C461.732497,269.633419 459.572474,267.098603 456.291285,263.177454 C456.234848,263.11001 449.592637,255.148769 447.409623,252.549977 C428.736548,230.320422 412.662967,212.746142 394.043132,195.280662 C344.775461,149.067386 296.239067,122.750167 250.99304,122.750167 C202.046004,122.750167 150.507322,148.074304 102.417295,190.874005 C83.9404874,207.318201 67.2191013,225.348227 54.2710956,242.038469 C49.1796636,248.601428 45.0628096,254.478581 42.4195884,258.812878 C41.546218,260.245013 41.0017054,261.236856 40.8804115,261.498373 C42.4533613,258.106995 43.4872396,254.89797 43.4872396,247.833667 C43.4872396,240.769365 42.4533613,237.560339 40.8804115,234.168962 C41.0017054,234.430479 41.546218,235.422322 42.4195884,236.854456 C45.0628096,241.188754 49.1796636,247.065906 54.2710956,253.628865 C67.2191013,270.319107 83.9404874,288.349133 102.417295,304.79333 C150.507322,347.593031 202.046004,372.917168 250.99304,372.917168 C296.239067,372.917168 344.775461,346.599949 394.043132,300.386673 C412.662967,282.921192 428.736548,265.346913 447.409623,243.117358 C449.592637,240.518566 456.234848,232.557325 456.291285,232.48988 C459.572474,228.568732 461.732497,226.033916 463.701023,223.826554 C466.450984,220.742947 468.659287,218.437634 471.196067,216.278628 C489.585469,237.69567 500,251.756082 500,247.833667 C500,243.911252 489.585468,257.971665 471.196067,279.388706 L471.196067,279.388706 Z M471.11251,278.324435 L471.11251,278.324435 C429.638743,326.768781 346.187297,414.667335 249.997012,414.667335 C112.474265,414.667335 0.990051674,260.667026 0.990051674,247.833667 C0.990051674,235.000308 112.474265,81 249.997012,81 C346.187297,81 429.638743,168.898554 471.11251,217.3429 C467.601977,220.514627 464.627661,224.296843 462.356919,228.549318 C458.659304,235.473933 457.502812,241.748232 457.502812,247.833667 C457.502812,253.919103 458.659304,260.193402 462.356919,267.118017 C464.627661,271.370492 467.601977,275.152708 471.11251,278.324435 L471.11251,278.324435 Z" id="Oval-225"></path>
                <path d="M210.754843,247.833667 C210.754843,224.834455 229.482775,206.125251 252.50501,206.125251 C275.527245,206.125251 294.255177,224.834455 294.255177,247.833667 C294.255177,270.83288 275.527245,289.542084 252.50501,289.542084 C229.482775,289.542084 210.754843,270.83288 210.754843,247.833667 Z" id="Path"></path>
            </g>
        </g>
    </g>
</svg>