<?xml version="1.0" encoding="UTF-8" standalone="no"?>
<svg width="500px" height="500px" viewBox="0 0 500 500" version="1.1" xmlns="http://www.w3.org/2000/svg" xmlns:xlink="http://www.w3.org/1999/xlink" xmlns:sketch="http://www.bohemiancoding.com/sketch/ns">
    <!-- Generator: Sketch 3.4.4 (17249) - http://www.bohemiancoding.com/sketch -->
    <title>icon-font_59_Label</title>
    <desc>Created with Sketch.</desc>
    <defs></defs>
    <g id="Page-1" stroke="none" stroke-width="1" fill="none" fill-rule="evenodd" sketch:type="MSPage">
        <g id="Artboard-1" sketch:type="MSArtboardGroup" transform="translate(0.000000, -6000.000000)" fill="#000000">
            <path d="M236.300359,6025.55911 C230.101617,6019.36457 217.899509,6013.6404 209.160881,6012.85942 L69.0497716,6000.09762 C68.374837,6000.0355 67.6554987,6000 66.9361604,6000 C58.437312,6000 47.6117151,6004.2066 41.9102932,6009.93078 L9.9308228,6041.87966 C3.74984212,6048.06532 -0.699398284,6060.27689 0.0909857397,6068.98296 L12.5683965,6209.3628 C13.3321383,6218.08662 19.0513216,6230.28044 25.241183,6236.48385 L284.300648,6495.35854 C287.391138,6498.44693 291.476269,6500 295.5614,6500 C299.63765,6500 303.722781,6498.44693 306.831033,6495.35854 L495.350943,6306.95776 C501.549686,6300.76322 501.549686,6290.61945 495.350943,6284.43379 L236.300359,6025.55911 L236.300359,6025.55911 Z M79.3965359,6080.60585 C88.3838239,6071.62466 100.165578,6067.12815 111.947333,6067.12815 C123.752769,6067.12815 135.570046,6071.63649 144.569175,6080.62951 C162.567433,6098.61555 162.543751,6127.77186 144.569175,6145.7224 C135.570046,6154.73908 123.776451,6159.22376 112.006537,6159.22376 C100.212942,6159.22376 88.4193467,6154.71542 79.4202178,6145.7224 C61.4101189,6127.73636 61.386437,6098.59188 79.3965359,6080.60585 L79.3965359,6080.60585 Z" id="icon-font_59_Label" sketch:type="MSShapeGroup"></path>
        </g>
    </g>
</svg>