<?xml version="1.0" encoding="UTF-8" standalone="no"?>
<svg width="500px" height="356px" viewBox="0 0 500 356" version="1.1" xmlns="http://www.w3.org/2000/svg" xmlns:xlink="http://www.w3.org/1999/xlink" xmlns:sketch="http://www.bohemiancoding.com/sketch/ns">
    <!-- Generator: Sketch 3.4.4 (17249) - http://www.bohemiancoding.com/sketch -->
    <title>icon-font_17_Step</title>
    <desc>Created with Sketch.</desc>
    <defs></defs>
    <g id="Page-1" stroke="none" stroke-width="1" fill="none" fill-rule="evenodd" sketch:type="MSPage">
        <g id="Artboard-1" sketch:type="MSArtboardGroup" transform="translate(-6000.000000, -1072.000000)" fill="#000000" opacity="0.9">
            <g id="icon-font_17_Step" sketch:type="MSLayerGroup" transform="translate(6000.000000, 1072.000000)">
                <path d="M36.8377569,168.631579 L187.777362,168.631579 L187.777362,193.614035 L36.3938948,193.614035 L88.3115401,245.53168 L70.6462759,263.196945 L1.06336647,193.614035 L0.443779594,193.614035 L0.443779594,192.994448 L-0.00164229794,192.549026 L0.443779594,192.103604 L0.443779594,170.585872 L-0.00164229794,170.14045 L0.443779594,169.695028 L0.443779594,168.631579 L1.50722859,168.631579 L70.6462759,99.4925316 L88.3115401,117.157796 L36.8377569,168.631579 Z M445.887667,0 L187.777362,0 L187.777362,356 L500,356 L500,54.1123327 L445.887667,-2.66453526e-15 Z M187.777362,168.631579 L331.399776,168.631579 L331.399776,193.614035 L187.777362,193.614035 L187.777362,168.631579 Z" sketch:type="MSShapeGroup"></path>
            </g>
        </g>
    </g>
</svg>