<?xml version="1.0" encoding="UTF-8" standalone="no"?>
<svg width="500px" height="417px" viewBox="0 0 500 417" version="1.1" xmlns="http://www.w3.org/2000/svg" xmlns:xlink="http://www.w3.org/1999/xlink" xmlns:sketch="http://www.bohemiancoding.com/sketch/ns">
    <!-- Generator: Sketch 3.5.1 (25234) - http://www.bohemiancoding.com/sketch -->
    <title>icon-font_107_Settings</title>
    <desc>Created with Sketch.</desc>
    <defs></defs>
    <g id="Page-1" stroke="none" stroke-width="1" fill="none" fill-rule="evenodd" sketch:type="MSPage">
        <g id="Artboard-1" sketch:type="MSArtboardGroup" transform="translate(-1000.000000, -11043.000000)" fill="#191919">
            <g id="icon-font_107_Settings" sketch:type="MSLayerGroup" transform="translate(1000.000000, 11043.000000)">
                <!--<path d="M20.8333333,41.4748987 L20.8333333,41.4748987 L20.8333333,375.191768 C20.8333333,386.475711 30.2349552,395.833333 41.7697206,395.833333 L458.230279,395.833333 C469.833485,395.833333 479.166667,386.564052 479.166667,375.191768 L479.166667,41.4748987 C479.166667,30.1909553 469.765045,20.8333333 458.230279,20.8333333 L41.7697206,20.8333333 C30.1665145,20.8333333 20.8333333,30.102615 20.8333333,41.4748987 L20.8333333,41.4748987 Z M0,41.4748987 C0,18.5689446 18.6880464,0 41.7697206,0 L458.230279,0 C481.299059,0 500,18.7127579 500,41.4748987 L500,375.191768 C500,398.097722 481.311954,416.666667 458.230279,416.666667 L41.7697206,416.666667 C18.7009409,416.666667 0,397.953909 0,375.191768 L0,41.4748987 L0,41.4748987 Z" id="Shape" sketch:type="MSShapeGroup"></path>-->
                <path d="M174.166667,125.494436 C174.166667,125.221366 174.392779,125 174.672232,125 L395.327768,125 C395.606984,125 395.833333,125.219872 395.833333,125.494436 L395.833333,145.338898 C395.833333,145.611967 395.608284,145.833333 395.342879,145.833333 C395.342879,145.833333 268.649937,145.833333 177.304687,145.833333 L173.696606,145.833333 C173.956213,145.833333 174.166667,145.613461 174.166667,145.338898 L174.166667,125.494436 Z" id="Rectangle-7228" sketch:type="MSShapeGroup"></path>
                <rect id="Rectangle-7228-Copy" sketch:type="MSShapeGroup" x="104.166667" y="270.833333" width="141.666667" height="20.8333333" rx="2"></rect>
                <rect id="Rectangle-7228-Copy-2" sketch:type="MSShapeGroup" x="314.166667" y="270.833333" width="81.6666667" height="20.8333333" rx="2"></rect>
                <path d="M135.416667,166.666667 C152.675565,166.666667 166.666667,152.675565 166.666667,135.416667 C166.666667,118.157768 152.675565,104.166667 135.416667,104.166667 C118.157768,104.166667 104.166667,118.157768 104.166667,135.416667 C104.166667,152.675565 118.157768,166.666667 135.416667,166.666667 L135.416667,166.666667 Z M135.416667,187.5 L135.416667,187.5 C106.651836,187.5 83.3333333,164.181497 83.3333333,135.416667 C83.3333333,106.651836 106.651836,83.3333333 135.416667,83.3333333 C164.181497,83.3333333 187.5,106.651836 187.5,135.416667 C187.5,164.181497 164.181497,187.5 135.416667,187.5 L135.416667,187.5 Z" id="Shape" sketch:type="MSShapeGroup"></path>
                <path d="M281.25,312.5 C298.508898,312.5 312.5,298.508898 312.5,281.25 C312.5,263.991102 298.508898,250 281.25,250 C263.991102,250 250,263.991102 250,281.25 C250,298.508898 263.991102,312.5 281.25,312.5 L281.25,312.5 Z M281.25,333.333333 L281.25,333.333333 C252.485169,333.333333 229.166667,310.014831 229.166667,281.25 C229.166667,252.485169 252.485169,229.166667 281.25,229.166667 C310.014831,229.166667 333.333333,252.485169 333.333333,281.25 C333.333333,310.014831 310.014831,333.333333 281.25,333.333333 L281.25,333.333333 Z" id="Shape" sketch:type="MSShapeGroup"></path>
            </g>
        </g>
    </g>
</svg>