<?xml version="1.0" encoding="UTF-8" standalone="no"?>
<svg width="501px" height="420px" viewBox="0 0 501 420" version="1.1" xmlns="http://www.w3.org/2000/svg" xmlns:xlink="http://www.w3.org/1999/xlink">
    <!-- Generator: Sketch 3.8.1 (29687) - http://www.bohemiancoding.com/sketch -->
    <title>icon-font_112_Hide</title>
    <desc>Created with Sketch.</desc>
    <defs></defs>
    <g id="Page-1" stroke="none" stroke-width="1" fill="none" fill-rule="evenodd">
        <g id="Artboard-1" transform="translate(-7999.000000, -11042.000000)" fill="#000000">
            <g id="icon-font_112_Hide" transform="translate(7999.000000, 11042.000000)">
                <path d="M168.516382,356.527444 C194.193363,367.220614 221.780987,373.902897 250.502897,373.902897 C346.850106,373.902897 430.433697,286.17791 471.948787,237.869025 C493.317357,215.896446 498.973146,209.028031 498.973146,209.028031 C499.701368,208.186721 499.712307,206.818732 499.009367,205.974772 C499.009367,205.974772 492.362279,197.637656 471.948787,177.136769 C462.294003,165.902014 450.363963,152.535458 436.527263,138.636273 C436.424017,138.532561 436.320665,138.428819 436.217207,138.325049 L403.726892,164.807837 C421.268756,182.667154 441.521907,205.994982 441.521907,205.994982 C442.245864,206.823254 442.253276,208.172862 441.531978,208.999306 C441.531978,208.999306 412.348272,242.613362 393.702121,260.035106 C344.373268,306.124757 295.780717,332.369351 250.502897,332.369351 C235.900423,332.369351 221.065928,330.125273 206.159883,325.844312 L168.516372,356.52744 Z M62.9467973,285.173542 C24.4830048,248.609797 1.16779055,213.352643 1.16779055,207.502897 C1.16779055,194.702897 112.79892,41.1028969 250.502897,41.1028969 C280.140414,41.1028969 308.570175,49.4038635 334.939182,62.3050109 C334.952385,62.3114703 334.965587,62.3179308 334.978788,62.3243925 L298.872131,91.9030383 C282.420027,85.8152289 266.260719,82.6364433 250.502897,82.6364433 C201.51747,82.6364433 149.921025,107.889782 101.771487,150.574805 C83.2680311,166.978295 66.5218737,184.964392 53.5539044,201.614973 C48.4535212,208.16375 48.4535212,206.842043 53.5539044,213.390821 C65.0065328,228.095739 79.4059564,243.842291 95.3601663,258.620445 L62.9467973,285.173542 Z" id="Combined-Shape"></path>
                <path d="M237.699577,247.083394 C241.734153,248.394252 246.037365,249.102897 250.502897,249.102897 C273.417981,249.102897 292.058748,230.442325 292.058748,207.502897 C292.058748,205.937973 291.971995,204.392962 291.80305,202.872431 L485.0452,44.9634975 L501.005801,31.9212011 L474.921208,0 L458.960608,13.0422964 L267.462564,169.526023 C262.281232,167.198286 256.540423,165.902897 250.502897,165.902897 C227.587813,165.902897 208.947046,184.563468 208.947046,207.502897 C208.947046,210.60403 209.28772,213.626964 209.933574,216.536167 L15.9606005,375.042296 L5.68434189e-14,388.084593 L26.0845928,420.005794 L42.0451933,406.963497 L237.699577,247.083394 L237.699577,247.083394 Z" id="Combined-Shape"></path>
            </g>
        </g>
    </g>
</svg>