<?xml version="1.0" encoding="UTF-8" standalone="no"?>
<svg width="500px" height="500px" viewBox="0 0 500 500" version="1.1" xmlns="http://www.w3.org/2000/svg" xmlns:xlink="http://www.w3.org/1999/xlink">
    <!-- Generator: Sketch 3.7.2 (28276) - http://www.bohemiancoding.com/sketch -->
    <title>icon-font_35_UnlockWithEllipsis</title>
    <desc>Created with Sketch.</desc>
    <defs></defs>
    <g id="Page-1" stroke="none" stroke-width="1" fill="none" fill-rule="evenodd">
        <g id="Artboard-1" transform="translate(-6000.000000, -3000.000000)" fill="#000000">
            <path d="M6370.33872,3000.01022 C6369.62321,2999.99535 6368.72708,3000.03995 6367.99767,3000.03995 C6297.69645,3000.03995 6240.71913,3061.02701 6240.71913,3136.25552 L6240.71913,3218.29259 L6000,3218.29259 L6000,3500 L6350.58214,3500 L6350.58214,3218.29259 L6304.40702,3218.29259 L6304.40702,3136.25552 C6304.40702,3098.72674 6332.93737,3068.21463 6367.99767,3068.21463 C6369.00495,3068.21463 6371.10981,3068.15517 6371.10981,3068.15517 C6371.10981,3068.15517 6372.17962,3068.19977 6372.70757,3068.19977 C6407.78176,3068.19977 6436.3121,3098.71188 6436.3121,3136.24066 C6436.3121,3136.24066 6436.30516,3150.63078 6436.30516,3169.16846 L6457.59698,3169.16846 L6457.59698,3177.8724 L6436.30516,3199.27919 L6436.30516,3218.29259 L6500,3218.29259 L6500,3136.24066 C6500,3061.01214 6443.00878,3000.02509 6372.70757,3000.02509 C6371.83922,3000.02509 6371.20012,2999.98049 6370.33872,3000.01022 Z M6100,3388.88889 C6113.80712,3388.88889 6125,3376.45235 6125,3361.11111 C6125,3345.76987 6113.80712,3333.33333 6100,3333.33333 C6086.19288,3333.33333 6075,3345.76987 6075,3361.11111 C6075,3376.45235 6086.19288,3388.88889 6100,3388.88889 Z M6175,3388.88889 C6188.80712,3388.88889 6200,3376.45235 6200,3361.11111 C6200,3345.76987 6188.80712,3333.33333 6175,3333.33333 C6161.19288,3333.33333 6150,3345.76987 6150,3361.11111 C6150,3376.45235 6161.19288,3388.88889 6175,3388.88889 Z M6250,3388.88889 C6263.80712,3388.88889 6275,3376.45235 6275,3361.11111 C6275,3345.76987 6263.80712,3333.33333 6250,3333.33333 C6236.19288,3333.33333 6225,3345.76987 6225,3361.11111 C6225,3376.45235 6236.19288,3388.88889 6250,3388.88889 Z" id="icon-font_35_UnlockWithEllipsis"></path>
        </g>
    </g>
</svg>