<?xml version="1.0" encoding="UTF-8" standalone="no"?>
<svg width="292px" height="500px" viewBox="0 0 292 500" version="1.1" xmlns="http://www.w3.org/2000/svg" xmlns:xlink="http://www.w3.org/1999/xlink">
    <!-- Generator: Sketch 3.7.2 (28276) - http://www.bohemiancoding.com/sketch -->
    <title>icon-font_109_Mobile</title>
    <desc>Created with Sketch.</desc>
    <defs></defs>
    <g id="Page-1" stroke="none" stroke-width="1" fill="none" fill-rule="evenodd">
        <g id="Artboard-1" transform="translate(-4113.000000, -11000.000000)" fill="#000000">
            <g id="icon-font_109_Mobile" transform="translate(4113.000000, 11000.000000)">
                <g id="Outline_Icons">
                    <g id="Group">
                        <path d="M239.583333,0 L52.0833333,0 C23.375,0 0,23.3541667 0,52.0833333 L0,447.916667 C0,476.645833 23.375,500 52.0833333,500 L239.583333,500 C268.291667,500 291.666667,476.645833 291.666667,447.916667 L291.666667,52.0833333 C291.666667,23.3541667 268.3125,0 239.583333,0 L239.583333,0 Z M20.8333333,104.166667 L270.833333,104.166667 L270.833333,395.833333 L20.8333333,395.833333 L20.8333333,104.166667 L20.8333333,104.166667 Z M52.0833333,20.8333333 L239.583333,20.8333333 C256.833333,20.8333333 270.833333,34.8541667 270.833333,52.0833333 L270.833333,83.3333333 L20.8333333,83.3333333 L20.8333333,52.0833333 C20.8333333,34.8541667 34.8541667,20.8333333 52.0833333,20.8333333 L52.0833333,20.8333333 Z M239.583333,479.166667 L52.0833333,479.166667 C34.8541667,479.166667 20.8333333,465.145833 20.8333333,447.916667 L20.8333333,416.666667 L270.833333,416.666667 L270.833333,447.916667 C270.833333,465.145833 256.833333,479.166667 239.583333,479.166667 L239.583333,479.166667 Z" id="Shape"></path>
                        <path d="M197.916667,437.5 L93.75,437.5 C88,437.5 83.3333333,442.166667 83.3333333,447.916667 C83.3333333,453.666667 88,458.333333 93.75,458.333333 L197.916667,458.333333 C203.666667,458.333333 208.333333,453.666667 208.333333,447.916667 C208.333333,442.166667 203.6875,437.5 197.916667,437.5 L197.916667,437.5 Z" id="Shape"></path>
                        <ellipse id="Oval" cx="145.833333" cy="52.0833333" rx="20.8333333" ry="20.8333333"></ellipse>
                    </g>
                </g>
            </g>
        </g>
    </g>
</svg>