<?xml version="1.0" encoding="UTF-8" standalone="no"?>
<svg width="500px" height="500px" viewBox="0 0 500 500" version="1.1" xmlns="http://www.w3.org/2000/svg" xmlns:xlink="http://www.w3.org/1999/xlink" xmlns:sketch="http://www.bohemiancoding.com/sketch/ns">
    <!-- Generator: Sketch 3.4.4 (17249) - http://www.bohemiancoding.com/sketch -->
    <title>icon-font_71_MergeColumns</title>
    <desc>Created with Sketch.</desc>
    <defs></defs>
    <g id="Page-1" stroke="none" stroke-width="1" fill="none" fill-rule="evenodd" sketch:type="MSPage">
        <g id="Artboard-1" sketch:type="MSArtboardGroup" transform="translate(-2000.000000, -7000.000000)" fill="#000000">
            <path d="M2271.83333,7270.83333 L2271.83333,7333.33333 L2230.16667,7333.33333 L2230.16667,7270.83333 L2271.83333,7270.83333 L2271.83333,7270.83333 Z M2437.5,7166.66667 L2437.5,7229.16667 L2395.83333,7229.16667 L2395.83333,7166.66667 L2437.5,7166.66667 L2437.5,7166.66667 Z M2104.16667,7166.66667 L2104.16667,7229.16667 L2062.5,7229.16667 L2062.5,7166.66667 L2104.16667,7166.66667 L2104.16667,7166.66667 Z M2437.5,7229.16667 L2437.5,7270.83333 L2062.5,7270.83333 L2062.5,7229.16667 L2437.5,7229.16667 L2437.5,7229.16667 Z M2000,7083.33333 C2000,7129.35706 2037.3096,7166.66667 2083.33333,7166.66667 C2129.35706,7166.66667 2166.66667,7129.35706 2166.66667,7083.33333 C2166.66667,7037.3096 2129.35706,7000 2083.33333,7000 C2037.3096,7000 2000,7037.3096 2000,7083.33333 L2000,7083.33333 Z M2041.66667,7083.33333 C2041.66667,7106.3452 2060.32147,7125 2083.33333,7125 C2106.3452,7125 2125,7106.3452 2125,7083.33333 C2125,7060.32147 2106.3452,7041.66667 2083.33333,7041.66667 C2060.32147,7041.66667 2041.66667,7060.32147 2041.66667,7083.33333 L2041.66667,7083.33333 Z M2333.33333,7083.33333 C2333.33333,7129.35706 2370.64294,7166.66667 2416.66667,7166.66667 C2462.6904,7166.66667 2500,7129.35706 2500,7083.33333 C2500,7037.3096 2462.6904,7000 2416.66667,7000 C2370.64294,7000 2333.33333,7037.3096 2333.33333,7083.33333 L2333.33333,7083.33333 Z M2375,7083.33333 C2375,7106.3452 2393.6548,7125 2416.66667,7125 C2439.67853,7125 2458.33333,7106.3452 2458.33333,7083.33333 C2458.33333,7060.32147 2439.67853,7041.66667 2416.66667,7041.66667 C2393.6548,7041.66667 2375,7060.32147 2375,7083.33333 L2375,7083.33333 Z M2166.66667,7416.66667 C2166.66667,7462.6904 2203.97627,7500 2250,7500 C2296.02373,7500 2333.33333,7462.6904 2333.33333,7416.66667 C2333.33333,7370.64294 2296.02373,7333.33333 2250,7333.33333 C2203.97627,7333.33333 2166.66667,7370.64294 2166.66667,7416.66667 L2166.66667,7416.66667 Z M2208.33333,7416.66667 C2208.33333,7439.67853 2226.98814,7458.33333 2250,7458.33333 C2273.01186,7458.33333 2291.66667,7439.67853 2291.66667,7416.66667 C2291.66667,7393.6548 2273.01186,7375 2250,7375 C2226.98814,7375 2208.33333,7393.6548 2208.33333,7416.66667 L2208.33333,7416.66667 Z" id="icon-font_71_MergeColumns" sketch:type="MSShapeGroup"></path>
        </g>
    </g>
</svg>