<?xml version="1.0" encoding="UTF-8" standalone="no"?>
<svg width="500px" height="500px" viewBox="0 0 500 500" version="1.1" xmlns="http://www.w3.org/2000/svg" xmlns:xlink="http://www.w3.org/1999/xlink">
    <!-- Generator: Sketch 3.7.2 (28276) - http://www.bohemiancoding.com/sketch -->
    <title>icon-font_41_Anchor</title>
    <desc>Created with Sketch.</desc>
    <defs></defs>
    <g id="Page-1" stroke="none" stroke-width="1" fill="none" fill-rule="evenodd">
        <g id="Artboard-1" transform="translate(-2000.000000, -4000.000000)" fill="#000000">
            <path d="M2171.35739,4239.91654 C2164.23444,4243.19662 2155.53401,4241.98049 2149.66887,4236.11526 L2063.47072,4149.92286 C2055.96556,4142.4037 2055.96556,4130.1729 2063.47072,4122.65374 L2122.66419,4063.47334 C2130.1763,4055.96113 2142.40693,4055.96113 2149.91209,4063.47334 L2236.11719,4149.66574 C2242.14217,4155.6769 2243.24014,4164.68322 2239.6474,4171.90356 L2281.05086,4213.3215 C2306.97841,4183.02942 2305.66501,4137.44189 2277.00641,4108.77595 L2190.80826,4022.58355 C2160.69034,3992.47215 2111.88595,3992.47215 2081.78192,4022.58355 L2022.58845,4081.77784 C1992.47052,4111.88229 1992.47052,4160.69431 2022.58845,4190.8057 L2108.7727,4277.00505 C2137.3062,4305.53201 2182.60123,4306.97746 2212.89289,4281.45262 L2171.35739,4239.91654 Z M2418.22156,4477.41645 L2477.42198,4418.23605 C2507.52601,4388.11771 2507.52601,4339.30569 2477.42198,4309.20125 L2391.22383,4223.0019 C2362.55829,4194.33596 2316.96444,4193.02254 2286.67278,4218.9435 L2328.09709,4260.37533 C2335.31734,4256.75474 2344.31658,4257.86663 2350.34155,4263.89169 L2436.52581,4350.08409 C2444.05181,4357.60325 2444.05181,4369.83405 2436.52581,4377.33931 L2377.33928,4436.52666 C2369.82022,4444.04582 2357.58959,4444.04582 2350.08443,4436.52666 L2263.88628,4350.34121 C2258.02114,4344.47599 2256.79808,4335.76849 2260.08506,4328.64544 L2218.54956,4287.10936 C2193.02507,4317.40144 2194.47745,4362.69015 2223.00401,4391.22405 L2309.20216,4477.41645 C2339.29229,4507.52785 2388.11753,4507.52785 2418.22156,4477.41645 Z M2140.07199,4140.47874 C2128.77951,4151.77138 2128.77951,4170.07589 2140.0581,4181.37548 L2316.4363,4357.74919 C2327.74268,4369.03488 2346.05388,4369.05573 2357.34637,4357.76308 C2368.63886,4346.47044 2368.62496,4328.15899 2357.33247,4316.86634 L2180.95427,4140.47874 C2169.66178,4129.1861 2151.36448,4129.19305 2140.07199,4140.47874 Z" id="icon-font_41_Anchor" transform="translate(2250.000000, 4250.000000) scale(-1, 1) translate(-2250.000000, -4250.000000) "></path>
        </g>
    </g>
</svg>