<?xml version="1.0" encoding="UTF-8" standalone="no"?>
<svg width="334px" height="500px" viewBox="0 0 334 500" version="1.1" xmlns="http://www.w3.org/2000/svg" xmlns:xlink="http://www.w3.org/1999/xlink">
    <!-- Generator: Sketch 3.7.2 (28276) - http://www.bohemiancoding.com/sketch -->
    <title>icon-font_46_Marker</title>
    <desc>Created with Sketch.</desc>
    <defs></defs>
    <g id="Page-1" stroke="none" stroke-width="1" fill="none" fill-rule="evenodd" opacity="0.9">
        <g id="Artboard-1" transform="translate(-7083.000000, -4000.000000)" fill="#000000">
            <path d="M7249.6458,4000.00926 C7248.71953,3999.99272 7247.56795,4000.05888 7246.63333,4000.05888 C7156.25072,4000.05888 7083,4073.63133 7083,4162.24741 C7083,4250.88004 7249.70422,4500 7249.70422,4500 C7249.70422,4500 7416.33333,4250.57404 7416.33333,4162.23087 C7416.33333,4073.8877 7343.06592,4000.04234 7252.68331,4000.04234 C7251.56511,4000.04234 7250.74732,3999.97618 7249.6458,4000.00926 Z M7249.27863,4222.25659 C7207.88004,4222.25659 7174.30888,4188.99351 7174.30888,4147.96463 C7174.30888,4106.93576 7207.88004,4073.66441 7249.27863,4073.66441 C7290.68557,4073.66441 7324.24838,4106.93576 7324.24838,4147.96463 C7324.24838,4188.99351 7290.68557,4222.25659 7249.27863,4222.25659 L7249.27863,4222.25659 Z" id="icon-font_46_Marker"></path>
        </g>
    </g>
</svg>