<?xml version="1.0" encoding="UTF-8" standalone="no"?>
<svg width="500px" height="375px" viewBox="0 0 500 375" version="1.1" xmlns="http://www.w3.org/2000/svg" xmlns:xlink="http://www.w3.org/1999/xlink">
    <!-- Generator: Sketch 3.8.1 (29687) - http://www.bohemiancoding.com/sketch -->
    <title>icon-font_110_Undo</title>
    <desc>Created with Sketch.</desc>
    <defs></defs>
    <g id="Page-1" stroke="none" stroke-width="1" fill="none" fill-rule="evenodd">
        <g id="Artboard-1" transform="translate(-5002.000000, -11066.000000)" fill="#000000">
            <g id="icon-font_110_Undo" transform="translate(5002.000000, 11066.000000)">
                <path d="M70.3382608,125.000009 L375,125.000009 C446.35637,125.000009 500,178.048274 500,249.999999 C500,321.951726 446.356369,375 375,375 L291.666667,375 C280.160734,375 270.833333,365.672599 270.833333,354.166667 C270.833333,342.660734 280.160734,333.333333 291.666667,333.333333 L375,333.333333 C423.447955,333.333333 458.333333,298.835126 458.333333,249.999999 C458.333333,201.164876 423.447958,166.666676 375,166.666676 L71.9074397,166.666676 L160.628913,256.166411 C168.72923,264.337784 168.671628,277.528596 160.500255,285.628913 C152.328882,293.72923 139.138071,293.671628 131.037754,285.500255 L6.03775366,159.403759 C-2.06278402,151.232164 -2.00492633,138.040917 6.16698066,129.940693 L131.166981,6.03718917 C139.338665,-2.06281376 152.529474,-2.00470423 160.629477,6.16698044 C168.72948,14.3386651 168.671371,27.5294742 160.499686,35.6294771 L70.3382608,125.000009 Z" id="Combined-Shape"></path>
            </g>
        </g>
    </g>
</svg>