<?xml version="1.0" encoding="UTF-8" standalone="no"?>
<svg width="500px" height="459px" viewBox="0 0 500 459" version="1.1" xmlns="http://www.w3.org/2000/svg" xmlns:xlink="http://www.w3.org/1999/xlink" xmlns:sketch="http://www.bohemiancoding.com/sketch/ns">
    <!-- Generator: Sketch 3.4.4 (17249) - http://www.bohemiancoding.com/sketch -->
    <title>icon-font_91_Airlock</title>
    <desc>Created with Sketch.</desc>
    <defs></defs>
    <g id="Page-1" stroke="none" stroke-width="1" fill="none" fill-rule="evenodd" sketch:type="MSPage">
        <g id="Artboard-1" sketch:type="MSArtboardGroup" transform="translate(-4000.000000, -9021.000000)" fill="#191919">
            <path d="M4000,9023.32668 C4000,9022.22578 4000.89705,9021.33333 4002.00149,9021.33333 L4497.99851,9021.33333 C4499.1039,9021.33333 4500,9022.23831 4500,9023.32668 L4500,9477.67332 C4500,9478.77422 4499.10295,9479.66667 4497.99851,9479.66667 L4002.00149,9479.66667 C4000.8961,9479.66667 4000,9478.76169 4000,9477.67332 L4000,9023.32668 Z M4083.33333,9104.66667 L4416.66667,9104.66667 L4416.66667,9146.33333 L4083.33333,9146.33333 L4083.33333,9104.66667 Z M4083.33333,9188 L4416.66667,9188 L4416.66667,9229.66667 L4083.33333,9229.66667 L4083.33333,9188 Z M4083.33333,9271.33333 L4416.66667,9271.33333 L4416.66667,9313 L4083.33333,9313 L4083.33333,9271.33333 Z M4083.33333,9354.66667 L4416.66667,9354.66667 L4416.66667,9396.33333 L4083.33333,9396.33333 L4083.33333,9354.66667 Z" id="icon-font_91_Airlock" sketch:type="MSShapeGroup"></path>
        </g>
    </g>
</svg>