<?xml version="1.0" encoding="UTF-8" standalone="no"?>
<svg width="498px" height="494px" viewBox="0 0 498 494" version="1.1" xmlns="http://www.w3.org/2000/svg" xmlns:xlink="http://www.w3.org/1999/xlink">
    <!-- Generator: Sketch 3.7.2 (28276) - http://www.bohemiancoding.com/sketch -->
    <title>icon-font_73_Globe</title>
    <desc>Created with Sketch.</desc>
    <defs></defs>
    <g id="Page-1" stroke="none" stroke-width="1" fill="none" fill-rule="evenodd">
        <g id="Artboard-1" transform="translate(-4002.000000, -7003.000000)" fill="#000000">
            <g id="icon-font_73_Globe" transform="translate(4002.000000, 7003.000000)">
                <path d="M248.960321,0 C111.939488,0 0.863633987,110.573106 0.863633987,246.97376 C0.863633987,383.369477 111.939488,493.94752 248.960321,493.94752 C385.981154,493.94752 497.057008,383.369477 497.057008,246.97376 C497.061968,110.573106 385.981154,0 248.960321,0 L248.960321,0 Z M248.960321,466.03639 C127.434062,466.03639 28.916549,367.964784 28.916549,246.978698 C28.916549,237.133519 29.6307675,227.461149 30.8955294,217.966526 L62.216986,264.595346 L84.6553501,264.595346 L84.6553501,236.550906 L111.418704,236.550906 C122.419653,236.550906 131.332504,227.673458 131.332504,216.727239 L154.147817,216.727239 L178.014618,192.968463 L178.014618,170.952589 L154.405729,147.450558 L130.380213,147.450558 L130.380213,166.992793 L107.098674,166.992793 C94.7040075,166.992793 84.66031,156.994555 84.66031,144.651052 C84.66031,132.312485 94.7040075,122.314247 107.098674,122.314247 L107.098674,99.4145791 L86.3416993,99.4145791 C126.580967,55.4914554 184.531862,27.9259429 248.960321,27.9259429 C312.372011,27.9259429 369.49957,54.6718468 409.649561,97.4050567 L369.554129,121.81557 C362.317707,112.286385 350.840613,106.124508 337.905322,106.124508 C316.012542,106.124508 298.266196,123.800405 298.266196,145.594095 L315.179287,151.64735 L313.359021,156.693374 L303.875787,153.834618 L288.16298,164.637653 L298.266196,185.108119 L306.856657,185.108119 C316.210936,185.108119 323.789587,192.652469 323.789587,201.959471 L323.789587,224.202464 L340.846514,224.202464 L366.722054,211.320784 C373.869199,211.320784 379.662304,217.087669 379.662304,224.202464 L340.856433,224.202464 L381.631365,278.19295 L414.063828,245.907281 L430.485894,245.907281 C437.300728,245.907281 442.826002,251.397672 442.826002,258.186599 L442.687126,257.673109 C442.687126,264.471911 448.217359,269.967239 455.037154,269.967239 L455.037154,299.779269 L461.47504,303.837813 C436.323638,397.243575 350.726536,466.03639 248.960321,466.03639 L248.960321,466.03639 Z" id="Shape"></path>
                <path d="M108.869341,308.000043 C108.869341,322.506128 120.678745,334.237394 135.240866,334.237394 L135.240866,420.824604 L157.594913,431.711575 L157.594913,415.235466 L197.705225,375.301762 L197.705225,356.036022 C212.267346,356.036022 224.071791,344.280069 224.071791,329.793733 L224.161068,311.095793 L200.790252,311.095793 L155.065389,264.728656 L84.6553501,264.595346 L108.780063,289.307041 L108.869341,308.000043 L108.869341,308.000043 Z" id="Shape"></path>
                <path d="M264.60369,218.618263 C283.19321,218.618263 298.266196,203.6135 298.266196,185.108119 L264.60369,185.108119 L264.60369,218.618263 L264.60369,218.618263 Z" id="Shape"></path>
                <path d="M334.840134,235.000562 L252.541333,235.000562 C243.861595,235.000562 236.833486,241.996859 236.833486,250.637312 L236.833486,265.661825 C236.833486,291.686868 258.017008,312.769573 284.150461,312.769573 L308.275175,312.769573 L308.275175,368.478274 L330.435787,390.548458 L352.5964,390.548458 L352.5964,366.246568 L375.034764,343.914701 L375.034764,303.798314 C383.243317,303.798314 389.904396,297.172321 389.904396,288.98611 L375.590267,288.98611 L334.840134,235.000562 L334.840134,235.000562 Z" id="Shape"></path>
                <path d="M165.386838,72.6686752 L148.181117,98.7282803 L157.942103,113.624421 L158.150416,137.017829 L181.764265,160.524797 L195.899839,128.204567 C218.863948,128.204567 237.478267,109.674499 237.478267,86.8242053 L165.386838,72.6686752 L165.386838,72.6686752 Z" id="Shape"></path>
                <path d="M361.56381,377.143413 L361.56381,390.548458 C369.003585,390.548458 375.034764,384.534703 375.034764,377.143413 L375.034764,363.738368 C367.599948,363.738368 361.56381,369.737311 361.56381,377.143413 L361.56381,377.143413 Z" id="Shape" stroke="#CCCCCC"></path>
                <path d="M271.339167,164.632715 L288.17786,164.632715 L288.17786,147.875175 C278.87318,147.875175 271.339167,155.380025 271.339167,164.632715 L271.339167,164.632715 Z" id="Shape"></path>
            </g>
        </g>
    </g>
</svg>