<?xml version="1.0" encoding="UTF-8" standalone="no"?>
<svg width="500px" height="500px" viewBox="0 0 500 500" version="1.1" xmlns="http://www.w3.org/2000/svg" xmlns:xlink="http://www.w3.org/1999/xlink" xmlns:sketch="http://www.bohemiancoding.com/sketch/ns">
    <!-- Generator: Sketch 3.4.4 (17249) - http://www.bohemiancoding.com/sketch -->
    <title>icon-font_102_Explore</title>
    <desc>Created with Sketch.</desc>
    <defs></defs>
    <g id="Page-1" stroke="none" stroke-width="1" fill="none" fill-rule="evenodd" sketch:type="MSPage">
        <g id="Artboard-1" sketch:type="MSArtboardGroup" transform="translate(-4000.000000, -10000.000000)" fill="#000000">
            <g id="icon-font_102_Explore" sketch:type="MSLayerGroup" transform="translate(4000.000000, 10000.000000)">
                <path d="M489.583333,479.166667 L288.833333,479.166667 C328.354167,457.25 357.916667,419.708333 369.5,375 L416.666667,375 C458.229167,375 489.583333,339.166667 489.583333,291.666667 C489.583333,244.166667 458.229167,208.333333 416.666667,208.333333 L375,208.333333 L375,197.916667 C375,192.166667 370.333333,187.5 364.583333,187.5 L52.0833333,187.5 C46.3333333,187.5 41.6666667,192.166667 41.6666667,197.916667 L41.6666667,333.333333 C41.6666667,396.041667 76.5208333,450.729167 127.833333,479.166667 L10.4166667,479.166667 C4.66666667,479.166667 0,483.833333 0,489.583333 C0,495.333333 4.66666667,500 10.4166667,500 L489.583333,500 C495.333333,500 500,495.333333 500,489.583333 C500,483.833333 495.333333,479.166667 489.583333,479.166667 L489.583333,479.166667 Z M416.666667,229.166667 C450.5,229.166667 468.75,261.375 468.75,291.666667 C468.75,321.958333 450.5,354.166667 416.666667,354.166667 L373.5625,354.166667 C374.416667,347.333333 375,340.416667 375,333.333333 L375,229.166667 L416.666667,229.166667 L416.666667,229.166667 Z M62.5,333.333333 L62.5,208.333333 L354.166667,208.333333 L354.166667,333.333333 C354.166667,413.729167 288.729167,479.166667 208.333333,479.166667 C127.9375,479.166667 62.5,413.729167 62.5,333.333333 L62.5,333.333333 Z" id="Shape" sketch:type="MSShapeGroup"></path>
                <path d="M202.25,150.145833 C204.0625,151.458333 206.1875,152.104167 208.333333,152.104167 C210.479167,152.104167 212.604167,151.458333 214.416667,150.145833 C222.333333,144.458333 291.666667,93.2916667 291.666667,50.2916667 C291.666667,18.8125 268,0 245.166667,0 C232.791667,0 218.458333,5.64583333 208.333333,20.0625 C198.229167,5.64583333 183.895833,0 171.520833,0 C148.666667,0 125,18.8125 125,50.2916667 C125,93.2916667 194.333333,144.458333 202.25,150.145833 L202.25,150.145833 Z M171.520833,20.8333333 C184.0625,20.8333333 194.041667,31.0833333 198.1875,48.2708333 C199.333333,52.9375 203.541667,56.2291667 208.333333,56.2291667 C213.125,56.2291667 217.333333,52.9375 218.458333,48.2708333 C222.645833,31.0833333 232.604167,20.8333333 245.166667,20.8333333 C257.770833,20.8333333 270.833333,31.8541667 270.833333,50.2916667 C270.833333,72.8958333 234.729167,108.395833 208.333333,128.708333 C181.916667,108.416667 145.833333,72.9375 145.833333,50.2916667 C145.833333,31.8541667 158.895833,20.8333333 171.520833,20.8333333 L171.520833,20.8333333 Z" id="Shape" sketch:type="MSShapeGroup"></path>
            </g>
        </g>
    </g>
</svg>