<?xml version="1.0" encoding="UTF-8" standalone="no"?>
<svg width="500px" height="500px" viewBox="0 0 500 500" version="1.1" xmlns="http://www.w3.org/2000/svg" xmlns:xlink="http://www.w3.org/1999/xlink" xmlns:sketch="http://www.bohemiancoding.com/sketch/ns">
    <!-- Generator: Sketch 3.4.4 (17249) - http://www.bohemiancoding.com/sketch -->
    <title>icon-font_97_Spinner</title>
    <desc>Created with Sketch.</desc>
    <defs></defs>
    <g id="Page-1" stroke="none" stroke-width="1" fill="none" fill-rule="evenodd" sketch:type="MSPage">
        <g id="Artboard-1" sketch:type="MSArtboardGroup" transform="translate(-9000.000000, -9000.000000)" fill="#000000">
            <path d="M9249.99653,9000 C9232.7276,9000 9218.73741,9010.74619 9218.73741,9024.00006 L9218.73741,9133.30972 C9218.73741,9146.57053 9232.7276,9157.30977 9249.99653,9157.30977 C9267.25851,9157.30977 9281.25564,9146.57053 9281.25564,9133.30972 L9281.25564,9024.00006 C9281.25564,9010.74619 9267.25851,9000 9249.99653,9000 Z M9249.99653,9342.69023 C9232.7276,9342.69023 9218.73741,9353.43642 9218.73741,9366.69028 L9218.73741,9475.99994 C9218.73741,9489.26076 9232.7276,9500 9249.99653,9500 C9267.25851,9500 9281.25564,9489.26076 9281.25564,9475.99994 L9281.25564,9366.69028 C9281.25564,9353.43642 9267.25851,9342.69023 9249.99653,9342.69023 Z M9475.99994,9219.31397 L9366.69028,9219.31397 C9353.42947,9219.31397 9342.69023,9233.30416 9342.69023,9250.56614 C9342.69023,9267.83506 9353.42947,9281.8322 9366.69028,9281.8322 L9475.99994,9281.8322 C9489.24686,9281.8322 9500,9267.83506 9500,9250.56614 C9500,9233.30416 9489.24686,9219.31397 9475.99994,9219.31397 Z M9157.30282,9250.56614 C9157.30282,9233.30416 9146.55663,9219.31397 9133.30277,9219.31397 L9023.99311,9219.31397 C9010.73924,9219.31397 9000,9233.30416 9000,9250.56614 C9000,9267.83506 9010.73924,9281.8322 9023.99311,9281.8322 L9133.30277,9281.8322 C9146.55663,9281.8322 9157.30282,9267.83506 9157.30282,9250.56614 Z M9354.61732,9189.59002 L9431.9107,9112.29664 C9441.28148,9102.92585 9438.9822,9085.42075 9426.77031,9073.2158 C9414.55841,9061.0039 9397.0672,9058.71852 9387.70336,9068.08236 L9310.40303,9145.38268 C9301.03225,9154.75347 9303.32458,9172.23774 9315.53648,9184.44963 C9327.74142,9196.65458 9345.23958,9198.96775 9354.61732,9189.59002 Z M9145.37573,9310.40998 L9068.0893,9387.69641 C9058.71157,9397.07415 9061.01085,9414.56536 9073.2158,9426.77031 C9085.42769,9438.97526 9102.91891,9441.28148 9112.29664,9431.9107 L9189.59002,9354.61732 C9198.96081,9345.24653 9196.66153,9327.74837 9184.44963,9315.53648 C9172.24468,9303.32458 9154.74652,9301.03225 9145.37573,9310.40998 Z M9354.20748,9310.81288 C9344.82974,9301.43514 9327.34548,9303.73442 9315.13358,9315.93937 C9302.92863,9328.15127 9300.6224,9345.64248 9310.00014,9355.02021 L9387.29352,9432.31359 C9396.6643,9441.68438 9414.16941,9439.3851 9426.37436,9427.18015 C9438.57931,9414.96825 9440.87164,9397.47704 9431.50085,9388.1132 L9354.20748,9310.81288 Z M9144.97284,9189.99291 C9154.34363,9199.3637 9171.84179,9197.06442 9184.05368,9184.85253 C9196.25863,9172.64758 9198.55097,9155.15637 9189.18018,9145.78558 L9111.8868,9068.4922 C9102.50907,9059.12141 9085.0248,9061.41375 9072.81985,9073.62564 C9060.60796,9085.83059 9058.30173,9103.32875 9067.67252,9112.69954 L9144.97284,9189.99291 Z" id="icon-font_97_Spinner" sketch:type="MSShapeGroup"></path>
        </g>
    </g>
</svg>