<?xml version="1.0" encoding="UTF-8" standalone="no"?>
<svg width="375px" height="500px" viewBox="0 0 375 500" version="1.1" xmlns="http://www.w3.org/2000/svg" xmlns:xlink="http://www.w3.org/1999/xlink" xmlns:sketch="http://www.bohemiancoding.com/sketch/ns">
    <!-- Generator: Sketch 3.4.4 (17249) - http://www.bohemiancoding.com/sketch -->
    <title>icon-font_49_Notes</title>
    <desc>Created with Sketch.</desc>
    <defs></defs>
    <g id="Page-1" stroke="none" stroke-width="1" fill="none" fill-rule="evenodd" sketch:type="MSPage">
        <g id="Artboard-1" sketch:type="MSArtboardGroup" transform="translate(-63.000000, -5001.000000)" fill="#000000">
            <path d="M397.27837,5034.90828 L374.480438,5034.90828 L374.480438,5020.37517 C374.480438,5009.67276 365.68715,5001 354.843032,5001 C343.99189,5001 335.198603,5009.67276 335.198603,5020.37517 L335.198603,5034.90828 L269.740584,5034.90828 L269.740584,5020.37517 C269.740584,5009.67276 260.947296,5001 250.096155,5001 C239.245013,5001 230.451726,5009.67276 230.451726,5020.37517 L230.451726,5034.90828 L165.39404,5034.90828 L165.39404,5020.37517 C165.39404,5009.67276 156.59373,5001 145.749611,5001 C134.89847,5001 126.105182,5009.67276 126.105182,5020.37517 L126.105182,5034.90828 L103.728654,5034.90828 C81.2327271,5034.90828 63,5052.89111 63,5075.07177 L63,5460.83652 C63,5483.01718 81.2327271,5501 103.728654,5501 L397.27837,5501 C419.767273,5501 438,5483.01718 438,5460.83652 L438,5075.07177 C438,5052.89111 419.767273,5034.90828 397.27837,5034.90828 L397.27837,5034.90828 L397.27837,5034.90828 Z M396.333333,5459.33333 L104.666667,5459.33333 L104.666667,5084.33333 L127.348066,5084.33333 L127.348066,5097.50072 C127.348066,5108.06612 136.053496,5116.65266 146.796219,5116.65266 C157.531989,5116.65266 166.244372,5108.06612 166.244372,5097.50072 L166.244372,5084.33333 L230.652037,5084.33333 L230.652037,5097.50072 C230.652037,5108.06612 239.357467,5116.65266 250.10019,5116.65266 C260.842913,5116.65266 269.548343,5108.06612 269.548343,5097.50072 L269.548343,5084.33333 L334.352341,5084.33333 L334.352341,5097.50072 C334.352341,5108.06612 343.057771,5116.65266 353.800494,5116.65266 C364.536264,5116.65266 373.241694,5108.06612 373.241694,5097.50072 L373.241694,5084.33333 L396.333333,5084.33333 L396.333333,5459.33333 L396.333333,5459.33333 Z M146.333333,5167.66667 L354.666667,5167.66667 L354.666667,5188.5 L146.333333,5188.5 L146.333333,5167.66667 L146.333333,5167.66667 Z M146.333333,5230.16667 L354.666667,5230.16667 L354.666667,5251 L146.333333,5251 L146.333333,5230.16667 L146.333333,5230.16667 Z M146.333333,5292.66667 L354.666667,5292.66667 L354.666667,5313.5 L146.333333,5313.5 L146.333333,5292.66667 L146.333333,5292.66667 Z M146.333333,5376 L354.666667,5376 L354.666667,5396.83333 L146.333333,5396.83333 L146.333333,5376 L146.333333,5376 Z" id="icon-font_49_Notes" sketch:type="MSShapeGroup"></path>
        </g>
    </g>
</svg>