<?xml version="1.0" encoding="UTF-8" standalone="no"?>
<svg width="500px" height="500px" viewBox="0 0 500 500" version="1.1" xmlns="http://www.w3.org/2000/svg" xmlns:xlink="http://www.w3.org/1999/xlink" xmlns:sketch="http://www.bohemiancoding.com/sketch/ns">
    <!-- Generator: Sketch 3.4.4 (17249) - http://www.bohemiancoding.com/sketch -->
    <title>icon-font_97_Spinner</title>
    <desc>Created with Sketch.</desc>
    <defs></defs>
    <g id="Page-1" stroke="none" stroke-width="1" fill="none" fill-rule="evenodd" sketch:type="MSPage">
        <g id="Artboard-1" sketch:type="MSArtboardGroup" transform="translate(-9000.000000, -9000.000000)" fill="#000000">
            <g id="icon-font_97_Spinner" sketch:type="MSLayerGroup" transform="translate(9000.000000, 9000.000000)">
                <path d="M249.996527,0 C232.727601,0 218.73741,10.7461899 218.73741,24.0000556 L218.73741,133.309715 C218.73741,146.570528 232.727601,157.309771 249.996527,157.309771 C267.258506,157.309771 281.255644,146.570528 281.255644,133.309715 L281.255644,24.0000556 C281.255644,10.7461899 267.258506,0 249.996527,0 Z M249.996527,342.690229 C232.727601,342.690229 218.73741,353.436419 218.73741,366.690285 L218.73741,475.999944 C218.73741,489.260757 232.727601,500 249.996527,500 C267.258506,500 281.255644,489.260757 281.255644,475.999944 L281.255644,366.690285 C281.255644,353.436419 267.258506,342.690229 249.996527,342.690229 Z M475.999944,219.313967 L366.690285,219.313967 C353.429472,219.313967 342.690229,233.304158 342.690229,250.566137 C342.690229,267.835063 353.429472,281.832201 366.690285,281.832201 L475.999944,281.832201 C489.246864,281.832201 500,267.835063 500,250.566137 C500,233.304158 489.246864,219.313967 475.999944,219.313967 Z M157.302824,250.566137 C157.302824,233.304158 146.556635,219.313967 133.302769,219.313967 L23.9931091,219.313967 C10.7392434,219.313967 0,233.304158 0,250.566137 C0,267.835063 10.7392434,281.832201 23.9931091,281.832201 L133.302769,281.832201 C146.556635,281.832201 157.302824,267.835063 157.302824,250.566137 Z M354.617319,189.590019 L431.910696,112.296642 C441.281485,102.925853 438.982203,85.4207477 426.770308,73.2157991 C414.558413,61.0039039 397.0672,58.7185151 387.703358,68.0823574 L310.403034,145.382681 C301.032246,154.75347 303.324581,172.237736 315.536476,184.449631 C327.741425,196.65458 345.239584,198.967754 354.617319,189.590019 Z M145.375735,310.409981 L68.0893038,387.696411 C58.7115687,397.074147 61.0108504,414.565359 73.2157991,426.770308 C85.4276942,438.975257 102.918907,441.281485 112.296642,431.910696 L189.590019,354.617319 C198.960808,345.24653 196.661526,327.748371 184.449631,315.536476 C172.244682,303.324581 154.746523,301.032246 145.375735,310.409981 Z M354.207477,310.812876 C344.829742,301.435141 327.345476,303.734423 315.133581,315.939371 C302.928632,328.151266 300.622404,345.642479 310.000139,355.020214 L387.293516,432.313591 C396.664305,441.68438 414.169411,439.385098 426.374359,427.18015 C438.579308,414.968255 440.871643,397.477042 431.500854,388.1132 L354.207477,310.812876 Z M144.972839,189.992915 C154.343628,199.363703 171.841787,197.064422 184.053682,184.852526 C196.258631,172.647578 198.550966,155.156365 189.180178,145.785576 L111.8868,68.4921991 C102.509065,59.1214104 85.0247989,61.4137457 72.8198502,73.6256408 C60.6079551,85.8305895 58.3017269,103.328749 67.6725156,112.699537 L144.972839,189.992915 Z" sketch:type="MSShapeGroup"></path>
            </g>
        </g>
    </g>
</svg>