<?xml version="1.0" encoding="UTF-8" standalone="no"?>
<svg width="194px" height="500px" viewBox="0 0 194 500" version="1.1" xmlns="http://www.w3.org/2000/svg" xmlns:xlink="http://www.w3.org/1999/xlink" xmlns:sketch="http://www.bohemiancoding.com/sketch/ns">
    <!-- Generator: Sketch 3.4.4 (17249) - http://www.bohemiancoding.com/sketch -->
    <title>icon-font_11_Info</title>
    <desc>Created with Sketch.</desc>
    <defs></defs>
    <g id="Page-1" stroke="none" stroke-width="1" fill="none" fill-rule="evenodd" sketch:type="MSPage">
        <g id="Artboard-1" sketch:type="MSArtboardGroup" transform="translate(-153.000000, -1000.000000)" fill="#000000">
            <path d="M243.184051,1104.35327 C274.251768,1104.35327 297.739923,1080.5007 297.739923,1052.18359 C297.739923,1022.35744 274.251768,1000 243.940593,1000 C215.135433,1000 190.127123,1022.35744 190.127123,1052.18359 C190.127123,1080.5007 215.135433,1104.35327 243.184051,1104.35327 Z M297.739923,1404.72184 L297.739923,1140.99444 C255.317006,1152.90682 205.293316,1162.60779 159.823019,1167.82337 L159.823019,1199.75661 C196.200671,1205.71627 201.503535,1207.94159 201.503535,1257.14882 L201.503535,1404.72184 C201.503535,1457.63561 196.950142,1460.62587 153,1465.82754 L153,1500 L347,1500 L347,1465.82754 C301.543844,1459.88178 297.739923,1456.15438 297.739923,1404.72184 Z" id="icon-font_11_Info" sketch:type="MSShapeGroup"></path>
        </g>
    </g>
</svg>