<?xml version="1.0" encoding="UTF-8" standalone="no"?>
<svg width="499px" height="499px" viewBox="0 0 499 499" version="1.1" xmlns="http://www.w3.org/2000/svg" xmlns:xlink="http://www.w3.org/1999/xlink" xmlns:sketch="http://www.bohemiancoding.com/sketch/ns">
    <!-- Generator: Sketch 3.4.4 (17249) - http://www.bohemiancoding.com/sketch -->
    <title>icon-font_98_Mapsearch</title>
    <desc>Created with Sketch.</desc>
    <defs></defs>
    <g id="Page-1" stroke="none" stroke-width="1" fill="none" fill-rule="evenodd" sketch:type="MSPage">
        <g id="Artboard-1" sketch:type="MSArtboardGroup" transform="translate(-3001.000000, -10001.000000)" fill="#000000">
            <g id="icon-font_98_Mapsearch" sketch:type="MSLayerGroup" transform="translate(3001.000000, 10001.000000)">
                <path d="M232.760769,379.327692 L166.153846,426.889231 L166.153846,120.106923 L290.769231,31.09 L290.769231,218.615385 C290.769231,224.347692 295.421538,229 301.153846,229 C306.886154,229 311.538462,224.347692 311.538462,218.615385 L311.538462,31.1107692 L436.153846,120.127692 L436.153846,260.153846 C436.153846,265.886154 440.806154,270.538462 446.538462,270.538462 C452.270769,270.538462 456.923077,265.886154 456.923077,260.153846 L456.923077,114.769231 C456.923077,111.404615 455.303077,108.268462 452.582308,106.316154 L307.197692,2.47 C307.010769,2.34538462 306.761538,2.38692308 306.574615,2.26230769 C304.975385,1.26538462 303.189231,0.538461538 301.153846,0.538461538 C299.118462,0.538461538 297.332308,1.26538462 295.733077,2.26230769 C295.546154,2.38692308 295.296923,2.32461538 295.11,2.47 L155.769231,102.016923 L16.4284615,2.47 C13.2715385,0.185384615 9.09692308,-0.105384615 5.62846154,1.68076923 C2.16,3.46692308 0,7.01846154 0,10.9230769 L0,343.230769 C0,346.595385 1.62,349.731538 4.34076923,351.683846 L149.725385,455.53 C149.912308,455.654615 150.161538,455.613077 150.348462,455.737692 C151.947692,456.734615 153.733846,457.461538 155.769231,457.461538 C157.804615,457.461538 159.590769,456.734615 161.19,455.737692 C161.376923,455.613077 161.626154,455.675385 161.813077,455.53 L244.827692,396.233846 C249.500769,392.89 250.580769,386.41 247.236923,381.757692 C243.893077,377.063846 237.433846,375.983846 232.760769,379.327692 L232.760769,379.327692 Z M20.7692308,31.1107692 L145.384615,120.127692 L145.384615,426.91 L20.7692308,337.893077 L20.7692308,31.1107692 L20.7692308,31.1107692 Z" id="Shape" sketch:type="MSShapeGroup"></path>
                <path d="M495.429231,481.263077 L429.258462,415.092308 C441.325385,399.868462 448.823077,380.864615 448.823077,359.970769 C448.823077,310.643846 408.717692,270.517692 359.411538,270.517692 C310.126154,270.538462 270,310.664615 270,359.991538 C270,409.297692 310.126154,449.403077 359.432308,449.403077 C380.346923,449.403077 399.350769,441.884615 414.595385,429.817692 L480.745385,495.967692 C482.76,497.982308 485.418462,499 488.076923,499 C490.735385,499 493.393846,497.982308 495.429231,495.967692 C499.479231,491.896923 499.479231,485.333846 495.429231,481.263077 L495.429231,481.263077 Z M290.769231,359.991538 C290.769231,322.108462 321.57,291.307692 359.432308,291.307692 C397.273846,291.307692 428.074615,322.108462 428.074615,359.991538 C428.074615,397.833077 397.294615,428.633846 359.432308,428.633846 C321.57,428.613077 290.769231,397.833077 290.769231,359.991538 L290.769231,359.991538 Z" id="Shape" sketch:type="MSShapeGroup"></path>
            </g>
        </g>
    </g>
</svg>