<?xml version="1.0" encoding="UTF-8" standalone="no"?>
<svg width="438px" height="500px" viewBox="0 0 438 500" version="1.1" xmlns="http://www.w3.org/2000/svg" xmlns:xlink="http://www.w3.org/1999/xlink" xmlns:sketch="http://www.bohemiancoding.com/sketch/ns">
    <!-- Generator: Sketch 3.4.4 (17249) - http://www.bohemiancoding.com/sketch -->
    <title>icon-font_12_Fork</title>
    <desc>Created with Sketch.</desc>
    <defs></defs>
    <g id="Page-1" stroke="none" stroke-width="1" fill="none" fill-rule="evenodd" sketch:type="MSPage">
        <g id="Artboard-1" sketch:type="MSArtboardGroup" transform="translate(-1031.000000, -1000.000000)" fill="#000000">
            <path d="M1366.83133,1000 L1264.9468,1115.39959 L1327.37148,1115.39959 L1327.37148,1173.91607 L1327.37148,1174.24969 C1327.37148,1183.32708 1323.05829,1195.92838 1312.20246,1211.57402 C1301.39762,1227.27525 1284.62573,1245.0964 1264.98323,1263.50835 C1260.14547,1268.10265 1255.12556,1272.72475 1250.00364,1277.37465 C1244.86716,1272.72475 1239.85453,1268.10265 1235.01677,1263.50835 C1215.38156,1245.0964 1198.60238,1227.27525 1187.80483,1211.57402 C1176.94171,1195.92838 1172.63581,1183.32708 1172.63581,1174.24969 L1172.63581,1173.91607 L1172.63581,1115.39959 L1235.06048,1115.39959 L1133.17596,1000 L1031,1115.39959 L1095.12226,1115.39959 L1095.12226,1173.91607 C1095.58855,1213.63137 1116.18549,1245.86096 1140.28689,1274.49713 C1156.15535,1293.03418 1174.50826,1310.75802 1193.36389,1327.95363 L1194.16533,1327.95363 L1194.16533,1500 L1307.83098,1500 L1307.83098,1326.84154 C1326.26404,1309.99347 1344.18709,1292.638 1359.71311,1274.49713 C1383.8218,1245.86096 1404.41145,1213.63137 1404.88502,1173.91607 L1404.88502,1115.39959 L1469,1115.39959 L1366.83133,1000" id="icon-font_12_Fork" sketch:type="MSShapeGroup"></path>
        </g>
    </g>
</svg>