<?xml version="1.0" encoding="UTF-8" standalone="no"?>
<svg width="502px" height="421px" viewBox="0 0 502 421" version="1.1" xmlns="http://www.w3.org/2000/svg" xmlns:xlink="http://www.w3.org/1999/xlink">
    <!-- Generator: Sketch 3.8.1 (29687) - http://www.bohemiancoding.com/sketch -->
    <title>icon-font_112_Hide</title>
    <desc>Created with Sketch.</desc>
    <defs></defs>
    <g id="Page-1" stroke="none" stroke-width="1" fill="none" fill-rule="evenodd">
        <g id="Artboard-1" transform="translate(-7999.000000, -11042.000000)" fill="#000000">
            <g id="icon-font_112_Hide" transform="translate(7999.000000, 11042.000000)">
                <path d="M251,374.4 C113.296023,374.4 1.66489362,220.8 1.66489362,208 C1.66489362,195.2 113.296023,41.6 251,41.6 C280.637517,41.6 309.067278,49.9009666 335.436285,62.8021139 C348.460286,69.1741609 360.981565,76.6684231 372.897345,84.8389919 C384.676544,92.9159083 395.864045,101.653716 406.360564,110.621665 C417.381958,120.038054 427.641537,129.708176 437.024366,139.133376 C450.861066,153.032561 462.791106,166.399117 472.44589,177.633872 C492.859382,198.13476 499.50647,206.471875 499.50647,206.471875 C500.20941,207.315835 500.198471,208.683824 499.470249,209.525134 C499.470249,209.525134 493.81446,216.393549 472.44589,238.366128 C430.9308,286.675013 347.347209,374.4 251,374.4 Z M394.199224,155.467791 C344.870371,109.37814 296.27782,83.1335463 251,83.1335463 C202.014573,83.1335463 150.418128,108.386885 102.26859,151.071908 C83.7651341,167.475398 67.0189767,185.461495 54.0510075,202.112076 C48.9506243,208.660854 48.9506243,207.339146 54.0510075,213.887924 C67.0189767,230.538505 83.7651341,248.524602 102.26859,264.928092 C150.418128,307.613115 202.014573,332.866454 251,332.866454 C296.27782,332.866454 344.870371,306.62186 394.199224,260.532209 C412.845375,243.110465 442.029081,209.496409 442.029081,209.496409 C442.750379,208.669965 442.742967,207.320357 442.01901,206.492085 C442.01901,206.492085 412.845375,172.889535 394.199224,155.467791 Z" id="Combined-Shape"></path>
                <path d="M238.19668,247.580497 C242.231256,248.891356 246.534468,249.6 251,249.6 C273.915084,249.6 292.555851,230.939429 292.555851,208 C292.555851,206.435076 292.469098,204.890065 292.300153,203.369534 L485.542304,45.4606005 L501.502904,32.4183041 L475.418311,0.497103074 L459.457711,13.5393995 L267.959667,170.023126 C262.778335,167.695389 257.037526,166.4 251,166.4 C228.084916,166.4 209.444149,185.060571 209.444149,208 C209.444149,211.101133 209.784823,214.124068 210.430678,217.03327 L16.4577036,375.539399 L0.497103064,388.581696 L26.5816958,420.502897 L42.5422964,407.460601 L238.19668,247.580497 Z" id="Combined-Shape"></path>
            </g>
        </g>
    </g>
</svg>