<?xml version="1.0" encoding="UTF-8" standalone="no"?>
<svg width="401px" height="500px" viewBox="0 0 401 500" version="1.1" xmlns="http://www.w3.org/2000/svg" xmlns:xlink="http://www.w3.org/1999/xlink" xmlns:sketch="http://www.bohemiancoding.com/sketch/ns">
    <!-- Generator: Sketch 3.4.4 (17249) - http://www.bohemiancoding.com/sketch -->
    <title>icon-font_25_Lock</title>
    <desc>Created with Sketch.</desc>
    <defs></defs>
    <g id="Page-1" stroke="none" stroke-width="1" fill="none" fill-rule="evenodd" sketch:type="MSPage">
        <g id="Artboard-1" sketch:type="MSArtboardGroup" transform="translate(-4050.000000, -2000.000000)" fill="#000000">
            <path d="M4398.10203,2136.24113 C4398.10203,2061.01971 4332.90946,2000.03556 4252.50455,2000.03556 C4251.50228,2000.03556 4250.7747,1999.98 4249.78727,2000.00778 C4248.97802,1999.99389 4247.94605,2000.04945 4247.12195,2000.04945 C4166.7022,2000.04945 4101.53932,2061.04054 4101.53932,2136.25502 L4101.53932,2218.28949 L4050,2218.28949 L4050,2500 L4451,2500 L4451,2218.28949 L4398.10203,2218.28949 L4398.10203,2136.24113 Z M4174.37147,2136.25502 C4174.37147,2098.73112 4207.01601,2068.21474 4247.12195,2068.21474 C4248.26529,2068.21474 4250.67818,2068.15918 4250.67818,2068.15918 C4250.67818,2068.15918 4251.89576,2068.20085 4252.50455,2068.20085 C4292.61049,2068.20085 4325.25504,2098.71723 4325.25504,2136.24113 L4325.25504,2218.28949 L4174.37147,2218.28949 L4174.37147,2136.25502 L4174.37147,2136.25502 Z" id="icon-font_25_Lock" sketch:type="MSShapeGroup"></path>
        </g>
    </g>
</svg>