<?xml version="1.0" encoding="UTF-8" standalone="no"?>
<svg width="477px" height="500px" viewBox="0 0 477 500" version="1.1" xmlns="http://www.w3.org/2000/svg" xmlns:xlink="http://www.w3.org/1999/xlink">
    <!-- Generator: Sketch 3.7.2 (28276) - http://www.bohemiancoding.com/sketch -->
    <title>icon-font_36_Gift</title>
    <desc>Created with Sketch.</desc>
    <defs></defs>
    <g id="Page-1" stroke="none" stroke-width="1" fill="none" fill-rule="evenodd">
        <g id="Artboard-1" transform="translate(-7012.000000, -3000.000000)" fill="#000000">
            <path d="M7097.29964,3062.73536 C7097.71472,3052.99896 7104.14851,3044.93958 7107.19246,3042.56265 C7114.38724,3036.92871 7122.20464,3034.19143 7131.05975,3034.19143 C7142.61291,3034.19143 7155.75722,3038.86213 7170.21595,3048.07879 C7199.13343,3066.58141 7217.12038,3104.56374 7226.32139,3129.44872 C7190.20914,3124.41767 7135.90239,3112.37365 7110.72067,3088.90235 C7101.45047,3080.23315 7096.95373,3071.43228 7097.29964,3062.73536 L7097.29964,3062.73536 Z M7318.53909,3071.29368 C7340.53851,3056.94203 7361.50022,3055.39668 7369.45598,3055.39668 C7374.99043,3055.39668 7378.79536,3056.06194 7380.87078,3056.58861 C7382.94619,3062.1879 7383.84554,3078.80561 7367.10384,3094.37691 C7348.42509,3111.81926 7306.84757,3122.67136 7276.33894,3128.19443 C7284.57143,3109.20672 7298.47672,3084.39797 7318.53909,3071.29368 L7318.53909,3071.29368 Z M7223.27745,3273.46422 L7223.27745,3459.03091 C7223.27745,3462.82152 7220.2335,3465.89143 7216.42857,3465.89143 L7077.44482,3465.89143 C7073.63988,3465.89143 7070.59594,3462.82152 7070.59594,3459.03091 L7070.59594,3273.46422 C7070.59594,3269.67361 7073.63988,3266.61063 7077.44482,3266.61063 L7216.42857,3266.61063 C7220.2335,3266.61063 7223.27745,3269.67361 7223.27745,3273.46422 L7223.27745,3273.46422 Z M7430.40406,3273.46422 L7430.40406,3459.03091 C7430.40406,3462.82152 7427.36012,3465.89143 7423.55518,3465.89143 L7284.57143,3465.89143 C7280.7665,3465.89143 7277.72255,3462.82152 7277.72255,3459.03091 L7277.72255,3273.46422 C7277.72255,3269.67361 7280.7665,3266.61063 7284.57143,3266.61063 L7423.55518,3266.61063 C7427.36012,3266.61063 7430.40406,3269.67361 7430.40406,3273.46422 L7430.40406,3273.46422 Z M7223.27745,3182.0114 L7223.27745,3214.78251 C7223.27745,3218.56619 7220.2335,3221.6361 7216.42857,3221.6361 L7052.88571,3221.6361 C7049.14996,3221.6361 7046.03684,3218.56619 7046.03684,3214.78251 L7046.03684,3182.0114 C7046.03684,3178.22079 7049.14996,3175.15781 7052.88571,3175.15781 L7216.42857,3175.15781 C7220.2335,3175.15781 7223.27745,3178.22079 7223.27745,3182.0114 L7223.27745,3182.0114 Z M7284.57143,3175.15781 L7448.11429,3175.15781 C7451.91922,3175.15781 7454.96316,3178.22079 7454.96316,3182.0114 L7454.96316,3214.78251 C7454.96316,3218.56619 7451.91922,3221.6361 7448.11429,3221.6361 L7284.57143,3221.6361 C7280.7665,3221.6361 7277.72255,3218.56619 7277.72255,3214.78251 L7277.72255,3182.0114 C7277.72255,3178.22079 7280.7665,3175.15781 7284.57143,3175.15781 L7284.57143,3175.15781 Z M7482.15112,3142.39363 L7352.64511,3142.39363 C7367.10384,3136.28845 7380.45569,3128.74881 7390.41769,3119.46978 C7414.07745,3097.44682 7416.63713,3073.58745 7416.08368,3061.3286 C7415.46106,3047.49668 7410.3417,3035.54968 7402.31675,3029.36135 C7393.11574,3022.19592 7377.75765,3021.12179 7369.45598,3021.12179 C7355.75823,3021.12179 7328.43191,3023.91451 7299.86033,3042.57651 C7277.93009,3056.89352 7262.15693,3079.96982 7251.5723,3100.61375 C7239.32734,3072.79052 7219.12661,3038.73046 7188.61798,3019.18837 C7150.43031,2994.77462 7113.97215,2993.76287 7086.09239,3015.55022 C7076.0612,3023.40863 7064.02379,3040.08871 7063.12444,3061.25238 C7062.57099,3074.44675 7066.30674,3094.29375 7087.40682,3113.9883 C7100.20522,3125.93531 7117.43118,3135.20047 7135.90239,3142.39363 L7018.84888,3142.39363 C7015.11313,3142.39363 7012,3145.4566 7012,3149.24029 L7012,3247.5467 C7012,3251.33731 7015.11313,3254.40722 7018.84888,3254.40722 L7036.5591,3254.40722 L7036.5591,3493.13948 C7036.5591,3496.93009 7039.60305,3500 7043.40798,3500 L7457.6612,3500 C7461.39695,3500 7464.51008,3496.93009 7464.51008,3493.13948 L7464.51008,3254.40722 L7482.15112,3254.40722 C7485.95606,3254.40722 7489,3251.33731 7489,3247.5467 L7489,3149.24029 C7489,3145.4566 7485.95606,3142.39363 7482.15112,3142.39363 L7482.15112,3142.39363 Z" id="icon-font_36_Gift"></path>
        </g>
    </g>
</svg>