<?xml version="1.0" encoding="UTF-8" standalone="no"?>
<svg width="500px" height="500px" viewBox="0 0 500 500" version="1.1" xmlns="http://www.w3.org/2000/svg" xmlns:xlink="http://www.w3.org/1999/xlink">
    <!-- Generator: Sketch 3.7.2 (28276) - http://www.bohemiancoding.com/sketch -->
    <title>icon-font_43_Calendar</title>
    <desc>Created with Sketch.</desc>
    <defs>
        <path d="M4000,4039.99304 C4000,4017.90549 4017.90578,4000 4039.99304,4000 L4460.00696,4000 C4482.09451,4000 4500,4017.90578 4500,4039.99304 L4500,4460.00696 C4500,4482.09451 4482.09422,4500 4460.00696,4500 L4039.99304,4500 C4017.90549,4500 4000,4482.09422 4000,4460.00696 L4000,4039.99304 Z M4021,4157 L4480,4157 L4480,4440.00904 C4480,4462.09544 4462.09476,4480 4439.99472,4480 L4061.00528,4480 C4038.91097,4480 4021,4462.08718 4021,4440.00904 L4021,4157 Z" id="path-1"></path>
        <mask id="mask-2" maskContentUnits="userSpaceOnUse" maskUnits="objectBoundingBox" x="0" y="0" width="500" height="500" fill="white">
            <use xlink:href="#path-1"></use>
        </mask>
    </defs>
    <g id="Page-1" stroke="none" stroke-width="1" fill="none" fill-rule="evenodd">
        <g id="Artboard-1" transform="translate(-4000.000000, -4000.000000)" stroke="#979797" stroke-width="2" fill="#000000">
            <use id="icon-font_43_Calendar" mask="url(#mask-2)" xlink:href="#path-1"></use>
        </g>
    </g>
</svg>