<?xml version="1.0" encoding="UTF-8" standalone="no"?>
<svg width="500px" height="445px" viewBox="0 0 500 445" version="1.1" xmlns="http://www.w3.org/2000/svg" xmlns:xlink="http://www.w3.org/1999/xlink" xmlns:sketch="http://www.bohemiancoding.com/sketch/ns">
    <!-- Generator: Sketch 3.4.4 (17249) - http://www.bohemiancoding.com/sketch -->
    <title>icon-font_04_Heart--fill</title>
    <desc>Created with Sketch.</desc>
    <defs></defs>
    <g id="Page-1" stroke="none" stroke-width="1" fill="none" fill-rule="evenodd" sketch:type="MSPage">
        <g id="Artboard-1" sketch:type="MSArtboardGroup" transform="translate(-3000.000000, -25.000000)" stroke="#000000" stroke-width="55.5555556" fill="#000000">
            <path d="M3249.995,85.3321076 C3219.27316,46.4118608 3178.3807,25.0624556 3134.38806,25.0624556 C3069.23415,25.0624556 3000,75.9741772 3000,170.365404 C3000,267.452631 3082.72496,335.216955 3143.11859,384.692198 C3165.98996,403.460105 3182.77097,416.773557 3196.41178,427.599194 C3217.98308,444.691209 3228.80373,453.268445 3240.47443,465.353603 C3243.00458,467.987147 3246.39478,469.444444 3249.995,469.444444 C3253.59522,469.444444 3256.97542,467.997556 3259.51557,465.364012 C3274.9465,449.385788 3288.96734,438.331147 3326.50959,408.706375 L3356.6914,384.837928 C3406.77441,345.22026 3500,271.481017 3500,169.397343 C3500,75.5994436 3430.84585,25 3365.78195,25 C3321.7193,25 3280.74684,46.3910423 3249.995,85.3321076 Z" id="icon-font_04_Heart--fill" sketch:type="MSShapeGroup"></path>
        </g>
    </g>
</svg>