<?xml version="1.0" encoding="UTF-8" standalone="no"?>
<svg width="320px" height="493px" viewBox="0 0 320 493" version="1.1" xmlns="http://www.w3.org/2000/svg" xmlns:xlink="http://www.w3.org/1999/xlink">
    <!-- Generator: Sketch 3.7.2 (28276) - http://www.bohemiancoding.com/sketch -->
    <title>icon-font_76_Keys</title>
    <desc>Created with Sketch.</desc>
    <defs></defs>
    <g id="Page-1" stroke="none" stroke-width="1" fill="none" fill-rule="evenodd">
        <g id="Artboard-1" transform="translate(-9090.000000, -8000.000000)" fill="#000000">
            <path d="M9395.48856,8286.87955 C9418.06883,8253.4396 9413.56642,8209.68525 9387.06359,8181.47072 C9399.35655,8165.97184 9407.42679,8147.38954 9409.09813,8126.90399 L9409.09813,8126.84941 C9409.30961,8124.20942 9409.42558,8121.54896 9409.42558,8118.86121 C9409.42558,8087.63149 9394.46529,8059.11681 9371.22329,8038.28335 C9347.94038,8017.36803 9316.18475,8003.52682 9280.53383,8000.57302 C9275.88817,8000.18419 9271.24249,8000 9266.68551,8000 C9232.46038,8000.02047 9200.80705,8010.46448 9176.59636,8028.68523 C9152.4266,8046.81729 9135.54256,8073.35368 9133.02531,8104.13999 C9132.78655,8106.8141 9132.69786,8109.53595 9132.69786,8112.18959 C9132.69786,8132.86615 9139.28776,8152.34209 9150.4892,8169.20532 C9130.25564,8192.11939 9123.13364,8225.21825 9134.83992,8255.7317 C9138.18261,8264.43618 9142.82147,8272.25384 9148.42901,8279.08918 L9137.30942,8304.03611 L9152.02411,8342.36722 L9113.69906,8357.07479 L9113.66494,8357.1703 L9128.36599,8395.5014 L9090.03412,8410.20897 L9090,8410.31812 L9109.25804,8460.49169 L9109.21028,8460.50533 L9109.2171,8460.50533 L9159.47356,8441.2204 L9201.67342,8346.46706 L9198.61725,8343.41094 L9198.61725,8334.19483 L9198.62407,8319.55547 C9193.11202,8315.80354 9187.96155,8311.53998 9183.22038,8306.7989 C9163.00727,8286.58622 9151.88087,8259.71557 9151.88087,8231.13266 C9151.87405,8202.54976 9163.00727,8175.67911 9183.22038,8155.46642 C9188.41861,8150.26829 9194.06708,8145.68411 9200.06347,8141.72071 C9194.5446,8142.64846 9189.03258,8144.12877 9183.61604,8146.20938 C9181.38528,8147.0621 9179.23642,8148.01713 9177.12166,8149.04039 C9169.90415,8137.55265 9166.04298,8125.00074 9166.04298,8112.18959 C9166.04298,8110.40231 9166.1112,8108.6696 9166.25447,8106.971 C9167.95311,8086.77196 9178.76572,8068.88547 9196.66621,8055.32395 C9214.49165,8041.85792 9239.2481,8033.34444 9266.60366,8033.34444 L9266.68551,8033.34444 C9270.34883,8033.34444 9274.03944,8033.49452 9277.77782,8033.81514 C9306.44999,8036.15498 9331.48611,8047.37667 9348.92272,8063.08021 C9366.40709,8078.86561 9376.08046,8098.52574 9376.07364,8118.86121 C9376.07364,8120.58028 9376.0054,8122.3471 9375.86215,8124.16849 L9375.85533,8124.16849 C9374.69561,8138.11203 9369.12901,8150.98457 9359.85131,8162.09029 C9351.59006,8158.37247 9342.94679,8156.08038 9334.23531,8155.15263 C9334.33082,8155.26177 9334.44679,8155.35728 9334.54912,8155.46642 C9339.99978,8160.90331 9344.75458,8166.84501 9348.84087,8173.15508 C9347.79711,8174.02143 9346.71926,8174.88097 9345.60731,8175.72004 C9341.00257,8179.20592 9335.66107,8182.56902 9330.1968,8185.32498 C9326.97006,8180.32468 9323.21123,8175.56996 9318.83161,8171.18361 C9302.28185,8154.63418 9280.58159,8146.35946 9258.88815,8146.35946 C9237.19473,8146.35946 9215.49447,8154.63418 9198.93786,8171.18361 C9165.83152,8204.29612 9165.83834,8257.96921 9198.93786,8291.0749 C9205.53458,8297.67148 9212.95673,8302.92418 9220.85643,8306.89441 L9220.84961,8334.20165 L9249.88332,8363.23478 L9220.85643,8392.26109 L9220.85643,8392.36342 L9249.88332,8421.38973 L9220.84961,8450.42969 L9220.85643,8450.53201 L9258.86769,8488.54249 L9258.82675,8488.5766 L9258.83357,8488.5766 L9296.90623,8450.51155 L9296.90623,8306.90123 C9304.81274,8302.931 9312.23489,8297.67148 9318.83161,8291.0749 C9339.11293,8270.78717 9346.91029,8242.79094 9342.33966,8216.52741 C9349.4139,8213.15068 9356.35172,8208.99626 9362.59368,8204.58263 C9364.76984,8213.15068 9365.89545,8222.05299 9365.89545,8231.13266 C9365.88863,8259.71557 9354.75538,8286.58622 9334.54912,8306.7989 C9329.80113,8311.53998 9324.65063,8315.81036 9319.13861,8319.56911 L9319.13861,8407.70541 L9329.67832,8462.05385 L9374.29994,8492.17164 L9374.27266,8492.15117 L9404.34332,8447.59186 L9404.32966,8447.48954 L9370.30235,8424.51407 L9393.26465,8390.48745 L9393.25101,8390.39195 L9359.2237,8367.41648 L9382.19281,8333.38987 L9376.98776,8306.58743 C9383.98695,8301.19147 9390.26987,8294.60853 9395.48856,8286.87955 L9395.48856,8286.87955 L9395.48856,8286.87955 Z M9279.52419,8225.99593 C9273.94395,8231.57607 9266.61729,8234.37297 9259.29748,8234.37297 C9251.97763,8234.37297 9244.66463,8231.57607 9239.07073,8225.99593 C9227.91021,8214.82199 9227.90339,8196.71039 9239.07073,8185.53646 C9244.65782,8179.95631 9251.97763,8177.15941 9259.29748,8177.15941 C9266.61729,8177.15941 9273.94395,8179.95631 9279.52419,8185.53646 C9290.69838,8196.71039 9290.69838,8214.82199 9279.52419,8225.99593 L9279.52419,8225.99593 L9279.52419,8225.99593 Z" id="icon-font_76_Keys"></path>
        </g>
    </g>
</svg>