<?xml version="1.0" encoding="UTF-8" standalone="no"?>
<svg width="500px" height="500px" viewBox="0 0 500 500" version="1.1" xmlns="http://www.w3.org/2000/svg" xmlns:xlink="http://www.w3.org/1999/xlink">
    <!-- Generator: Sketch 3.7.2 (28276) - http://www.bohemiancoding.com/sketch -->
    <title>icon-font_72_MergeSpatial</title>
    <desc>Created with Sketch.</desc>
    <defs></defs>
    <g id="Page-1" stroke="none" stroke-width="1" fill="none" fill-rule="evenodd">
        <g id="Artboard-1" transform="translate(-3000.000000, -7000.000000)" fill="#000000">
            <path d="M3500,7083.57621 C3500,7037.40944 3462.52761,7000 3416.32973,7000 C3370.10407,7000 3332.64558,7037.40944 3332.64558,7083.57621 C3332.64558,7122.55392 3359.39172,7155.20304 3395.52332,7164.45999 L3395.52332,7229.38352 L3331.01302,7229.38352 C3321.71787,7193.01496 3288.80969,7166.09071 3249.52413,7166.09071 C3210.23161,7166.09071 3177.32344,7193.01496 3168.03524,7229.38352 L3061.67591,7229.38352 L3061.67591,7336.76132 C3026.18343,7346.23338 3000,7378.49391 3000,7416.93036 C3000,7462.80567 3037.24313,7500 3083.16313,7500 C3129.09008,7500 3166.33321,7462.80567 3166.33321,7416.93036 C3166.33321,7378.04286 3139.53149,7345.477 3103.40683,7336.43517 L3103.40683,7271.06059 L3168.05608,7271.06059 C3177.35818,7307.38751 3210.25246,7334.29095 3249.52413,7334.29095 C3288.78885,7334.29095 3321.68313,7307.39445 3330.99218,7271.06059 L3437.25425,7271.06059 L3437.25425,7164.41835 C3473.31638,7155.12671 3500,7122.51228 3500,7083.57621 L3500,7083.57621 Z M3124.59533,7416.93036 C3124.59533,7439.75352 3106.01892,7458.32292 3083.16313,7458.32292 C3060.31428,7458.32292 3041.72398,7439.75352 3041.72398,7416.93036 C3041.72398,7394.1072 3060.31428,7375.53779 3083.16313,7375.53779 C3106.01892,7375.53779 3124.59533,7394.1072 3124.59533,7416.93036 L3124.59533,7416.93036 Z M3103.41378,7357.01696 L3103.40683,7357.01696 L3103.41378,7357.01696 L3103.41378,7357.01696 Z M3249.52413,7292.60693 C3226.11257,7292.60693 3207.06376,7273.57954 3207.06376,7250.20124 C3207.06376,7226.80212 3226.11257,7207.76085 3249.52413,7207.76085 C3272.94263,7207.76085 3291.98449,7226.80212 3291.98449,7250.20124 C3291.98449,7273.57954 3272.94263,7292.60693 3249.52413,7292.60693 L3249.52413,7292.60693 Z M3416.32973,7125.48922 C3393.19606,7125.48922 3374.3765,7106.69082 3374.3765,7083.57621 C3374.3765,7060.47548 3393.19606,7041.67708 3416.32973,7041.67708 C3439.45646,7041.67708 3458.27602,7060.47548 3458.27602,7083.57621 C3458.27602,7106.69082 3439.45646,7125.48922 3416.32973,7125.48922 L3416.32973,7125.48922 Z" id="icon-font_72_MergeSpatial"></path>
        </g>
    </g>
</svg>