<?xml version="1.0" encoding="UTF-8" standalone="no"?>
<svg width="500px" height="417px" viewBox="0 0 500 417" version="1.1" xmlns="http://www.w3.org/2000/svg" xmlns:xlink="http://www.w3.org/1999/xlink">
    <!-- Generator: Sketch 3.7.2 (28276) - http://www.bohemiancoding.com/sketch -->
    <title>icon-font_107_Settings</title>
    <desc>Created with Sketch.</desc>
    <defs></defs>
    <g id="Page-1" stroke="none" stroke-width="1" fill="none" fill-rule="evenodd">
        <g id="Artboard-1" transform="translate(-1000.000000, -11042.000000)" fill="#191919">
            <g id="icon-font_107_Settings" transform="translate(1000.000000, 11042.000000)">
                <path d="M44.1211802,292 L0,292 L0,334 L44.1211802,334 C42.7304327,327.217347 42,320.193974 42,313 C42,305.806026 42.7304327,298.782653 44.1211802,292 Z M247.87882,292 L500,292 L500,334 L247.87882,334 C249.269567,327.217347 250,320.193974 250,313 C250,305.806026 249.269567,298.782653 247.87882,292 Z" id="Combined-Shape"></path>
                <path d="M251.921266,84 L0,84 L0,126 L252.331378,126 C250.804124,118.908475 250,111.548144 250,104 C250,97.1589618 250.660521,90.4721964 251.921266,84 Z M456.078734,84 L500,84 L500,126 L455.668622,126 C457.195876,118.908475 458,111.548144 458,104 C458,97.1589618 457.339479,90.4721964 456.078734,84 Z" id="Combined-Shape"></path>
                <path d="M146,375 L146,375 C180.241654,375 208,347.241654 208,313 C208,278.758346 180.241654,251 146,251 C111.758346,251 84,278.758346 84,313 C84,347.241654 111.758346,375 146,375 L146,375 Z M42,313 C42,255.562386 88.562386,209 146,209 C203.437614,209 250,255.562386 250,313 C250,370.437614 203.437614,417 146,417 C88.562386,417 42,370.437614 42,313 Z" id="Oval-18-Copy"></path>
                <path d="M354,166 L354,166 C388.241654,166 416,138.241654 416,104 C416,69.7583455 388.241654,42 354,42 C319.758346,42 292,69.7583455 292,104 C292,138.241654 319.758346,166 354,166 L354,166 Z M354,208 L354,208 C296.562386,208 250,161.437614 250,104 C250,46.562386 296.562386,0 354,0 C411.437614,0 458,46.562386 458,104 C458,161.437614 411.437614,208 354,208 L354,208 Z" id="Oval-18"></path>
            </g>
        </g>
    </g>
</svg>