<?xml version="1.0" encoding="UTF-8" standalone="no"?>
<svg width="500px" height="500px" viewBox="0 0 500 500" version="1.1" xmlns="http://www.w3.org/2000/svg" xmlns:xlink="http://www.w3.org/1999/xlink" xmlns:sketch="http://www.bohemiancoding.com/sketch/ns">
    <!-- Generator: Sketch 3.4.4 (17249) - http://www.bohemiancoding.com/sketch -->
    <title>icon-font_96_Dashboard</title>
    <desc>Created with Sketch.</desc>
    <defs></defs>
    <g id="Page-1" stroke="none" stroke-width="1" fill="none" fill-rule="evenodd" sketch:type="MSPage">
        <g id="Artboard-1" sketch:type="MSArtboardGroup" transform="translate(0.000000, -10000.000000)" fill="#191919">
            <path d="M93.8758506,10104.8465 L406.124149,10104.8465 L406.124149,10145.952 L93.8758506,10145.952 L93.8758506,10104.8465 Z M93.8758506,10354.048 L406.124149,10354.048 L406.124149,10395.1535 L93.8758506,10395.1535 L93.8758506,10354.048 Z M93.8758506,10229.3431 L281.072073,10229.3431 L281.072073,10270.4485 L93.8758506,10270.4485 L93.8758506,10229.3431 Z M447.854465,10000 L52.1455353,10000 C23.3995278,10000 0,10023.3995 0,10052.1455 L0,10447.8545 C0,10476.6005 23.3995278,10500 52.1455353,10500 L447.854465,10500 C476.669907,10500 500,10476.6005 500,10447.8545 L500,10052.1455 C500,10023.3995 476.669907,10000 447.854465,10000 L447.854465,10000 Z" id="icon-font_96_Dashboard" sketch:type="MSShapeGroup"></path>
        </g>
    </g>
</svg>