<?xml version="1.0" encoding="UTF-8" standalone="no"?>
<svg width="501px" height="358px" viewBox="0 0 501 358" version="1.1" xmlns="http://www.w3.org/2000/svg" xmlns:xlink="http://www.w3.org/1999/xlink">
    <!-- Generator: Sketch 3.7.2 (28276) - http://www.bohemiancoding.com/sketch -->
    <title>icon-font_45_Eye</title>
    <desc>Created with Sketch.</desc>
    <defs></defs>
    <g id="Page-1" stroke="none" stroke-width="1" fill="none" fill-rule="evenodd">
        <g id="Artboard-1" transform="translate(-6000.000000, -4071.000000)" fill="#191919">
            <path d="M6250.5,4429 C6388.84733,4429 6501,4250 6501,4250 C6501,4250 6388.84733,4071 6250.5,4071 C6112.15267,4071 6000,4250 6000,4250 C6000,4250 6112.15267,4429 6250.5,4429 Z M6250.5,4357.4 C6309.79171,4357.4 6357.85714,4309.31538 6357.85714,4250 C6357.85714,4190.68462 6309.79171,4142.6 6250.5,4142.6 C6191.20829,4142.6 6143.14286,4190.68462 6143.14286,4250 C6143.14286,4309.31538 6191.20829,4357.4 6250.5,4357.4 Z M6250.5,4285.8 C6270.2639,4285.8 6286.28571,4269.77179 6286.28571,4250 C6286.28571,4230.22821 6270.2639,4214.2 6250.5,4214.2 C6230.7361,4214.2 6214.71429,4230.22821 6214.71429,4250 C6214.71429,4269.77179 6230.7361,4285.8 6250.5,4285.8 Z" id="icon-font_45_Eye"></path>
        </g>
    </g>
</svg>