<?xml version="1.0" encoding="UTF-8" standalone="no"?>
<svg width="477px" height="499px" viewBox="0 0 477 499" version="1.1" xmlns="http://www.w3.org/2000/svg" xmlns:xlink="http://www.w3.org/1999/xlink" xmlns:sketch="http://www.bohemiancoding.com/sketch/ns">
    <!-- Generator: Sketch 3.4.4 (17249) - http://www.bohemiancoding.com/sketch -->
    <title>icon-font_101_Lightbulb</title>
    <desc>Created with Sketch.</desc>
    <defs></defs>
    <g id="Page-1" stroke="none" stroke-width="1" fill="none" fill-rule="evenodd" sketch:type="MSPage">
        <g id="Artboard-1" sketch:type="MSArtboardGroup" transform="translate(-2000.000000, -10000.000000)" fill="#000000">
            <g id="icon-font_101_Lightbulb" sketch:type="MSLayerGroup" transform="translate(2000.000000, 10000.000000)">
                <path d="M238.397727,90.7272727 C157.024636,90.7272727 90.8181818,156.867455 90.8181818,238.159091 C90.8181818,302.394 132.412909,358.781 192.988636,378.310045 L192.988636,396.931818 C192.988636,403.192 198.074455,408.272727 204.340909,408.272727 L272.454545,408.272727 C278.721,408.272727 283.806818,403.192 283.806818,396.931818 L283.806818,378.310045 C344.40525,358.781 385.977273,302.371318 385.977273,238.159091 C385.977273,156.867455 319.770818,90.7272727 238.397727,90.7272727 L238.397727,90.7272727 Z M269.616477,358.803682 C264.598773,360.096545 261.102273,364.610227 261.102273,369.781682 L261.102273,385.590909 L215.693182,385.590909 L215.693182,369.781682 C215.693182,364.610227 212.196682,360.096545 207.178977,358.803682 C152.029636,344.604864 113.522727,294.999727 113.522727,238.159091 C113.522727,169.365136 169.557545,113.409091 238.397727,113.409091 C307.237909,113.409091 363.272727,169.365136 363.272727,238.159091 C363.272727,294.977045 324.765818,344.582182 269.616477,358.803682 L269.616477,358.803682 Z" id="Shape" sketch:type="MSShapeGroup"></path>
                <path d="M249.75,476.318182 L227.045455,476.318182 C220.779,476.318182 215.693182,481.398909 215.693182,487.659091 C215.693182,493.919273 220.779,499 227.045455,499 L249.75,499 C256.016455,499 261.102273,493.919273 261.102273,487.659091 C261.102273,481.398909 256.016455,476.318182 249.75,476.318182 L249.75,476.318182 Z" id="Shape" sketch:type="MSShapeGroup"></path>
                <path d="M272.454545,430.954545 L204.340909,430.954545 C198.074455,430.954545 192.988636,436.035273 192.988636,442.295455 C192.988636,448.555636 198.074455,453.636364 204.340909,453.636364 L272.454545,453.636364 C278.721,453.636364 283.806818,448.555636 283.806818,442.295455 C283.806818,436.035273 278.721,430.954545 272.454545,430.954545 L272.454545,430.954545 Z" id="Shape" sketch:type="MSShapeGroup"></path>
                <path d="M238.397727,68.0454545 C244.664182,68.0454545 249.75,62.9647273 249.75,56.7045455 L249.75,11.3409091 C249.75,5.08072727 244.664182,0 238.397727,0 C232.131273,0 227.045455,5.08072727 227.045455,11.3409091 L227.045455,56.7045455 C227.045455,62.9647273 232.131273,68.0454545 238.397727,68.0454545 L238.397727,68.0454545 Z" id="Shape" sketch:type="MSShapeGroup"></path>
                <path d="M465.443182,226.818182 L420.034091,226.818182 C413.767636,226.818182 408.681818,231.898909 408.681818,238.159091 C408.681818,244.419273 413.767636,249.5 420.034091,249.5 L465.443182,249.5 C471.709636,249.5 476.795455,244.419273 476.795455,238.159091 C476.795455,231.898909 471.709636,226.818182 465.443182,226.818182 L465.443182,226.818182 Z" id="Shape" sketch:type="MSShapeGroup"></path>
                <path d="M56.7613636,226.818182 L11.3522727,226.818182 C5.08581818,226.818182 0,231.898909 0,238.159091 C0,244.419273 5.08581818,249.5 11.3522727,249.5 L56.7613636,249.5 C63.0278182,249.5 68.1136364,244.419273 68.1136364,238.159091 C68.1136364,231.898909 63.0278182,226.818182 56.7613636,226.818182 L56.7613636,226.818182 Z" id="Shape" sketch:type="MSShapeGroup"></path>
                <path d="M101.920705,117.877409 C104.14575,120.100227 107.051932,121.188955 109.958114,121.188955 C112.864295,121.188955 115.770477,120.077545 117.995523,117.877409 C122.422909,113.454455 122.422909,106.264318 117.995523,101.841364 L69.7937727,53.7105455 C65.3663864,49.2875909 58.1690455,49.2875909 53.7416591,53.7105455 C49.3142727,58.1335 49.3142727,65.3236364 53.7416591,69.7465909 L101.920705,117.877409 L101.920705,117.877409 Z" id="Shape" sketch:type="MSShapeGroup"></path>
                <path d="M366.791932,121.211636 C369.698114,121.211636 372.604295,120.100227 374.829341,117.900091 L423.008386,69.7692727 C427.435773,65.3463182 427.435773,58.1561818 423.008386,53.7332273 C418.581,49.3102727 411.383659,49.3102727 406.956273,53.7332273 L358.777227,101.886727 C354.349841,106.309682 354.349841,113.477136 358.777227,117.922773 C360.979568,120.100227 363.88575,121.211636 366.791932,121.211636 L366.791932,121.211636 Z" id="Shape" sketch:type="MSShapeGroup"></path>
            </g>
        </g>
    </g>
</svg>