<?xml version="1.0" encoding="UTF-8" standalone="no"?>
<svg width="451px" height="482px" viewBox="0 0 451 482" version="1.1" xmlns="http://www.w3.org/2000/svg" xmlns:xlink="http://www.w3.org/1999/xlink">
    <!-- Generator: Sketch 3.7.2 (28276) - http://www.bohemiancoding.com/sketch -->
    <title>icon-font_27_Lens</title>
    <desc>Created with Sketch.</desc>
    <defs></defs>
    <g id="Page-1" stroke="none" stroke-width="1" fill="none" fill-rule="evenodd">
        <g id="Artboard-1" transform="translate(-8025.000000, -2009.000000)" fill="#000000">
            <path d="M8274.86266,2334.14707 C8251.47687,2346.04317 8225.00542,2352.75 8196.96667,2352.75 C8101.9921,2352.75 8025,2275.79894 8025,2180.875 C8025,2085.95106 8101.9921,2009 8196.96667,2009 C8291.94123,2009 8368.93333,2085.95106 8368.93333,2180.875 C8368.93333,2225.03172 8352.27283,2265.29924 8324.89181,2295.74073 L8472.36422,2443.21314 C8476.26685,2447.11577 8476.26827,2453.44176 8472.36298,2457.34705 L8442.28038,2487.42965 C8438.37707,2491.33296 8432.0506,2491.33501 8428.14647,2487.43088 L8274.86266,2334.14707 Z M8196.96667,2313.6875 C8270.35611,2313.6875 8329.85,2254.22532 8329.85,2180.875 C8329.85,2107.52468 8270.35611,2048.0625 8196.96667,2048.0625 C8123.57723,2048.0625 8064.08333,2107.52468 8064.08333,2180.875 C8064.08333,2254.22532 8123.57723,2313.6875 8196.96667,2313.6875 Z" id="icon-font_27_Lens"></path>
        </g>
    </g>
</svg>