<?xml version="1.0" encoding="UTF-8" standalone="no"?>
<svg width="500px" height="445px" viewBox="0 0 500 445" version="1.1" xmlns="http://www.w3.org/2000/svg" xmlns:xlink="http://www.w3.org/1999/xlink" xmlns:sketch="http://www.bohemiancoding.com/sketch/ns">
    <!-- Generator: Sketch 3.4.4 (17249) - http://www.bohemiancoding.com/sketch -->
    <title>icon-font_03_HeartEmpty</title>
    <desc>Created with Sketch.</desc>
    <defs></defs>
    <g id="Page-1" stroke="none" stroke-width="1" fill="none" fill-rule="evenodd" sketch:type="MSPage">
        <g id="Artboard-1" sketch:type="MSArtboardGroup" transform="translate(-2000.000000, -28.000000)" stroke="#000000" stroke-width="55.5555556">
            <path d="M2249.995,88.3321076 C2219.27316,49.4118608 2178.3807,28.0624556 2134.38806,28.0624556 C2069.23415,28.0624556 2000,78.9741772 2000,173.365404 C2000,270.452631 2082.72496,338.216955 2143.11859,387.692198 C2165.98996,406.460105 2182.77097,419.773557 2196.41178,430.599194 C2217.98308,447.691209 2228.80373,456.268445 2240.47443,468.353603 C2243.00458,470.987147 2246.39478,472.444444 2249.995,472.444444 C2253.59522,472.444444 2256.97542,470.997556 2259.51557,468.364012 C2274.9465,452.385788 2288.96734,441.331147 2326.50959,411.706375 L2356.6914,387.837928 C2406.77441,348.22026 2500,274.481017 2500,172.397343 C2500,78.5994436 2430.84585,28 2365.78195,28 C2321.7193,28 2280.74684,49.3910423 2249.995,88.3321076 Z M2335.44921,90.5535757 C2286.35269,112.377083 2250.05188,176.854234 2250.05188,176.854234 C2250.05188,176.854234 2161.16638,13.3746225 2072.42737,116.118152 C1983.68835,218.861681 2188.54065,352.913196 2188.54065,352.913196 L2248.96851,401.039415 L2327.26135,340.306376 C2327.26135,340.306376 2507.84301,219.038684 2425.22583,111.696153 C2394.32952,80.9330167 2362.7903,78.4004024 2335.44921,90.5535757 Z" id="icon-font_03_HeartEmpty" sketch:type="MSShapeGroup"></path>
        </g>
    </g>
</svg>