<?xml version="1.0" encoding="UTF-8" standalone="no"?>
<svg width="500px" height="450px" viewBox="0 0 500 450" version="1.1" xmlns="http://www.w3.org/2000/svg" xmlns:xlink="http://www.w3.org/1999/xlink">
    <!-- Generator: Sketch 3.7.2 (28276) - http://www.bohemiancoding.com/sketch -->
    <title>icon-font_29_DefaultUser</title>
    <desc>Created with Sketch.</desc>
    <defs></defs>
    <g id="Page-1" stroke="none" stroke-width="1" fill="none" fill-rule="evenodd">
        <g id="Artboard-1" transform="translate(0.000000, -3025.000000)" fill="#000000">
            <path d="M437.381088,3362.1138 C407.189579,3348.29625 362.381435,3312.67959 296.033719,3300.44263 C312.997347,3281.74031 325.843321,3252.48887 339.05037,3217.83058 C346.709348,3197.75509 345.390032,3180.63334 345.390032,3156.25954 C345.390032,3138.25095 348.688322,3109.35712 344.348466,3093.47982 C329.717944,3039.81167 292.735429,3025 249.413251,3025 C206.056356,3025 169.039121,3039.87603 154.42943,3093.63716 C150.124293,3109.47155 153.429528,3138.30102 153.429528,3156.25954 C153.429528,3180.69056 152.137987,3197.86236 159.817795,3217.98077 C173.129001,3252.81071 185.780549,3282.01923 202.688627,3300.65003 C136.868638,3313.10871 92.4007388,3348.45359 62.3967114,3362.23538 C0.305525852,3390.75016 0,3421.96837 0,3421.96837 L0,3475 L500,3474.94278 L500,3421.96837 C500,3421.96837 499.708362,3390.64288 437.381088,3362.1138" id="icon-font_29_DefaultUser"></path>
        </g>
    </g>
</svg>