<?xml version="1.0" encoding="UTF-8" standalone="no"?>
<svg width="498px" height="498px" viewBox="0 0 498 498" version="1.1" xmlns="http://www.w3.org/2000/svg" xmlns:xlink="http://www.w3.org/1999/xlink" xmlns:sketch="http://www.bohemiancoding.com/sketch/ns">
    <!-- Generator: Sketch 3.5.1 (25234) - http://www.bohemiancoding.com/sketch -->
    <title>icon-font_106_Odyssey</title>
    <desc>Created with Sketch.</desc>
    <defs></defs>
    <g id="Page-1" stroke="none" stroke-width="1" fill="none" fill-rule="evenodd" sketch:type="MSPage">
        <g id="Artboard-1" sketch:type="MSArtboardGroup" transform="translate(-1.000000, -11001.000000)" fill="#191919">
            <g id="icon-font_106_Odyssey" sketch:type="MSLayerGroup" transform="translate(0.000000, 11000.000000)">
                <path d="M250,498.955327 C387.494231,498.955327 498.955327,387.494231 498.955327,250 C498.955327,112.505769 387.494231,1.04467292 250,1.04467292 C112.505769,1.04467292 1.04467292,112.505769 1.04467292,250 C1.04467292,387.494231 112.505769,498.955327 250,498.955327 L250,498.955327 Z M250,476.40843 C124.958077,476.40843 23.5915705,375.041923 23.5915705,250 C23.5915705,124.958077 124.958077,23.5915705 250,23.5915705 C375.041923,23.5915705 476.40843,124.958077 476.40843,250 C476.40843,375.041923 375.041923,476.40843 250,476.40843 L250,476.40843 Z" id="Shape" sketch:type="MSShapeGroup"></path>
                <path d="M250,146.660053 C250,141.474266 245.791246,137.265512 240.605459,137.265512 C235.419673,137.265512 231.210919,141.474266 231.210919,146.660053 L231.210919,250 C231.210919,252.630471 232.319475,255.148208 234.25475,256.933171 L346.989238,360.273118 C348.792989,361.926557 351.066468,362.734488 353.339947,362.734488 C355.876473,362.734488 358.412999,361.701088 360.273118,359.690657 C363.786676,355.857684 363.523629,349.920334 359.690657,346.406776 L250,245.866402 L250,146.660053 Z" id="Shape" sketch:type="MSShapeGroup"></path>
            </g>
        </g>
    </g>
</svg>