<?xml version="1.0" encoding="UTF-8" standalone="no"?>
<svg width="500px" height="500px" viewBox="0 0 500 500" version="1.1" xmlns="http://www.w3.org/2000/svg" xmlns:xlink="http://www.w3.org/1999/xlink" xmlns:sketch="http://www.bohemiancoding.com/sketch/ns">
    <!-- Generator: Sketch 3.4.4 (17249) - http://www.bohemiancoding.com/sketch -->
    <title>icon-font_62_Tools</title>
    <desc>Created with Sketch.</desc>
    <defs></defs>
    <g id="Page-1" stroke="none" stroke-width="1" fill="none" fill-rule="evenodd" sketch:type="MSPage">
        <g id="Artboard-1" sketch:type="MSArtboardGroup" transform="translate(-3000.000000, -6000.000000)" fill="#000000">
            <path d="M3330.34949,6290.86154 L3336.90955,6304.1818 L3309.79462,6331.35095 C3302.0475,6339.11356 3292.86342,6344.90074 3282.88795,6348.60815 L3371.52169,6437.41914 L3413.4575,6493.72592 L3435.72006,6499.74959 L3497.57208,6437.41914 L3491.57431,6414.61124 L3435.78254,6373.00196 L3352.01505,6289.05304 L3343.67093,6297.41385 L3330.34949,6290.86154 L3330.34949,6290.86154 Z M3429.77088,6404.71321 C3444.23079,6404.71321 3455.9556,6416.46843 3455.9556,6430.95725 C3455.9556,6445.44607 3444.23079,6457.18737 3429.77088,6457.18737 C3415.31098,6457.18737 3403.58617,6445.44607 3403.58617,6430.95725 C3403.58617,6416.46843 3415.31098,6404.71321 3429.77088,6404.71321 Z M3182.28644,6177.59415 L3196.66999,6163.18184 L3209.69293,6169.97065 L3202.92461,6156.9008 L3217.30815,6142.48849 L3218.73818,6141.0556 C3221.93144,6132.76435 3223.80574,6124.58439 3223.7988,6116.90525 C3223.7988,6057.44056 3167.04905,5999.90958 3107.74469,6000.61906 C3107.51561,6000.61906 3100.80977,6007.42874 3097.15835,6011.08746 C3144.69624,6058.72738 3140.76715,6050.99259 3140.76715,6080.20672 C3140.76715,6103.91191 3102.87844,6141.34775 3079.74815,6141.34775 C3049.81483,6141.34775 3059.34601,6146.32111 3010.78766,6097.64478 C3007.01128,6101.42175 3000.31933,6108.02971 3000.31238,6108.25925 C3001.0274,6167.70307 3057.06213,6224.5524 3116.38731,6224.5524 C3127.11944,6224.5524 3138.60823,6221.11626 3149.94429,6215.39863 L3152.09627,6217.56187 C3155.71992,6207.72644 3161.42614,6198.48226 3169.30515,6190.58748 L3182.28644,6177.59415 Z M3486.20825,6048.48852 L3451.60999,6013.82107 C3442.40508,6004.6047 3430.354,6000 3418.30292,6000 C3406.23796,6000 3394.17994,6004.61166 3384.99585,6013.83498 L3236.93975,6162.1663 C3241.48667,6170.95141 3238.13375,6184.26471 3231.05999,6191.35957 C3226.19374,6196.24251 3218.39803,6199.35172 3211.1646,6199.35172 C3207.84639,6199.35172 3204.66007,6198.70484 3201.9111,6197.27196 L3188.93675,6210.26529 C3170.53386,6228.70498 3170.53386,6258.58687 3188.92287,6277.01265 L3191.33169,6279.42629 L3075.81905,6395.16297 L3044.97635,6406.84863 L3000,6471.17538 L3028.87122,6500 L3092.96546,6455.11456 L3104.64862,6423.96672 L3220.10572,6308.27177 L3223.53501,6311.70096 C3232.72604,6320.91732 3244.78406,6325.52203 3256.82819,6325.52203 C3268.89315,6325.52203 3280.95117,6320.90341 3290.15609,6311.68009 L3303.20679,6298.60329 C3298.8959,6289.83904 3302.22799,6276.74137 3309.25316,6269.70215 C3314.09858,6264.84009 3321.86653,6261.73782 3329.09995,6261.73782 C3332.29321,6261.73782 3335.38928,6262.34297 3338.07578,6263.67152 L3486.20825,6115.24978 C3504.59725,6096.81705 3504.59725,6066.9282 3486.20825,6048.48852 Z" id="icon-font_62_Tools" sketch:type="MSShapeGroup"></path>
        </g>
    </g>
</svg>