<?xml version="1.0" encoding="UTF-8" standalone="no"?>
<svg width="500px" height="500px" viewBox="0 0 500 500" version="1.1" xmlns="http://www.w3.org/2000/svg" xmlns:xlink="http://www.w3.org/1999/xlink" xmlns:sketch="http://www.bohemiancoding.com/sketch/ns">
    <!-- Generator: Sketch 3.4.4 (17249) - http://www.bohemiancoding.com/sketch -->
    <title>icon-font_83_CreativeCommons</title>
    <desc>Created with Sketch.</desc>
    <defs></defs>
    <g id="Page-1" stroke="none" stroke-width="1" fill="none" fill-rule="evenodd" sketch:type="MSPage">
        <g id="Artboard-1" sketch:type="MSArtboardGroup" transform="translate(-4000.000000, -8000.000000)">
            <g id="icon-font_83_CreativeCommons" sketch:type="MSLayerGroup" transform="translate(4000.000000, 8000.000000)">
                <circle id="Oval-10" fill="#000000" sketch:type="MSShapeGroup" cx="250" cy="250" r="250"></circle>
                <path d="M265.333333,367.333333 C300.666667,367.333333 326.666667,352 346.666667,327.666667 L330.333333,317.666667 C316.333333,337 292,350 265.333333,350 C213.333333,350 172.666667,309.666667 172.666667,252.333333 C172.666667,194.333333 213.333333,154.666667 265.333333,154.666667 C292,154.666667 316.333333,167.666667 330.333333,187 L346.333333,176.666667 C327.666667,153 300.666667,137.333333 265.333333,137.333333 C202.333333,137.333333 152.666667,184 152.666667,252.333333 C152.666667,320.666667 202.333333,367.333333 265.333333,367.333333 L265.333333,367.333333 Z" id="C" fill="#FFFFFF" sketch:type="MSShapeGroup"></path>
            </g>
        </g>
    </g>
</svg>