<?xml version="1.0" encoding="UTF-8" standalone="no"?>
<svg width="500px" height="264px" viewBox="0 0 500 264" version="1.1" xmlns="http://www.w3.org/2000/svg" xmlns:xlink="http://www.w3.org/1999/xlink" xmlns:sketch="http://www.bohemiancoding.com/sketch/ns">
    <!-- Generator: Sketch 3.4.4 (17249) - http://www.bohemiancoding.com/sketch -->
    <title>icon-font_52_Points</title>
    <desc>Created with Sketch.</desc>
    <defs></defs>
    <g id="Page-1" stroke="none" stroke-width="1" fill="none" fill-rule="evenodd" sketch:type="MSPage">
        <g id="Artboard-1" sketch:type="MSArtboardGroup" transform="translate(-3000.000000, -5119.000000)" fill="#000000">
            <path d="M3368.42105,5382.15789 C3441.0901,5382.15789 3500,5323.24799 3500,5250.57895 C3500,5177.9099 3441.0901,5119 3368.42105,5119 C3295.75201,5119 3236.84211,5177.9099 3236.84211,5250.57895 C3236.84211,5323.24799 3295.75201,5382.15789 3368.42105,5382.15789 L3368.42105,5382.15789 Z M3127.63317,5119.90907 C3055.7582,5127.60147 3000,5183.17065 3000,5250.57895 C3000,5317.98724 3055.7582,5373.55643 3127.63317,5381.24882 C3082.36544,5352.84115 3052.63158,5304.9153 3052.63158,5250.57895 C3052.63158,5196.24259 3082.36544,5148.31674 3127.63317,5119.90907 L3127.63317,5119.90907 L3127.63317,5119.90907 Z M3260.15904,5381.83881 C3256.8029,5382.05036 3253.41526,5382.15789 3250,5382.15789 C3170.06405,5382.15789 3105.26316,5323.24799 3105.26316,5250.57895 C3105.26316,5177.9099 3170.06405,5119 3250,5119 C3253.41526,5119 3256.8029,5119.10754 3260.15904,5119.31909 C3214.35949,5147.65029 3184.21053,5195.86462 3184.21053,5250.57895 C3184.21053,5305.29328 3214.35949,5353.5076 3260.15904,5381.83881 L3260.15904,5381.83881 L3260.15904,5381.83881 Z" id="icon-font_52_Points" sketch:type="MSShapeGroup"></path>
        </g>
    </g>
</svg>