<?xml version="1.0" encoding="UTF-8" standalone="no"?>
<svg width="500px" height="500px" viewBox="0 0 500 500" version="1.1" xmlns="http://www.w3.org/2000/svg" xmlns:xlink="http://www.w3.org/1999/xlink" xmlns:sketch="http://www.bohemiancoding.com/sketch/ns">
    <!-- Generator: Sketch 3.4.4 (17249) - http://www.bohemiancoding.com/sketch -->
    <title>icon-font_34_Unlock</title>
    <desc>Created with Sketch.</desc>
    <defs></defs>
    <g id="Page-1" stroke="none" stroke-width="1" fill="none" fill-rule="evenodd" sketch:type="MSPage">
        <g id="Artboard-1" sketch:type="MSArtboardGroup" transform="translate(-5000.000000, -3000.000000)" fill="#000000">
            <path d="M5370.33872,3000.0092 C5369.62321,2999.99582 5368.72708,3000.03596 5367.99767,3000.03596 C5297.69645,3000.03596 5240.71913,3054.92431 5240.71913,3122.62997 L5240.71913,3218.46333 L5000,3218.46333 L5000,3500 L5350.58215,3500 L5350.58214,3218.46333 L5304.40702,3218.46333 L5304.40702,3122.62997 C5304.40702,3088.85407 5332.93737,3061.39317 5367.99767,3061.39317 C5369.00495,3061.39317 5371.10981,3061.33965 5371.10981,3061.33965 C5371.10981,3061.33965 5372.17962,3061.37979 5372.70757,3061.37979 C5407.78176,3061.37979 5436.3121,3088.84069 5436.3121,3122.61659 C5436.3121,3122.61659 5436.30516,3135.5677 5436.30516,3152.25162 L5457.59698,3152.25162 L5457.59698,3160.08516 L5436.30516,3179.35127 L5436.30516,3218.46333 L5500,3218.46333 L5500,3122.61659 C5500,3054.91093 5443.00878,3000.02258 5372.70757,3000.02258 C5371.83922,3000.02258 5371.20012,2999.98244 5370.33872,3000.0092 Z" id="icon-font_34_Unlock" sketch:type="MSShapeGroup"></path>
        </g>
    </g>
</svg>