<?xml version="1.0" encoding="UTF-8" standalone="no"?>
<svg width="500px" height="434px" viewBox="0 0 500 434" version="1.1" xmlns="http://www.w3.org/2000/svg" xmlns:xlink="http://www.w3.org/1999/xlink" xmlns:sketch="http://www.bohemiancoding.com/sketch/ns">
    <!-- Generator: Sketch 3.4.4 (17249) - http://www.bohemiancoding.com/sketch -->
    <title>icon-font_93_Attache</title>
    <desc>Created with Sketch.</desc>
    <defs></defs>
    <g id="Page-1" stroke="none" stroke-width="1" fill="none" fill-rule="evenodd" sketch:type="MSPage">
        <g id="Artboard-1" sketch:type="MSArtboardGroup" transform="translate(-6000.000000, -9045.000000)" fill="#000000">
            <path d="M6395.14693,9412.0682 L6334.69223,9397.98481 L6344.84222,9356.65594 L6405.29692,9370.73932 L6395.14693,9412.0682 L6395.14693,9412.0682 Z M6404.07947,9272.14209 C6353.74694,9284.62001 6286.58587,9297.21986 6250,9297.21986 C6213.41413,9297.21986 6146.26002,9284.62001 6095.92053,9272.14209 C6074.904,9266.93279 6044.89231,9258.79031 6021.23219,9249.57751 C6021.01653,9249.49622 6020.80783,9249.40816 6020.59216,9249.32687 L6020.59216,9437.07145 C6020.59216,9460.11022 6039.77905,9478.8 6063.43917,9478.8 L6436.56083,9478.8 C6460.21399,9478.8 6479.40784,9460.11022 6479.40784,9437.07145 L6479.40784,9249.32687 C6479.19217,9249.40816 6478.98347,9249.49622 6478.76781,9249.57751 C6455.10769,9258.79031 6425.08905,9266.93279 6404.07947,9272.14209 Z M6200.33532,9096.91607 C6200.33532,9096.76026 6206.48514,9081.78269 6250.84177,9081.78269 C6288.71466,9081.78269 6299.28206,9093.40708 6300.30471,9098.22347 L6300.30471,9124.358 L6200.33532,9124.358 L6200.33532,9096.91607 Z M6163.03985,9124.358 L6046.69412,9124.358 C6020.90522,9124.358 6000,9143.04101 6000,9166.07978 L6000,9207.06994 C6000,9230.11548 6188.83571,9273.00917 6250,9273.00917 C6311.17125,9273.00917 6500,9230.11548 6500,9207.06994 L6500,9166.07978 C6500,9143.04101 6479.09478,9124.358 6453.31283,9124.358 L6337.60018,9124.358 L6337.60018,9097.41735 C6337.60018,9095.29028 6336.61927,9045.46667 6250.84177,9045.46667 C6164.04163,9045.46667 6163.03985,9094.81609 6163.03985,9096.91607 L6163.03985,9124.358 L6163.03985,9124.358 Z" id="icon-font_93_Attache" sketch:type="MSShapeGroup"></path>
        </g>
    </g>
</svg>