<?xml version="1.0" encoding="UTF-8" standalone="no"?>
<svg width="500px" height="500px" viewBox="0 0 500 500" version="1.1" xmlns="http://www.w3.org/2000/svg" xmlns:xlink="http://www.w3.org/1999/xlink">
    <!-- Generator: Sketch 3.7.2 (28276) - http://www.bohemiancoding.com/sketch -->
    <title>icon-font_81_Linkedin</title>
    <desc>Created with Sketch.</desc>
    <defs></defs>
    <g id="Page-1" stroke="none" stroke-width="1" fill="none" fill-rule="evenodd">
        <g id="Artboard-1" transform="translate(-2000.000000, -8000.000000)" fill="#000000">
            <path d="M2000,8035.81689 C2000,8016.0411 2016.54224,8000 2036.94908,8000 L2463.05091,8000 C2483.45709,8000 2500,8016.0411 2500,8035.81689 L2500,8464.18311 C2500,8483.96558 2483.45709,8500 2463.05091,8500 L2036.94908,8500 C2016.54224,8500 2000,8483.96558 2000,8464.18311 L2000,8035.81689 L2000,8035.81689 L2000,8035.81689 Z M2141.32261,8407.43891 L2141.32261,8181.66091 L2065.80209,8181.66091 L2065.80209,8407.43891 L2141.32261,8407.43891 L2141.32261,8407.43891 Z M2103.56202,8150.83473 C2129.89755,8150.83473 2146.28918,8133.49751 2146.28918,8111.831 C2145.79838,8089.67678 2129.89755,8072.82059 2104.06156,8072.82059 C2078.22827,8072.82059 2061.33775,8089.67678 2061.33775,8111.831 C2061.33775,8133.49751 2077.72603,8150.83473 2103.06986,8150.83473 L2103.56067,8150.83473 L2103.56202,8150.83473 L2103.56202,8150.83473 Z M2183.11053,8407.43891 L2258.63038,8407.43891 L2258.63038,8281.35491 C2258.63038,8274.6071 2259.12119,8267.86596 2261.11534,8263.04227 C2266.57474,8249.55999 2279.00092,8235.59669 2299.86361,8235.59669 C2327.19085,8235.59669 2338.12241,8256.30113 2338.12241,8286.65295 L2338.12241,8407.43891 L2413.63621,8407.43891 L2413.63621,8277.981 C2413.63621,8208.63214 2376.37852,8176.36286 2326.69197,8176.36286 C2285.95089,8176.36286 2268.06532,8198.99144 2258.12814,8214.40453 L2258.6324,8214.40453 L2258.6324,8181.66091 L2183.11254,8181.66091 C2184.10357,8202.84638 2183.11254,8407.43891 2183.11254,8407.43891 L2183.11053,8407.43891 L2183.11053,8407.43891 Z" id="icon-font_81_Linkedin"></path>
        </g>
    </g>
</svg>