<?xml version="1.0" encoding="UTF-8" standalone="no"?>
<svg width="500px" height="465px" viewBox="0 0 500 465" version="1.1" xmlns="http://www.w3.org/2000/svg" xmlns:xlink="http://www.w3.org/1999/xlink" xmlns:sketch="http://www.bohemiancoding.com/sketch/ns">
    <!-- Generator: Sketch 3.4.4 (17249) - http://www.bohemiancoding.com/sketch -->
    <title>icon-font_60_Outside</title>
    <desc>Created with Sketch.</desc>
    <defs></defs>
    <g id="Page-1" stroke="none" stroke-width="1" fill="none" fill-rule="evenodd" sketch:type="MSPage">
        <g id="Artboard-1" sketch:type="MSArtboardGroup" transform="translate(-1000.000000, -6018.000000)" fill="#000000">
            <path d="M1337.54162,6416.21086 C1337.54162,6424.37788 1330.18868,6431.28545 1321.44839,6431.28545 L1070.54661,6431.28545 C1061.80633,6431.28545 1054.45339,6424.37788 1054.45339,6416.21086 L1054.45339,6181.42499 C1054.45339,6173.23848 1061.80633,6166.33091 1070.54661,6166.33091 L1202.76082,6166.33091 L1257.14484,6115.38112 L1070.54661,6115.38112 C1031.77026,6115.38112 1000,6145.09534 1000,6181.42499 L1000,6416.21086 C1000,6452.52103 1031.77026,6482.24174 1070.54661,6482.24174 L1321.44839,6482.24174 C1360.22475,6482.24174 1391.99501,6452.52103 1391.99501,6416.21086 L1391.99501,6241.56107 L1337.54162,6292.50438 L1337.54162,6416.21086 Z M1247.36404,6035.204 L1327.83019,6110.564 L1180.35516,6248.62445 L1253.53774,6317.15479 L1401.08213,6179.10732 L1481.61765,6254.46732 L1500,6018 L1247.36404,6035.204 Z" id="icon-font_60_Outside" sketch:type="MSShapeGroup"></path>
        </g>
    </g>
</svg>