<?xml version="1.0" encoding="UTF-8" standalone="no"?>
<svg width="500px" height="280px" viewBox="0 0 500 280" version="1.1" xmlns="http://www.w3.org/2000/svg" xmlns:xlink="http://www.w3.org/1999/xlink" xmlns:sketch="http://www.bohemiancoding.com/sketch/ns">
    <!-- Generator: Sketch 3.4.4 (17249) - http://www.bohemiancoding.com/sketch -->
    <title>icon-font_61_Jigsaw</title>
    <desc>Created with Sketch.</desc>
    <defs></defs>
    <g id="Page-1" stroke="none" stroke-width="1" fill="none" fill-rule="evenodd" sketch:type="MSPage">
        <g id="Artboard-1" sketch:type="MSArtboardGroup" transform="translate(-2000.000000, -6110.000000)" fill="#000000">
            <path d="M2444.76906,6203.30864 C2435.93489,6203.30864 2424.59655,6206.17107 2414.57986,6209.45782 L2414.57986,6139.46624 C2414.57986,6123.19414 2400.59822,6110 2383.34725,6110 L2116.30495,6110 C2099.05398,6110 2085.1419,6123.19414 2085.1419,6139.46624 L2085.1419,6209.75417 C2075.12521,6206.44048 2063.85643,6203.53763 2054.9527,6203.53763 L2041.11018,6203.53763 C2018.4335,6203.53763 2000,6221.37228 2000,6243.2817 L2000,6256.6981 C2000,6278.62098 2018.4335,6296.46237 2041.11018,6296.46237 L2054.9527,6296.46237 C2063.85643,6296.46237 2075.12521,6293.58646 2085.1419,6290.29971 L2085.1419,6360.53376 C2085.1419,6376.80586 2099.05398,6390 2116.30495,6390 L2209.93322,6390 C2205.62048,6378.88702 2201.09905,6364.69608 2201.09905,6354.00741 L2201.09905,6340.35528 C2201.09905,6318.10237 2219.8108,6299.98485 2242.76572,6299.98485 L2256.88648,6299.98485 C2279.91096,6299.98485 2298.6227,6318.10237 2298.6227,6340.35528 L2298.6227,6354.00741 C2298.6227,6364.69608 2294.03172,6378.88702 2289.71898,6390 L2383.34725,6390 C2400.59822,6390 2414.57986,6376.80586 2414.57986,6360.53376 L2414.57986,6290.4883 C2424.59655,6293.80199 2435.93489,6296.69136 2444.76906,6296.69136 L2458.7507,6296.69136 C2481.49694,6296.69136 2500,6278.77589 2500,6256.73851 L2500,6243.26149 C2500,6221.23085 2481.49694,6203.30864 2458.7507,6203.30864 L2444.76906,6203.30864 Z" id="icon-font_61_Jigsaw" sketch:type="MSShapeGroup"></path>
        </g>
    </g>
</svg>