<?xml version="1.0" encoding="UTF-8" standalone="no"?>
<svg width="447px" height="265px" viewBox="0 0 447 265" version="1.1" xmlns="http://www.w3.org/2000/svg" xmlns:xlink="http://www.w3.org/1999/xlink" xmlns:sketch="http://www.bohemiancoding.com/sketch/ns">
    <!-- Generator: Sketch 3.4.4 (17249) - http://www.bohemiancoding.com/sketch -->
    <title>icon-font_86_ArrowMenuLight</title>
    <desc>Created with Sketch.</desc>
    <defs></defs>
    <g id="Page-1" stroke="none" stroke-width="1" fill="none" fill-rule="evenodd" sketch:type="MSPage">
        <g id="Artboard-1" sketch:type="MSArtboardGroup" transform="translate(-7000.000000, -8235.000000)" fill="#000000">
            <g id="icon-font_86_ArrowMenuLight" sketch:type="MSLayerGroup" transform="translate(7000.000000, 8235.000000)">
                <path d="M231.966,261.411 C239.836,252.432 247.706,243.451 255.576,234.472 C274.115,213.32 292.654,192.166 311.195,171.014 C332.795,146.368 354.396,121.721 375.998,97.076 C393.055,77.615 410.109,58.155 427.166,38.695 C432.426,32.693 437.687,26.691 442.947,20.689 C447.254,15.774 447.798,8.569 442.947,3.718 C438.551,-0.678 430.291,-1.204 425.976,3.718 C418.105,12.697 410.236,21.678 402.365,30.657 C383.826,51.809 365.287,72.963 346.748,94.115 C325.146,118.761 303.545,143.408 281.943,168.053 C264.888,187.514 247.832,206.974 230.776,226.434 C225.515,232.436 220.255,238.438 214.994,244.44 C210.687,249.355 210.144,256.56 214.994,261.411 C219.391,265.807 227.652,266.333 231.966,261.411 L231.966,261.411 L231.966,261.411 Z" id="Shape" sketch:type="MSShapeGroup"></path>
                <path d="M231.966,244.44 C224.096,235.461 216.225,226.481 208.356,217.501 C189.816,196.349 171.277,175.196 152.737,154.043 C131.136,129.397 109.534,104.751 87.934,80.105 C70.877,60.644 53.822,41.184 36.766,21.724 C31.505,15.722 26.245,9.72 20.985,3.718 C16.671,-1.204 8.41,-0.678 4.014,3.718 C-0.838,8.569 -0.293,15.774 4.014,20.689 C11.883,29.668 19.754,38.648 27.625,47.628 C46.164,68.78 64.703,89.933 83.242,111.086 C104.844,135.732 126.445,160.378 148.047,185.024 C165.102,204.485 182.158,223.945 199.215,243.405 C204.475,249.407 209.735,255.409 214.994,261.411 C219.308,266.333 227.57,265.807 231.966,261.411 C236.816,256.561 236.273,249.355 231.966,244.44 L231.966,244.44 L231.966,244.44 Z" id="Shape" sketch:type="MSShapeGroup"></path>
            </g>
        </g>
    </g>
</svg>