<?xml version="1.0" encoding="UTF-8" standalone="no"?>
<svg width="500px" height="500px" viewBox="0 0 500 500" version="1.1" xmlns="http://www.w3.org/2000/svg" xmlns:xlink="http://www.w3.org/1999/xlink" xmlns:sketch="http://www.bohemiancoding.com/sketch/ns">
    <!-- Generator: Sketch 3.4.4 (17249) - http://www.bohemiancoding.com/sketch -->
    <title>icon-font_75_Streets</title>
    <desc>Created with Sketch.</desc>
    <defs></defs>
    <g id="Page-1" stroke="none" stroke-width="1" fill="none" fill-rule="evenodd" sketch:type="MSPage">
        <g id="Artboard-1" sketch:type="MSArtboardGroup" transform="translate(-6000.000000, -7000.000000)" fill="#000000">
            <path d="M6000,7250 C6000,7111.92881 6111.92881,7000 6250,7000 C6388.07119,7000 6500,7111.92881 6500,7250 C6500,7388.07119 6388.07119,7500 6250,7500 C6111.92881,7500 6000,7388.07119 6000,7250 L6000,7250 L6000,7250 Z M6253.25873,7469.97636 C6268.64353,7469.75297 6283.64602,7467.95038 6298.11136,7464.72343 L6279.61937,7446.16023 L6253.25873,7469.97636 L6253.25873,7469.97636 L6253.25873,7469.97636 Z M6390.01917,7419.69768 C6432.73958,7384.40849 6461.90943,7333.29864 6468.55639,7275.34048 L6351.57149,7381.07974 L6390.01917,7419.69768 L6390.01917,7419.69768 L6390.01917,7419.69768 Z M6451.05665,7160.55531 C6443.98092,7144.67416 6435.07881,7129.786 6424.61715,7116.15769 L6247.28245,7276.44541 L6283.10508,7312.39122 L6451.05665,7160.55531 L6451.05665,7160.55531 L6451.05665,7160.55531 Z M6349.30351,7053.63391 C6319.4717,7038.51791 6285.73058,7030 6250,7030 C6181.99039,7030 6121.18849,7060.85984 6080.83327,7109.34052 L6178.83992,7207.72456 L6349.30351,7053.63391 L6349.30351,7053.63391 L6349.30351,7053.63391 Z M6035.46515,7201.05103 C6031.88853,7216.79265 6030,7233.17578 6030,7250 C6030,7277.85296 6035.17602,7304.497 6044.61865,7329.0227 L6106.89006,7272.73737 L6035.46515,7201.05103 L6035.46515,7201.05103 L6035.46515,7201.05103 Z M6099.26467,7410.24713 C6111.8065,7422.04899 6125.73388,7432.39501 6140.77684,7441.01518 L6211.14782,7377.42502 L6175.34783,7341.48717 L6099.26467,7410.24713 L6099.26467,7410.24713 L6099.26467,7410.24713 Z M6083.04752,7391.3306 L6177.24104,7306.18549 L6248.36842,7377.58675 L6165.87407,7452.15102 C6182.7556,7459.24126 6200.708,7464.28638 6219.42125,7466.97636 L6281.50057,7410.84649 L6326.43421,7455.95316 C6342.09078,7450.23869 6356.91595,7442.79631 6370.67893,7433.85679 L6316.31759,7379.37639 L6470.80015,7239.74405 C6469.99567,7220.77227 6466.78852,7202.42227 6461.47518,7184.99053 L6283.18544,7346.11665 L6212.05806,7274.71538 L6409.29342,7096.44001 C6398.3234,7085.07712 6386.14117,7074.89221 6372.955,7066.09357 L6178.92591,7241.45565 L6066.79618,7128.89414 C6057.82136,7142.60491 6050.33599,7157.37865 6044.56994,7172.98551 L6144.10889,7272.92575 L6056.49467,7352.11773 C6063.93839,7366.16013 6072.85826,7379.30001 6083.04752,7391.3306 L6083.04752,7391.3306 L6083.04752,7391.3306 Z" id="icon-font_75_Streets" sketch:type="MSShapeGroup"></path>
        </g>
    </g>
</svg>