<?xml version="1.0" encoding="UTF-8" standalone="no"?>
<svg width="500px" height="240px" viewBox="0 0 500 240" version="1.1" xmlns="http://www.w3.org/2000/svg" xmlns:xlink="http://www.w3.org/1999/xlink">
    <!-- Generator: Sketch 3.7.2 (28276) - http://www.bohemiancoding.com/sketch -->
    <title>icon-font_37_People</title>
    <desc>Created with Sketch.</desc>
    <defs></defs>
    <g id="Page-1" stroke="none" stroke-width="1" fill="none" fill-rule="evenodd">
        <g id="Artboard-1" transform="translate(-8000.000000, -3130.000000)" fill="#000000">
            <path d="M8500,3349.42679 C8500,3349.42679 8499.88189,3337.26676 8474.84993,3326.19898 C8462.72649,3320.83446 8444.72543,3307.0153 8418.0747,3302.26604 C8424.88328,3295.01426 8430.0453,3283.65613 8435.35321,3270.21027 C8438.42402,3262.41928 8437.90296,3255.77584 8437.90296,3246.32572 C8437.90296,3239.32972 8439.22299,3228.11677 8437.4861,3221.95034 C8431.60155,3201.12827 8416.74772,3195.38353 8399.34415,3195.38353 C8381.94058,3195.38353 8367.06592,3201.15592 8361.19525,3222.01947 C8359.46532,3228.16516 8360.79924,3239.35046 8360.79924,3246.32572 C8360.79924,3255.79658 8360.27123,3262.46767 8363.36288,3270.26558 C8367.73983,3281.33335 8371.95003,3290.89409 8377.05647,3297.96613 C8406.56959,3315.68425 8409.3347,3335.29654 8409.39723,3341.51136 L8409.39723,3369.98617 L8500,3369.97926 L8500,3349.42679 Z M8090.38045,3341.60815 L8090.38045,3341.49754 C8090.44992,3335.33802 8093.1803,3315.98151 8122.08898,3298.374 C8127.383,3291.22591 8131.73911,3281.47161 8136.18553,3270.21027 C8139.25634,3262.41928 8138.73527,3255.77584 8138.73527,3246.32572 C8138.73527,3239.32972 8140.0553,3228.11677 8138.31147,3221.95034 C8132.42691,3201.12827 8117.58004,3195.38353 8100.17647,3195.38353 C8082.759,3195.38353 8067.89129,3201.15592 8062.02757,3222.01947 C8060.29763,3228.16516 8061.62461,3239.35046 8061.62461,3246.32572 C8061.62461,3255.79658 8061.11049,3262.46767 8064.18825,3270.26558 C8069.53785,3283.78748 8074.6165,3295.11795 8081.41118,3302.34208 C8054.97582,3307.1743 8037.11372,3320.89668 8025.0528,3326.24737 C8000.11811,3337.30824 8000,3349.42679 8000,3349.42679 L8000,3370 L8090.38045,3369.98617 L8090.38045,3341.60815 Z M8353.33065,3309.79434 C8336.66352,3302.42504 8311.92335,3283.43492 8275.30291,3276.90209 C8284.66819,3266.92658 8291.75467,3251.33076 8299.04958,3232.84529 C8303.27368,3222.13699 8302.55113,3213.00487 8302.55113,3200.00144 C8302.55113,3190.39923 8304.37139,3174.99006 8301.97449,3166.5285 C8293.89451,3137.9016 8273.48266,3130 8249.56231,3130 C8225.62806,3130 8205.18842,3137.93617 8197.12928,3166.60455 C8194.74628,3175.05228 8196.57348,3190.43379 8196.57348,3200.00144 C8196.57348,3213.03943 8195.85788,3222.1923 8200.10282,3232.92134 C8207.44637,3251.50359 8214.42863,3267.07866 8223.76612,3277.0127 C8187.43052,3283.65613 8162.87795,3302.50799 8146.32198,3309.85655 C8112.04285,3325.06524 8111.87611,3341.71184 8111.87611,3341.71184 L8111.87611,3370 L8387.90157,3369.96543 L8387.90157,3341.71184 C8387.90157,3341.71184 8387.74177,3325.00994 8353.33065,3309.79434 Z" id="icon-font_37_People"></path>
        </g>
    </g>
</svg>