<?xml version="1.0" encoding="UTF-8" standalone="no"?>
<svg width="500px" height="333px" viewBox="0 0 500 333" version="1.1" xmlns="http://www.w3.org/2000/svg" xmlns:xlink="http://www.w3.org/1999/xlink">
    <!-- Generator: Sketch 3.7.2 (28276) - http://www.bohemiancoding.com/sketch -->
    <title>icon-font_104_Edition</title>
    <desc>Created with Sketch.</desc>
    <defs></defs>
    <g id="Page-1" stroke="none" stroke-width="1" fill="none" fill-rule="evenodd">
        <g id="Artboard-1" transform="translate(-8000.000000, -10082.000000)" fill="#000000">
            <g id="icon-font_104_Edition" transform="translate(8000.000000, 10082.000000)">
                <path d="M458.333333,62.4332457 L458.333333,41.4985518 C458.333333,18.615799 439.761032,0 416.850938,0 L41.4823958,0 C18.5348739,0 0,18.5795345 0,41.4985518 L0,291.478759 C0,314.361512 18.5723012,332.977311 41.4823958,332.977311 L323.008802,332.977311 L229.166667,332.977311 L229.166667,312.166229 L41.4823958,312.166229 C30.1003709,312.166229 20.8333333,302.889986 20.8333333,291.478759 L20.8333333,41.4985518 C20.8333333,30.0505525 30.0634509,20.8110819 41.4823958,20.8110819 L416.850938,20.8110819 C428.232962,20.8110819 437.5,30.0873246 437.5,41.4985518 L437.5,62.4332457 L458.333333,62.4332457 Z" id="Shape"></path>
                <path d="M497.385308,183.623975 L454.059573,138.92734 C450.680166,135.441002 445.186463,135.441002 441.807056,138.92734 L329.160145,255.138592 C328.172318,256.157676 327.565758,257.373424 327.149831,258.660687 C327.11517,258.785838 326.993858,258.875231 326.959198,259.01826 L309.628904,321.59355 C308.762389,324.704436 309.611573,328.065623 311.829851,330.37197 C313.476229,332.070442 315.677176,332.982253 317.947445,332.982253 C318.744638,332.982253 319.541832,332.874981 320.321695,332.642559 L380.977724,314.763904 C381.099036,314.728147 381.185687,314.602997 381.32433,314.567239 C382.572111,314.138152 383.750571,313.512399 384.738398,312.493315 L497.385308,196.282063 C500.764716,192.777846 500.764716,187.128192 497.385308,183.623975 L497.385308,183.623975 Z M378.603474,293.524063 L347.530257,261.467636 L413.264062,193.6539 L444.337279,225.710328 L378.603474,293.524063 L378.603474,293.524063 Z M339.558321,278.523872 L362.070373,301.748244 L330.563899,311.027266 L339.558321,278.523872 L339.558321,278.523872 Z M456.589796,213.070119 L425.516579,181.013692 L447.924649,157.896592 L478.997866,189.953019 L456.589796,213.070119 L456.589796,213.070119 Z" id="Shape"></path>
            </g>
        </g>
    </g>
</svg>