<?xml version="1.0" encoding="UTF-8" standalone="no"?>
<svg width="498px" height="463px" viewBox="0 0 498 463" version="1.1" xmlns="http://www.w3.org/2000/svg" xmlns:xlink="http://www.w3.org/1999/xlink">
    <!-- Generator: Sketch 3.7.2 (28276) - http://www.bohemiancoding.com/sketch -->
    <title>icon-font_58_Email</title>
    <desc>Created with Sketch.</desc>
    <defs></defs>
    <g id="Page-1" stroke="none" stroke-width="1" fill="none" fill-rule="evenodd">
        <g id="Artboard-1" transform="translate(-8996.000000, -5016.000000)" fill="#000000">
            <g id="icon-font_58_Email" transform="translate(8996.000000, 5016.000000)">
                <polyline id="Fill-404" points="308.656844 337.68 190.187852 337.68 178.343022 346.458186 20.8695652 462.746667 477.913043 462.746667 308.656844 337.68"></polyline>
                <polyline id="Fill-405" points="497.704581 182.959644 497.566384 182.849281 497.476555 182.787203 248.990488 0 0.124377776 182.959644 0.0621888881 182.959644 0 217.420204 0.0829185174 217.358126 0.0829185174 443.986667 154.456468 330.499955 154.470288 330.48616 0.338583946 217.178787 47.8439846 182.959644 48.0720105 182.787203 248.983578 34.2674273 451.636435 182.787203 451.864461 182.959644 497.303808 217.440897 343.545237 330.534444 343.524508 330.534444 497.697671 443.952179 497.697671 217.730598 497.711491 217.744393 497.73913 182.959644 497.704581 182.959644"></polyline>
            </g>
        </g>
    </g>
</svg>