<?xml version="1.0" encoding="UTF-8" standalone="no"?>
<svg width="274px" height="500px" viewBox="0 0 274 500" version="1.1" xmlns="http://www.w3.org/2000/svg" xmlns:xlink="http://www.w3.org/1999/xlink">
    <!-- Generator: Sketch 3.7.2 (28276) - http://www.bohemiancoding.com/sketch -->
    <title>icon-font_63_Question</title>
    <desc>Created with Sketch.</desc>
    <defs></defs>
    <g id="Page-1" stroke="none" stroke-width="1" fill="none" fill-rule="evenodd">
        <g id="Artboard-1" transform="translate(-4113.000000, -6000.000000)" fill="#000000">
            <path d="M4113,6050.10087 C4121.30307,6043.15172 4130.33533,6036.65101 4140.09705,6030.59852 C4149.85877,6024.54604 4160.34966,6019.22217 4171.57002,6014.62677 C4182.79039,6010.03136 4194.85211,6006.44476 4207.75553,6003.86685 C4220.65895,6001.28894 4234.6281,6000 4249.66339,6000 C4270.75768,6000 4289.77592,6002.80203 4306.71867,6008.40619 C4323.66143,6014.01034 4338.07938,6022.02416 4349.97297,6032.44788 C4361.86656,6042.87161 4371.01102,6055.42472 4377.40663,6070.1076 C4383.80224,6084.79048 4387,6101.09832 4387,6119.03161 C4387,6136.06823 4384.64376,6150.80693 4379.9312,6163.24815 C4375.21865,6175.68937 4369.27194,6186.50522 4362.09091,6195.69603 C4354.90987,6204.88684 4346.99963,6212.84462 4338.35995,6219.5696 C4329.72027,6226.29459 4321.52952,6232.5151 4313.78747,6238.23134 C4306.04542,6243.94757 4299.3133,6249.60768 4293.59091,6255.21184 C4287.86852,6260.81599 4284.22196,6267.09255 4282.65111,6274.04169 L4273.22604,6321.11634 L4201.86486,6321.11634 L4194.45946,6266.9805 C4192.6642,6255.99636 4193.78622,6246.4134 4197.82555,6238.23134 C4201.86489,6230.04928 4207.41888,6222.6519 4214.48771,6216.039 C4221.55655,6209.4261 4229.46679,6203.14955 4238.21867,6197.20915 C4246.97056,6191.26874 4255.16131,6184.88011 4262.79115,6178.04304 C4270.421,6171.20597 4276.87262,6163.58444 4282.14619,6155.17821 C4287.41976,6146.77198 4290.05651,6136.7407 4290.05651,6125.08406 C4290.05651,6111.6341 4285.62453,6100.93032 4276.76044,6092.97243 C4267.89635,6085.01453 4255.72244,6081.03564 4240.23833,6081.03564 C4228.34474,6081.03564 4218.41486,6082.26854 4210.4484,6084.73436 C4202.48194,6087.20019 4195.63762,6089.94619 4189.91523,6092.97243 C4184.19285,6095.99867 4179.19986,6098.74466 4174.93612,6101.21049 C4170.67238,6103.67632 4166.4087,6104.90921 4162.14496,6104.90921 C4152.49545,6104.90921 4145.31452,6100.7622 4140.60197,6092.46806 M4174.93612,6442.50168 C4174.93612,6434.4317 4176.45084,6426.92225 4179.48034,6419.9731 C4182.50984,6413.02395 4186.66132,6406.97156 4191.93489,6401.81574 C4197.20846,6396.65992 4203.43567,6392.56895 4210.61671,6389.5427 C4217.79774,6386.51646 4225.65188,6385.00336 4234.17936,6385.00336 C4242.48243,6385.00336 4250.22437,6386.51646 4257.40541,6389.5427 C4264.58644,6392.56895 4270.86975,6396.65992 4276.25553,6401.81574 C4281.6413,6406.97156 4285.84888,6413.02395 4288.87838,6419.9731 C4291.90788,6426.92225 4293.4226,6434.4317 4293.4226,6442.50168 C4293.4226,6450.57166 4291.90788,6458.13715 4288.87838,6465.19839 C4285.84888,6472.25962 4281.6413,6478.36805 4276.25553,6483.52387 C4270.86975,6488.67969 4264.58644,6492.71462 4257.40541,6495.62878 C4250.22437,6498.54294 4242.48243,6500 4234.17936,6500 C4225.65188,6500 4217.79774,6498.54294 4210.61671,6495.62878 C4203.43567,6492.71462 4197.20846,6488.67969 4191.93489,6483.52387 C4186.66132,6478.36805 4182.50984,6472.25962 4179.48034,6465.19839 C4176.45084,6458.13715 4174.93612,6450.57166 4174.93612,6442.50168" id="icon-font_63_Question"></path>
        </g>
    </g>
</svg>