<?xml version="1.0" encoding="UTF-8" standalone="no"?>
<svg width="500px" height="350px" viewBox="0 0 500 350" version="1.1" xmlns="http://www.w3.org/2000/svg" xmlns:xlink="http://www.w3.org/1999/xlink">
    <!-- Generator: Sketch 3.7.2 (28276) - http://www.bohemiancoding.com/sketch -->
    <title>icon-font_16_Cloud</title>
    <desc>Created with Sketch.</desc>
    <defs></defs>
    <g id="Page-1" stroke="none" stroke-width="1" fill="none" fill-rule="evenodd">
        <g id="Artboard-1" transform="translate(-5000.000000, -1063.000000)" fill="#191919">
            <path d="M5439.33923,1222.00688 C5439.51283,1219.01693 5439.78363,1216.04097 5439.78363,1213.002 C5439.78363,1130.15849 5373.19288,1063 5291.03421,1063 C5231.79691,1063 5180.79492,1098.0042 5156.87364,1148.54637 C5145.2706,1139.47147 5130.73729,1134.01673 5114.91938,1134.01673 C5077.02723,1134.01673 5046.30105,1165.00164 5046.30105,1203.21287 C5046.30105,1210.39016 5047.39123,1217.32238 5049.40492,1223.82746 C5019.86612,1241.54313 5000,1273.95651 5000,1311.1384 C5000,1366.72219 5044.26653,1411.80962 5099.1848,1412.66389 L5099.1848,1412.72691 L5100.3583,1412.72691 C5100.49717,1412.72691 5100.62911,1412.74792 5100.76104,1412.74792 C5100.89991,1412.74792 5101.0249,1412.72691 5101.16378,1412.72691 L5396.15593,1412.72691 C5397.94742,1412.81794 5399.71808,1413 5401.53041,1413 C5455.92095,1413 5500,1368.54277 5500,1313.70122 C5500,1272.367 5474.95382,1236.95667 5439.33923,1222.00688 Z M5141.30435,1303.625 C5159.31363,1303.625 5173.91304,1288.93434 5173.91304,1270.8125 C5173.91304,1252.69066 5159.31363,1238 5141.30435,1238 C5123.29506,1238 5108.69565,1252.69066 5108.69565,1270.8125 C5108.69565,1288.93434 5123.29506,1303.625 5141.30435,1303.625 Z M5250,1303.625 C5268.00929,1303.625 5282.6087,1288.93434 5282.6087,1270.8125 C5282.6087,1252.69066 5268.00929,1238 5250,1238 C5231.99071,1238 5217.3913,1252.69066 5217.3913,1270.8125 C5217.3913,1288.93434 5231.99071,1303.625 5250,1303.625 Z M5358.69565,1303.625 C5376.70494,1303.625 5391.30435,1288.93434 5391.30435,1270.8125 C5391.30435,1252.69066 5376.70494,1238 5358.69565,1238 C5340.68637,1238 5326.08696,1252.69066 5326.08696,1270.8125 C5326.08696,1288.93434 5340.68637,1303.625 5358.69565,1303.625 Z" id="icon-font_16_Cloud"></path>
        </g>
    </g>
</svg>