<?xml version="1.0" encoding="UTF-8" standalone="no"?>
<svg width="500px" height="500px" viewBox="0 0 500 500" version="1.1" xmlns="http://www.w3.org/2000/svg" xmlns:xlink="http://www.w3.org/1999/xlink">
    <!-- Generator: Sketch 3.7.2 (28276) - http://www.bohemiancoding.com/sketch -->
    <title>icon-font_96_Dashboard</title>
    <desc>Created with Sketch.</desc>
    <defs></defs>
    <g id="Page-1" stroke="none" stroke-width="1" fill="none" fill-rule="evenodd">
        <g id="Artboard-1" transform="translate(0.000000, -10000.000000)" fill="#191919">
            <g id="icon-font_96_Dashboard" transform="translate(0.000000, 10000.000000)">
                <path d="M93.8758506,104.846549 L406.124149,104.846549 L406.124149,145.951951 L93.8758506,145.951951 L93.8758506,104.846549 Z M93.8758506,354.048049 L406.124149,354.048049 L406.124149,395.153451 L93.8758506,395.153451 L93.8758506,354.048049 Z M93.8758506,229.343147 L281.072073,229.343147 L281.072073,270.448549 L93.8758506,270.448549 L93.8758506,229.343147 Z M447.854465,0 L52.1455353,0 C23.3995278,0 0,23.3995278 0,52.1455353 L0,447.854465 C0,476.600472 23.3995278,500 52.1455353,500 L447.854465,500 C476.669907,500 500,476.600472 500,447.854465 L500,52.1455353 C500,23.3995278 476.669907,0 447.854465,0 L447.854465,0 Z"></path>
            </g>
        </g>
    </g>
</svg>