<?xml version="1.0" encoding="UTF-8" standalone="no"?>
<svg width="500px" height="273px" viewBox="0 0 500 273" version="1.1" xmlns="http://www.w3.org/2000/svg" xmlns:xlink="http://www.w3.org/1999/xlink">
    <!-- Generator: Sketch 3.7.2 (28276) - http://www.bohemiancoding.com/sketch -->
    <title>icon-font_42_Key</title>
    <desc>Created with Sketch.</desc>
    <defs></defs>
    <g id="Page-1" stroke="none" stroke-width="1" fill="none" fill-rule="evenodd">
        <g id="Artboard-1" transform="translate(-3000.000000, -4114.000000)" fill="#000000">
            <path d="M3386.36364,4273.09091 L3270.84185,4273.09091 C3260.0219,4337.58439 3203.93173,4386.72727 3136.36364,4386.72727 C3061.05208,4386.72727 3000,4325.67519 3000,4250.36364 C3000,4175.05208 3061.05208,4114 3136.36364,4114 C3195.73722,4114 3246.24809,4151.9458 3264.96792,4204.90909 L3500,4204.90909 L3500,4261.72727 L3500,4318.54545 L3454.54545,4318.54545 L3454.54545,4273.09091 L3431.81818,4273.09091 L3431.81818,4318.54545 L3386.36364,4318.54545 L3386.36364,4273.09091 L3386.36364,4273.09091 Z M3136.36364,4341.27273 C3186.57134,4341.27273 3227.27273,4300.57134 3227.27273,4250.36364 C3227.27273,4200.15593 3186.57134,4159.45455 3136.36364,4159.45455 C3086.15593,4159.45455 3045.45455,4200.15593 3045.45455,4250.36364 C3045.45455,4300.57134 3086.15593,4341.27273 3136.36364,4341.27273 L3136.36364,4341.27273 Z" id="icon-font_42_Key"></path>
        </g>
    </g>
</svg>