<?xml version="1.0" encoding="UTF-8" standalone="no"?>
<svg width="333px" height="500px" viewBox="0 0 333 500" version="1.1" xmlns="http://www.w3.org/2000/svg" xmlns:xlink="http://www.w3.org/1999/xlink">
    <!-- Generator: Sketch 3.7.2 (28276) - http://www.bohemiancoding.com/sketch -->
    <title>icon-font_80_Share</title>
    <desc>Created with Sketch.</desc>
    <defs></defs>
    <g id="Page-1" stroke="none" stroke-width="1" fill="none" fill-rule="evenodd">
        <g id="Artboard-1" transform="translate(-1084.000000, -8000.000000)" fill="#000000">
            <path d="M1309.63403,8337.26602 C1304.42634,8338.97528 1296.98678,8337.18959 1293.11404,8333.31944 L1250.43047,8290.66439 C1246.55773,8286.79424 1244.81257,8279.37355 1246.56468,8274.18324 C1246.56468,8274.18324 1250.77811,8261.64172 1250.77811,8249.44762 C1250.77811,8238.15678 1247.37817,8227.11608 1247.37817,8227.11608 C1245.76511,8221.88408 1247.61457,8214.42865 1251.49426,8210.55155 L1294.69929,8167.38233 C1298.57203,8163.51218 1306.03245,8161.65006 1311.26795,8163.26204 C1311.26795,8163.26204 1322.32298,8166.67361 1333.60747,8166.67361 C1379.66317,8166.67361 1417,8129.36174 1417,8083.34376 C1417,8037.31188 1379.66317,8000 1333.60747,8000 C1287.55871,8000 1250.22189,8037.31188 1250.22189,8083.34376 C1250.22189,8095.15571 1254.09463,8107.09968 1254.09463,8107.09968 C1255.77722,8112.31778 1253.99033,8119.74542 1250.11759,8123.61557 L1207.69128,8165.99964 C1203.81854,8169.87674 1196.37898,8171.66243 1191.16434,8169.97401 C1191.16434,8169.97401 1179.21934,8166.11081 1167.38558,8166.11081 C1121.33683,8166.11081 1084,8203.42269 1084,8249.44762 C1084,8295.47255 1121.33683,8332.77748 1167.38558,8332.77748 C1178.29461,8332.77748 1188.68217,8329.67858 1188.68217,8329.67858 C1193.93158,8328.10828 1201.4059,8329.99125 1205.27864,8333.86835 L1249.42926,8377.99641 C1253.30895,8381.85962 1255.17232,8389.32199 1253.55926,8394.56094 C1253.55926,8394.56094 1250.22189,8405.46268 1250.22189,8416.66319 C1250.22189,8462.69507 1287.55871,8500 1333.60747,8500 C1379.66317,8500 1417,8462.69507 1417,8416.66319 C1417,8370.63826 1379.66317,8333.33333 1333.60747,8333.33333 C1321.70418,8333.33333 1309.63403,8337.26602 1309.63403,8337.26602 Z" id="icon-font_80_Share"></path>
        </g>
    </g>
</svg>