<?xml version="1.0" encoding="UTF-8" standalone="no"?>
<svg width="500px" height="500px" viewBox="0 0 500 500" version="1.1" xmlns="http://www.w3.org/2000/svg" xmlns:xlink="http://www.w3.org/1999/xlink">
    <!-- Generator: Sketch 3.8.1 (29687) - http://www.bohemiancoding.com/sketch -->
    <title>icon-font_113_Hide</title>
    <desc>Created with Sketch.</desc>
    <defs></defs>
    <g id="Page-1" stroke="none" stroke-width="1" fill="none" fill-rule="evenodd">
        <g id="Artboard-1" transform="translate(-8000.000000, -11000.000000)" fill="#000000">
            <g id="icon-font_113_Hide" transform="translate(8000.000000, 11000.000000)">
                <path d="M168.516382,396.527444 C194.193363,407.220614 221.780987,413.902897 250.502897,413.902897 C346.850106,413.902897 430.433697,326.17791 471.948787,277.869025 C493.317357,255.896446 498.973146,249.028031 498.973146,249.028031 C499.701368,248.186721 499.712307,246.818732 499.009367,245.974772 C499.009367,245.974772 492.362279,237.637656 471.948787,217.136769 C462.294003,205.902014 450.363963,192.535458 436.527263,178.636273 C436.424017,178.532561 436.320665,178.428819 436.217207,178.325049 L403.726892,204.807837 C421.268756,222.667154 441.521907,245.994982 441.521907,245.994982 C442.245864,246.823254 442.253276,248.172862 441.531978,248.999306 C441.531978,248.999306 412.348272,282.613362 393.702121,300.035106 C344.373268,346.124757 295.780717,372.369351 250.502897,372.369351 C235.900423,372.369351 221.065928,370.125273 206.159883,365.844312 L168.516372,396.52744 Z M62.9467973,325.173542 C24.4830048,288.609797 1.16779055,253.352643 1.16779055,247.502897 C1.16779055,234.702897 112.79892,81.1028969 250.502897,81.1028969 C280.140414,81.1028969 308.570175,89.4038635 334.939182,102.305011 C334.952385,102.31147 334.965587,102.317931 334.978788,102.324393 L298.872131,131.903038 C282.420027,125.815229 266.260719,122.636443 250.502897,122.636443 C201.51747,122.636443 149.921025,147.889782 101.771487,190.574805 C83.2680311,206.978295 66.5218737,224.964392 53.5539044,241.614973 C48.4535212,248.16375 48.4535212,246.842043 53.5539044,253.390821 C65.0065328,268.095739 79.4059564,283.842291 95.3601663,298.620445 L62.9467973,325.173542 Z" id="Combined-Shape"></path>
                <path d="M237.22238,286.587358 C241.248856,287.895585 245.54343,288.602807 249.999996,288.602807 C272.869077,288.602807 291.472421,269.979698 291.472421,247.086322 C291.472421,245.524539 291.385842,243.98263 291.217237,242.465151 L484.071441,84.8732304 L500,71.8571172 L473.967774,40 L458.039215,53.0161132 L266.925615,209.185689 C261.754686,206.862624 256.025402,205.569836 249.999996,205.569836 C227.130916,205.569836 208.527571,224.192945 208.527571,247.086322 C208.527571,250.181229 208.867562,253.198095 209.512119,256.101457 L15.9285586,414.289375 L5.68434189e-14,427.305488 L26.0322263,459.162606 L41.9607849,446.146492 L237.22238,286.587358 L237.22238,286.587358 Z" id="Combined-Shape"></path>
            </g>
        </g>
    </g>
</svg>