<?xml version="1.0" encoding="UTF-8" standalone="no"?>
<svg width="500px" height="375px" viewBox="0 0 500 375" version="1.1" xmlns="http://www.w3.org/2000/svg" xmlns:xlink="http://www.w3.org/1999/xlink">
    <!-- Generator: Sketch 3.8.1 (29687) - http://www.bohemiancoding.com/sketch -->
    <title>icon-font_111_Redo</title>
    <desc>Created with Sketch.</desc>
    <defs></defs>
    <g id="Page-1" stroke="none" stroke-width="1" fill="none" fill-rule="evenodd">
        <g id="Artboard-1" transform="translate(-5999.000000, -11062.000000)" fill="#000000">
            <g id="icon-font_111_Redo" transform="translate(5999.000000, 11062.000000)">
                <path d="M428.09256,166.666678 L125,166.666678 C76.5520421,166.666678 41.6666667,201.164877 41.6666667,250.000001 C41.6666667,298.835128 76.552045,333.333335 125,333.333335 L208.333333,333.333335 C219.839266,333.333335 229.166667,342.660736 229.166667,354.166668 C229.166667,365.672601 219.839266,375.000002 208.333333,375.000002 L125,375.000002 C53.6436311,375.000002 0,321.951728 0,250.000001 C0,178.048276 53.6436295,125.000011 125,125.000011 L429.661739,125.000011 L339.500314,35.6294786 C331.328629,27.5294756 331.27052,14.3386666 339.370523,6.16698191 C347.470526,-2.00470276 360.661335,-2.0628123 368.833019,6.03719063 L493.833019,129.940695 C502.004926,138.040918 502.062784,151.232165 493.962246,159.403761 L368.962246,285.500257 C360.861929,293.67163 347.671118,293.729232 339.499745,285.628914 C331.328372,277.528597 331.27077,264.337786 339.371087,256.166413 L428.09256,166.666678 Z" id="Combined-Shape"></path>
            </g>
        </g>
    </g>
</svg>