<?xml version="1.0" encoding="UTF-8" standalone="no"?>
<svg width="500px" height="500px" viewBox="0 0 500 500" version="1.1" xmlns="http://www.w3.org/2000/svg" xmlns:xlink="http://www.w3.org/1999/xlink">
    <!-- Generator: Sketch 3.7.2 (28276) - http://www.bohemiancoding.com/sketch -->
    <title>icon-font_70_MergeArrow</title>
    <desc>Created with Sketch.</desc>
    <defs></defs>
    <g id="Page-1" stroke="none" stroke-width="1" fill="none" fill-rule="evenodd">
        <g id="Artboard-1" transform="translate(-1000.000000, -7000.000000)" fill="#000000">
            <path d="M1111.11111,7111.11111 L1500,7111.11111 L1500,7500 L1111.11111,7500 L1111.11111,7111.11111 Z M1416.66667,7386.82903 L1387.01764,7416.66667 L1222.22222,7250.99961 L1222.22222,7222.22222 L1252.92479,7222.22222 L1416.66667,7386.82903 Z M1194.44444,7194.44444 L1222.22222,7194.44444 L1222.22222,7416.66667 L1194.44444,7416.66667 L1194.44444,7194.44444 Z M1416.66667,7194.44444 L1416.66667,7222.22222 L1222.22222,7222.22222 L1222.22222,7194.44444 L1416.66667,7194.44444 Z M1000,7000 L1388.88889,7000 L1388.88889,7027.77778 L1000,7027.77778 L1000,7000 Z M1027.77778,7333.33333 L1083.33333,7333.33333 L1083.33333,7361.11111 L1027.77778,7361.11111 L1027.77778,7333.33333 Z M1000,7361.11111 L1000,7027.77778 L1027.77778,7027.77778 L1027.77778,7361.11111 L1000,7361.11111 Z M1361.11111,7083.33333 L1361.11111,7027.77778 L1388.88889,7027.77778 L1388.88889,7083.33333 L1361.11111,7083.33333 Z" id="icon-font_70_MergeArrow"></path>
        </g>
    </g>
</svg>